<?xml version="1.0" encoding="UTF-8"?>
<svg width="452px" height="455px" viewBox="0 0 452 455" version="1.1" xmlns="http://www.w3.org/2000/svg" xmlns:xlink="http://www.w3.org/1999/xlink">
    <!-- Generator: Sketch 55.2 (78181) - https://sketchapp.com -->
    <title>Group 106</title>
    <desc>Created with Sketch.</desc>
    <defs>
        <polygon id="path-1" points="0 0.333025557 22.885 0.333025557 22.885 5.30337143 0 5.30337143"></polygon>
    </defs>
    <g id="Page-2" stroke="none" stroke-width="1" fill="none" fill-rule="evenodd">
        <g id="07_Flow" transform="translate(-767.000000, -1795.000000)">
            <g id="Group-106" transform="translate(767.000000, 1795.000000)">
                <path d="M296.794853,11.7551245 C297.030177,11.0815716 297.475086,10.5872848 298.13142,10.2757448 C298.785914,9.9659453 299.458794,9.91547235 300.150058,10.1330282 C300.861545,10.3558054 301.381832,10.7769934 301.712756,11.3983329 C302.041842,12.0179319 302.087804,12.6653781 301.85248,13.3389309 C301.62451,13.9933389 301.183277,14.477183 300.526944,14.788723 C299.872449,15.1002629 299.188539,15.1437741 298.477052,14.9209969 C297.785788,14.7051816 297.274693,14.2874744 296.945607,13.6678753 C296.614683,13.0465359 296.566883,12.4095324 296.794853,11.7551245 L296.794853,11.7551245 Z M295.844365,17.0669677 L299.269432,18.1408233 L294.425067,32 L291,30.9278849 L295.844365,17.0669677 Z" id="Fill-1" fill="#1D1D1B"></path>
                <path d="M305.151829,34.5256968 C305.770577,34.7738038 306.382152,34.8819075 306.986553,34.8500081 C307.592747,34.8163364 308.155898,34.674561 308.677799,34.4229096 C309.197906,34.1748026 309.667796,33.8239085 310.083882,33.3702272 C310.501762,32.918318 310.831761,32.3972934 311.075673,31.805381 C311.317792,31.2134687 311.448716,30.6126953 311.466651,29.9995167 C311.486379,29.3881102 311.396705,28.8121476 311.199423,28.2751732 C311.002141,27.7381988 310.699044,27.2490736 310.286545,26.8095698 C309.875839,26.3665217 309.361112,26.0227163 308.742364,25.7763815 C308.123615,25.5282745 307.515628,25.421943 306.920194,25.459159 C306.324761,25.4963751 305.76699,25.6399227 305.246883,25.8898018 C304.726776,26.1414532 304.260472,26.4941195 303.853354,26.9513453 C303.446235,27.4050266 303.119823,27.9295956 302.877704,28.5197358 C302.635585,29.1116481 302.499281,29.7106493 302.470585,30.3202836 C302.44189,30.9281456 302.526183,31.5005639 302.723465,32.0393105 C302.920747,32.5762848 303.220257,33.0636378 303.620202,33.5013694 C304.02194,33.9373288 304.53308,34.2775898 305.151829,34.5256968 L305.151829,34.5256968 Z M309.013178,36.8313195 C308.290408,37.3452554 307.445682,37.6376671 306.475413,37.7067827 C305.506937,37.7776704 304.611993,37.6500725 303.794169,37.3222169 C302.737813,36.8986628 301.850043,36.3191558 301.13086,35.5836958 C300.40809,34.8464637 299.873635,34.0188497 299.518527,33.0955373 C299.167006,32.1757693 298.993039,31.2099243 299.000213,30.2033188 C299.005594,29.1967134 299.211843,28.2007411 299.617168,27.2136298 C300.013526,26.249557 300.564122,25.3989045 301.274338,24.6616723 C301.98276,23.9244401 302.789824,23.3449331 303.693735,22.9266957 C304.595852,22.5084582 305.564328,22.2833897 306.600956,22.2497181 C307.63579,22.2178186 308.681386,22.4127598 309.739535,22.8363138 C310.557359,23.1641695 311.289097,23.6869663 311.934747,24.4047044 C312.580398,25.1224424 312.980343,25.9146125 313.136375,26.7794426 L316.739464,18 L320,19.306106 L311.509694,40 L308.249158,38.693894 L309.013178,36.8313195 Z" id="Fill-3" fill="#1D1D1B"></path>
                <path d="M326.885595,32.2431978 C325.920169,31.7433734 324.976,31.6067307 324.051317,31.829674 C323.128406,32.0544152 322.391494,32.7142554 321.838809,33.8091946 L328.430276,37.2216652 C328.951074,36.1824619 329.062674,35.2151757 328.759761,34.3216046 C328.458619,33.4262356 327.833306,32.7322347 326.885595,32.2431978 L326.885595,32.2431978 Z M320.666127,36.1447053 C320.462414,36.6445298 320.3207,37.1407584 320.240986,37.6315932 C320.161272,38.124226 320.178986,38.5988794 320.294128,39.0573515 C320.409271,39.5176215 320.639556,39.9509225 320.983212,40.3590526 C321.325097,40.7671826 321.821095,41.1375562 322.464122,41.4701732 C323.355148,41.9322411 324.084974,42.0922568 324.655373,41.9502204 C325.227542,41.8117798 325.728855,41.55108 326.161083,41.168121 L329.284102,42.7844598 C328.899703,43.3130511 328.417876,43.7589377 327.840392,44.1257154 C327.262908,44.492493 326.616338,44.7460011 325.902455,44.8844417 C325.188571,45.0228823 324.430402,45.0372657 323.627947,44.9257941 C322.825492,44.8107266 321.998238,44.5356433 321.146183,44.0951505 C320.028415,43.5162172 319.149789,42.831206 318.508534,42.0383189 C317.86905,41.2490278 317.43328,40.3914153 317.202995,39.4726732 C316.972709,38.5557291 316.939052,37.5938367 317.098481,36.5851981 C317.257909,35.5783575 317.583851,34.5859003 318.076306,33.6042306 C318.57939,32.6045817 319.194074,31.7505651 319.922129,31.036787 C320.650184,30.3248068 321.449096,29.7926196 322.317094,29.4420233 C323.18332,29.0914271 324.115089,28.9493906 325.107086,29.015914 C326.100854,29.0824374 327.117651,29.3844896 328.159248,29.9238685 C329.011303,30.3643613 329.734043,30.9325071 330.32747,31.626508 C330.920897,32.3223068 331.358439,33.0882248 331.643638,33.9260601 C331.927066,34.7602995 332.040437,35.6269016 331.987294,36.5186747 C331.93238,37.4104479 331.687923,38.2878376 331.252153,39.1544397 C331.135239,39.3845747 330.993526,39.6560621 330.82524,39.9689018 C330.656955,40.2799437 330.423127,40.6377317 330.125528,41.0422659 L320.666127,36.1447053 Z" id="Fill-5" fill="#1D1D1B"></path>
                <path d="M337.234443,50.6687651 C337.777695,51.0086506 338.341642,51.2150097 338.919386,51.2843741 C339.49713,51.3537384 340.055903,51.3103857 340.590532,51.1560499 C341.126886,50.99998 341.628747,50.7398636 342.099565,50.3739664 C342.572108,50.0063351 342.972218,49.5589348 343.301618,49.0300313 C343.629294,48.4993937 343.853493,47.9427444 343.974215,47.3548812 C344.094938,46.7687521 344.105286,46.1999641 344.008708,45.646783 C343.91213,45.0953361 343.705176,44.5733691 343.387848,44.0808819 C343.073969,43.5883947 342.642817,43.1722083 342.097841,42.8288546 C341.554589,42.487235 340.99754,42.2860782 340.426694,42.2219162 C339.855849,42.1594882 339.302249,42.2045751 338.769345,42.3589108 C338.232991,42.5149807 337.732855,42.7768313 337.27066,43.1496649 C336.808464,43.5207644 336.411804,43.9733671 336.084128,44.5022706 C335.756453,45.0311741 335.52708,45.5860892 335.399459,46.1687501 C335.268388,46.7496769 335.252867,47.3149967 335.349445,47.8681777 C335.446023,48.4196246 335.649527,48.9381235 335.956507,49.4254083 C336.265212,49.9109591 336.691191,50.3271454 337.234443,50.6687651 L337.234443,50.6687651 Z M350,44.6600746 L342.342735,57 L339.471261,55.199994 L340.506026,53.5300463 C339.736851,53.9063481 338.886618,54.0485451 337.957054,53.9566373 C337.02749,53.8629953 336.201402,53.5907401 335.48224,53.1381374 C334.550951,52.5537424 333.807644,51.8479597 333.247146,51.0190552 C332.688373,50.1901508 332.317582,49.3022865 332.138223,48.3554626 C331.957139,47.4069045 331.953689,46.4479418 332.1296,45.4803085 C332.30551,44.509207 332.665953,43.5831924 333.214379,42.7005305 C333.749008,41.8352097 334.416431,41.1068835 335.211476,40.5155521 C336.004796,39.9224865 336.865376,39.4993637 337.791492,39.2444496 C338.715882,38.9930037 339.67304,38.934044 340.659517,39.0745068 C341.645993,39.2167038 342.603151,39.5773987 343.53444,40.1617937 C344.253602,40.6126623 344.860665,41.24041 345.352178,42.0381005 C345.843692,42.8375251 346.092036,43.6681637 346.095485,44.5282822 L347.128526,42.8600686 L350,44.6600746 Z" id="Fill-7" fill="#1D1D1B"></path>
                <path d="M389.765343,69.7265791 C390.275809,69.2250175 390.875952,68.9814019 391.562322,69.0011061 C392.248692,69.019019 392.82814,69.2859214 393.298942,69.800022 C393.78354,70.3302442 394.016354,70.9536135 393.999108,71.6665474 C393.980138,72.3794813 393.716282,72.9885203 393.205816,73.4936644 C392.710871,73.9808956 392.117626,74.2155548 391.431256,74.1958506 C390.743161,74.1779377 390.15854,73.9038701 389.673942,73.3736479 C389.204864,72.8595474 388.977224,72.2433432 388.996194,71.5304093 C389.01344,70.8156841 389.270397,70.2138103 389.765343,69.7265791 L389.765343,69.7265791 Z M386.493875,74.106286 L388.822015,76.6570847 L378.32814,87 L376,84.4492013 L386.493875,74.106286 Z" id="Fill-9" fill="#1D1D1B"></path>
                <path d="M387.394349,93.5049541 C387.826318,93.9908704 388.321812,94.3574388 388.877201,94.6029544 C389.434405,94.8450601 390.004314,94.9780477 390.590557,94.9985074 C391.174986,95.020672 391.763045,94.9320135 392.354734,94.737647 C392.948237,94.5398706 393.492736,94.2466158 393.99549,93.8527679 C394.498244,93.4606249 394.904803,93.008808 395.218798,92.4973171 C395.529162,91.9875312 395.728811,91.4606956 395.814116,90.9134004 C395.897606,90.3695152 395.861306,89.81881 395.707031,89.261285 C395.552757,88.70376 395.258727,88.1803343 394.828573,87.692713 C394.394789,87.2050918 393.90474,86.8436382 393.354797,86.6066475 C392.804853,86.3696567 392.238574,86.241784 391.654145,86.2213244 C391.066086,86.2008647 390.481658,86.2929331 389.899044,86.4958245 C389.314615,86.7004208 388.770116,86.9987905 388.267362,87.3909334 C387.766424,87.7847814 387.356234,88.2297784 387.036795,88.7344494 C386.715541,89.2374154 386.515891,89.7608411 386.430586,90.3047263 C386.347097,90.8503166 386.377952,91.3976118 386.524966,91.9483169 C386.673796,92.4973171 386.964195,93.0173328 387.394349,93.5049541 L387.394349,93.5049541 Z M389.726619,97.1910981 C388.835456,97.3036261 387.938848,97.1723435 387.040425,96.7972502 C386.142002,96.4221569 385.405114,95.912371 384.835205,95.2678925 C384.096501,94.4341625 383.582858,93.5424634 383.296088,92.5979103 C383.009319,91.6499473 382.931274,90.7053942 383.060139,89.765956 C383.192633,88.8265178 383.501183,87.9279988 383.996677,87.0772191 C384.486726,86.2264393 385.152829,85.4745477 385.991357,84.8198394 C386.809921,84.1787709 387.715604,83.7047894 388.704777,83.3961899 C389.692134,83.0892954 390.690382,82.9597177 391.697705,83.0108668 C392.706843,83.0620159 393.679681,83.3058265 394.619849,83.7405937 C395.560017,84.1770659 396.398545,84.8113146 397.137248,85.6467496 C397.708972,86.2912281 398.108271,87.0635793 398.338776,87.9603933 C398.567465,88.8589122 398.54387,89.709692 398.264361,90.5144376 L405.72218,84.6834419 L408,87.2545359 L390.423578,101 L388.145758,98.428906 L389.726619,97.1910981 Z" id="Fill-11" fill="#1D1D1B"></path>
                <path d="M407.404817,102.805647 C406.767889,101.882883 405.978099,101.296505 405.033625,101.046513 C404.090972,100.796522 403.108283,101.02997 402.085559,101.750534 L406.429408,108.04996 C407.397538,107.366159 407.958035,106.550009 408.110897,105.595996 C408.26558,104.640145 408.029007,103.710029 407.404817,102.805647 L407.404817,102.805647 Z M399.909085,103.281734 C399.485073,103.632825 399.121114,104.009651 398.813569,104.41405 C398.506024,104.818448 398.296747,105.255934 398.1821,105.726507 C398.067453,106.197079 398.067453,106.700739 398.18574,107.235648 C398.302207,107.772395 398.571536,108.349582 398.997368,108.963533 C399.583342,109.814608 400.169316,110.316429 400.755289,110.468998 C401.339443,110.623404 401.916318,110.632595 402.489553,110.498409 L404.54956,113.485443 C403.950848,113.772198 403.299362,113.94131 402.600561,113.987264 C401.903579,114.035057 401.197499,113.948663 400.48232,113.722567 C399.770781,113.500148 399.077439,113.141704 398.404115,112.647235 C397.730791,112.152766 397.113881,111.498376 396.551565,110.684064 C395.814548,109.616085 395.345041,108.570163 395.143044,107.542623 C394.939227,106.516922 394.953785,105.529822 395.183079,104.590515 C395.412373,103.649369 395.840025,102.765207 396.464215,101.934352 C397.090224,101.103497 397.859997,100.368227 398.773533,99.7248657 C399.707088,99.0704754 400.671579,98.5980645 401.672466,98.3131474 C402.669713,98.0245539 403.648762,97.9363215 404.600514,98.0447739 C405.554087,98.1532262 406.463984,98.4804213 407.333845,99.0245211 C408.200067,99.570459 408.978939,100.340654 409.665002,101.336945 C410.227318,102.151257 410.611295,103.015199 410.816931,103.932448 C411.022568,104.849697 411.055324,105.754079 410.913381,106.64927 C410.771437,107.540785 410.462072,108.377155 409.987105,109.154703 C409.512139,109.932251 408.871571,110.605023 408.063583,111.173019 C407.848847,111.323749 407.592256,111.498376 407.29017,111.698737 C406.988084,111.895421 406.605928,112.104973 406.1437,112.323716 L399.909085,103.281734 Z" id="Fill-13" fill="#1D1D1B"></path>
                <path d="M407.764915,122.999749 C408.089311,123.557825 408.493935,124.00498 408.977042,124.339479 C409.461893,124.675711 409.978137,124.902755 410.529263,125.018876 C411.078644,125.134998 411.652443,125.14193 412.245426,125.04314 C412.840153,124.942617 413.40872,124.738105 413.954613,124.426137 C414.497018,124.115902 414.962685,123.729408 415.348124,123.268388 C415.731819,122.807368 416.012614,122.311685 416.18702,121.779606 C416.363171,121.247527 416.425958,120.689451 416.37538,120.105377 C416.326546,119.521303 416.141675,118.949361 415.817278,118.391285 C415.494625,117.833208 415.091746,117.38952 414.613871,117.063687 C414.134252,116.737853 413.619752,116.517743 413.068626,116.399888 C412.519245,116.283766 411.94719,116.278567 411.361184,116.389489 C410.771688,116.496945 410.203122,116.706657 409.660717,117.018625 C409.114824,117.330593 408.649157,117.711887 408.258486,118.164241 C407.869559,118.614862 407.585276,119.107079 407.410869,119.639158 C407.234718,120.171237 407.170187,120.725847 407.215533,121.299522 C407.257391,121.87493 407.440518,122.441672 407.764915,122.999749 L407.764915,122.999749 Z M422,123.745006 L409.324112,131 L407.614925,128.053634 L409.3276,127.0744 C408.464286,127.039737 407.639342,126.762432 406.854511,126.240752 C406.067936,125.717338 405.461001,125.086469 405.033704,124.348145 C404.47909,123.393175 404.149461,122.417408 404.043073,121.422576 C403.936685,120.427744 404.027376,119.469308 404.315148,118.549002 C404.602919,117.626963 405.052889,116.781182 405.670289,116.009928 C406.284201,115.23694 407.044615,114.590472 407.95153,114.073992 C408.841005,113.564443 409.779314,113.235144 410.769944,113.089559 C411.758831,112.94224 412.728533,112.976903 413.673818,113.191815 C414.619103,113.406726 415.498113,113.808819 416.310849,114.399825 C417.125329,114.990831 417.809004,115.762086 418.361874,116.718789 C418.78917,117.457113 419.035084,118.295961 419.094382,119.231866 C419.155425,120.169504 418.982762,121.01875 418.578138,121.779606 L420.292557,120.796906 L422,123.745006 Z" id="Fill-15" fill="#1D1D1B"></path>
                <path d="M441.711425,157.125829 C442.386508,156.916252 443.032088,156.967787 443.644696,157.285588 C444.259039,157.601672 444.668601,158.086104 444.873382,158.735449 C445.085104,159.403691 445.031306,160.041011 444.711986,160.649128 C444.390932,161.255527 443.892863,161.666092 443.21778,161.875669 C442.561786,162.078375 441.926618,162.023404 441.314011,161.705603 C440.699668,161.387801 440.288371,160.89478 440.076648,160.226538 C439.868396,159.577193 439.927401,158.95018 440.246721,158.342063 C440.567775,157.733946 441.055432,157.328534 441.711425,157.125829 L441.711425,157.125829 Z M436.88866,159.467251 L437.909094,162.681338 L424.020434,167 L423,163.784195 L436.88866,159.467251 Z" id="Fill-17" fill="#1D1D1B"></path>
                <path d="M430.259845,177.339349 C430.414412,178.007118 430.67788,178.586098 431.050247,179.072589 C431.424371,179.55908 431.85997,179.943834 432.358802,180.228699 C432.857633,180.511715 433.409159,180.691143 434.013377,180.765134 C434.614083,180.837275 435.223571,180.794731 435.838328,180.6375 C436.451329,180.480269 437.011636,180.22315 437.513981,179.866143 C438.018082,179.509136 438.427335,179.081838 438.748765,178.589798 C439.068439,178.095907 439.287995,177.542824 439.405677,176.930549 C439.525116,176.316423 439.507551,175.67825 439.352984,175.008631 C439.198416,174.339013 438.934949,173.765582 438.566094,173.292039 C438.195483,172.814797 437.759884,172.435593 437.259296,172.150728 C436.760464,171.869562 436.212452,171.695683 435.611746,171.63279 C435.011041,171.569898 434.403309,171.616142 433.790308,171.773373 C433.173794,171.930604 432.615243,172.184024 432.109386,172.529932 C431.603529,172.87769 431.190763,173.295739 430.871089,173.789629 C430.551415,174.283519 430.330103,174.831053 430.210664,175.43408 C430.087713,176.035257 430.105277,176.67158 430.259845,177.339349 L430.259845,177.339349 Z M430.616404,181.976737 C429.789116,181.686323 429.070728,181.155437 428.459484,180.38778 C427.84824,179.618273 427.440743,178.793273 427.235239,177.90908 C426.971771,176.764069 426.929617,175.669001 427.108774,174.616479 C427.289689,173.565806 427.649761,172.611322 428.187234,171.753026 C428.726464,170.896579 429.404454,170.162218 430.21769,169.553642 C431.030926,168.945066 431.949549,168.510369 432.973559,168.2477 C433.976492,167.990582 434.979424,167.933238 435.977088,168.077521 C436.974751,168.219954 437.902156,168.543665 438.755791,169.044954 C439.607669,169.546243 440.343621,170.217712 440.963648,171.064909 C441.581918,171.912106 442.022787,172.907286 442.288011,174.050447 C442.491759,174.93464 442.490002,175.865078 442.282741,176.843609 C442.07548,177.82399 441.666228,178.641591 441.060252,179.300112 L450.185007,176.960145 L451,180.485818 L429.494033,186 L428.680797,182.472477 L430.616404,181.976737 Z" id="Fill-19" fill="#1D1D1B"></path>
                <path d="M444.250424,193.710219 C444.081876,192.603449 443.628788,191.727561 442.894787,191.084389 C442.158973,190.443048 441.178491,190.217663 439.953343,190.4064 L441.102373,197.970551 C442.260464,197.790975 443.117706,197.307222 443.670472,196.521122 C444.221427,195.733189 444.415348,194.798665 444.250424,193.710219 L444.250424,193.710219 Z M437.339935,190.811361 C436.810729,190.937796 436.319582,191.113707 435.870119,191.340925 C435.420657,191.564478 435.041875,191.863159 434.735588,192.233304 C434.429301,192.603449 434.210007,193.054219 434.083143,193.587448 C433.952653,194.118844 433.945404,194.752855 434.05777,195.493145 C434.213632,196.51196 434.518106,197.222931 434.974819,197.61873 C435.431531,198.016361 435.944426,198.280226 436.513503,198.413992 L437.059021,202 C436.397513,201.99267 435.745067,201.853408 435.098058,201.58771 C434.452862,201.320179 433.860224,200.928046 433.320143,200.411309 C432.778251,199.894572 432.314289,199.266058 431.926446,198.525768 C431.540416,197.785478 431.272188,196.926082 431.123576,195.94758 C430.927842,194.6649 430.965901,193.519649 431.228692,192.511829 C431.495107,191.502176 431.933696,190.626288 432.548082,189.885998 C433.162469,189.145709 433.929093,188.544681 434.847954,188.079251 C435.766815,187.613821 436.774482,187.294984 437.870953,187.12457 C438.989173,186.952325 440.058459,186.957822 441.075188,187.146559 C442.09554,187.333464 443.00534,187.685285 443.811836,188.205687 C444.616519,188.726089 445.287088,189.422401 445.827168,190.296456 C446.367249,191.168679 446.727906,192.203985 446.909141,193.398711 C447.057754,194.377213 447.023319,195.320899 446.811274,196.233435 C446.597417,197.14597 446.233135,197.968718 445.718427,198.707176 C445.201908,199.441969 444.563961,200.052158 443.800961,200.539577 C443.037962,201.02333 442.173471,201.340336 441.205677,201.490593 C440.948323,201.530905 440.642036,201.573051 440.285003,201.617028 C439.92797,201.661006 439.496631,201.67933 438.989173,201.668335 L437.339935,190.811361 Z" id="Fill-21" fill="#1D1D1B"></path>
                <path d="M435.166235,212.546344 C435.209385,213.237465 435.380191,213.85966 435.675054,214.409203 C435.96812,214.96061 436.343892,215.422599 436.800571,215.793308 C437.25725,216.16588 437.784049,216.443446 438.379171,216.626006 C438.974292,216.808566 439.596383,216.877492 440.241847,216.834646 C440.887311,216.788075 441.495018,216.63532 442.061372,216.372657 C442.625928,216.108131 443.113173,215.763502 443.519509,215.331319 C443.92225,214.900998 444.236891,214.390575 444.458039,213.803774 C444.679187,213.216973 444.769084,212.579875 444.724136,211.886892 C444.679187,211.193908 444.510179,210.579164 444.215316,210.038935 C443.92225,209.500569 443.546478,209.044168 443.089799,208.673459 C442.63312,208.300887 442.108119,208.02891 441.512997,207.857527 C440.917876,207.686144 440.297583,207.620943 439.652119,207.667515 C439.006655,207.710361 438.400746,207.857527 437.830796,208.110875 C437.264442,208.362361 436.777198,208.703265 436.374457,209.135448 C435.96812,209.565769 435.655277,210.070604 435.432331,210.644364 C435.209385,211.219988 435.121286,211.855223 435.166235,212.546344 L435.166235,212.546344 Z M448,219.960524 L432.952958,221 L432.717427,217.352521 L434.752706,217.212807 C433.967002,216.775035 433.330528,216.117445 432.841485,215.243764 C432.354241,214.370083 432.079155,213.475911 432.019822,212.561247 C431.944309,211.378331 432.084549,210.28297 432.440543,209.2733 C432.798335,208.261767 433.321538,207.380635 434.006557,206.626176 C434.693374,205.875444 435.498855,205.270015 436.419405,204.815477 C437.341754,204.357214 438.341414,204.094551 439.418386,204.020036 C440.471984,203.947385 441.49322,204.072196 442.4749,204.396334 C443.456581,204.720471 444.339374,205.210403 445.114291,205.860541 C445.892803,206.514405 446.522085,207.315434 447.005734,208.267356 C447.489382,209.22114 447.768064,210.288558 447.843578,211.471474 C447.902911,212.384275 447.744691,213.308253 447.372516,214.241546 C447.00034,215.174839 446.451965,215.912531 445.730987,216.456486 L447.766267,216.314908 L448,219.960524 Z" id="Fill-23" fill="#1D1D1B"></path>
                <path d="M449.87345,266.931977 C450.587072,267.064127 451.145482,267.421814 451.546894,268.001514 C451.948307,268.582975 452.082111,269.215535 451.951875,269.902717 C451.818071,270.607519 451.455907,271.159027 450.868953,271.555478 C450.281999,271.951929 449.629035,272.082317 448.913628,271.950167 C448.219631,271.819779 447.671926,271.463854 447.270513,270.884154 C446.869101,270.304454 446.73708,269.661322 446.870885,268.952996 C447.002905,268.269338 447.363284,267.726641 447.950238,267.331952 C448.537192,266.935501 449.177668,266.80335 449.87345,266.931977 L449.87345,266.931977 Z M444.353582,266.743442 L443.704186,270.138826 L429,267.398908 L429.647612,264 L444.353582,266.743442 Z" id="Fill-25" fill="#1D1D1B"></path>
                <path d="M429.489442,278.597023 C429.329972,279.228933 429.303971,279.836268 429.413174,280.420784 C429.52411,281.003545 429.732115,281.531891 430.040656,282.002313 C430.35093,282.476245 430.753073,282.883475 431.243618,283.231025 C431.735897,283.575065 432.283643,283.827829 432.888591,283.984051 C433.493539,284.142028 434.091554,284.191176 434.687835,284.127986 C435.284116,284.06655 435.830129,283.903307 436.325875,283.641766 C436.82162,283.380226 437.256697,283.020389 437.631106,282.56401 C438.005515,282.105876 438.272455,281.559976 438.433659,280.928067 C438.594863,280.296157 438.61913,279.694088 438.506461,279.121859 C438.395525,278.547875 438.184053,278.026549 437.875512,277.552617 C437.565238,277.082196 437.163095,276.676721 436.669083,276.341458 C436.173338,276.004439 435.623858,275.760452 435.01891,275.602475 C434.415695,275.444497 433.81768,275.391838 433.223133,275.442742 C432.630318,275.493646 432.086038,275.651623 431.590293,275.914919 C431.094548,276.176459 430.659471,276.531031 430.288528,276.976878 C429.917586,277.42448 429.650646,277.965114 429.489442,278.597023 L429.489442,278.597023 Z M427.750867,282.646509 C427.159786,282.012844 426.769776,281.231734 426.575638,280.301423 C426.383234,279.367602 426.393634,278.486439 426.606839,277.649159 C426.880712,276.567892 427.329656,275.63056 427.950205,274.833652 C428.570753,274.038499 429.305704,273.4101 430.155058,272.944945 C431.000945,272.4833 431.914434,272.186654 432.892058,272.060272 C433.867948,271.935645 434.861172,272.004102 435.868263,272.267398 C436.854554,272.523672 437.752442,272.9467 438.556729,273.538238 C439.362748,274.12802 440.026631,274.835407 440.548377,275.656889 C441.070123,276.478371 441.413331,277.389374 441.578002,278.388142 C441.740939,279.38691 441.685471,280.427805 441.411598,281.509072 C441.198393,282.346352 440.785849,283.123952 440.172234,283.845382 C439.560353,284.566811 438.842736,285.060052 438.024582,285.325103 L447,287.664923 L446.150646,291 L425,285.484835 L425.847621,282.148003 L427.750867,282.646509 Z" id="Fill-27" fill="#1D1D1B"></path>
                <path d="M433.022269,300.280641 C433.387646,299.242421 433.396645,298.272575 433.051067,297.372904 C432.701889,296.471433 431.949536,295.818271 430.788608,295.408021 L428.290365,302.493833 C429.390096,302.882491 430.363835,302.866297 431.211582,302.441652 C432.059329,302.018806 432.662291,301.29727 433.022269,300.280641 L433.022269,300.280641 Z M428.313763,294.537139 C427.789996,294.396791 427.278828,294.319419 426.780259,294.306824 C426.28169,294.290629 425.81192,294.3716 425.372747,294.547935 C424.931775,294.724271 424.5322,295.012166 424.174022,295.413419 C423.815844,295.814673 423.515263,296.359874 423.270479,297.052621 C422.9339,298.009871 422.870904,298.767394 423.08689,299.32519 C423.304676,299.879388 423.630456,300.350816 424.067829,300.734076 L422.883503,304.093449 C422.309339,303.776764 421.80177,303.352119 421.358998,302.817715 C420.916226,302.285109 420.579647,301.667935 420.345661,300.96799 C420.109876,300.266247 419.996483,299.505125 420,298.682825 C420.003683,297.858726 420.165673,296.989644 420.489652,296.073778 C420.912626,294.871817 421.474191,293.896573 422.174347,293.146247 C422.870904,292.397721 423.662854,291.847122 424.542999,291.490852 C425.423144,291.138181 426.373485,290.974441 427.394021,291.00323 C428.414557,291.028421 429.445892,291.226349 430.484427,291.591615 C431.542761,291.965879 432.475103,292.469695 433.281453,293.110261 C434.087802,293.747228 434.721363,294.47956 435.185734,295.307258 C435.650104,296.134956 435.914688,297.052621 435.984884,298.062052 C436.053279,299.069684 435.88949,300.134895 435.495314,301.254086 C435.171334,302.171751 434.706963,302.974257 434.096802,303.663406 C433.48664,304.354353 432.786484,304.895956 431.994533,305.291811 C431.200783,305.689466 430.360235,305.921581 429.465691,305.984558 C428.572947,306.047535 427.669404,305.917982 426.753261,305.594101 C426.508476,305.507732 426.220494,305.401571 425.887515,305.270219 C425.556336,305.142465 425.16936,304.955334 424.730187,304.708824 L428.313763,294.537139 Z" id="Fill-29" fill="#1D1D1B"></path>
                <path d="M417.742542,312.875543 C417.470358,313.472954 417.336935,314.070366 417.34583,314.666015 C417.354725,315.261664 417.475695,315.820306 417.705183,316.341939 C417.934671,316.861811 418.269119,317.335863 418.706748,317.764096 C419.142598,318.194091 419.653165,318.537735 420.236669,318.800314 C420.818395,319.062893 421.417911,319.214449 422.031658,319.256743 C422.645406,319.3008 423.223574,319.235596 423.773278,319.064655 C424.319424,318.891952 424.821096,318.61175 425.280073,318.225812 C425.73727,317.838111 426.10374,317.346436 426.377702,316.749025 C426.649886,316.151614 426.779751,315.559489 426.767299,314.974413 C426.753067,314.387576 426.632096,313.834221 426.400829,313.31435 C426.171341,312.792716 425.836893,312.323951 425.393927,311.902767 C424.95452,311.485107 424.442174,311.144988 423.858669,310.882409 C423.273385,310.621592 422.677428,310.46475 422.070796,310.411881 C421.460606,310.359013 420.882438,310.417168 420.334513,310.589871 C419.786588,310.762574 419.286695,311.037489 418.833056,311.414616 C418.379416,311.791743 418.016504,312.278131 417.742542,312.875543 L417.742542,312.875543 Z M425.591394,325 L412,318.899001 L413.440972,315.749815 L415.276878,316.576322 C414.791217,315.84674 414.531486,315.004372 414.499464,314.049219 C414.467443,313.094065 414.632888,312.221739 414.99402,311.432239 C415.460113,310.411881 416.075639,309.562465 416.844158,308.883988 C417.610897,308.207275 418.463028,307.713837 419.402329,307.403677 C420.33985,307.093516 421.31473,306.963108 422.32519,307.008927 C423.33565,307.054746 424.324761,307.29794 425.297863,307.733222 C426.249616,308.161455 427.082178,308.73772 427.793769,309.462015 C428.50536,310.189835 429.051507,311.004006 429.435766,311.906291 C429.818246,312.810339 430.008597,313.770779 429.999702,314.789374 C429.990807,315.806207 429.752424,316.824803 429.284553,317.846923 C428.92342,318.636422 428.371937,319.334284 427.626545,319.940506 C426.879374,320.546729 426.069939,320.907996 425.194682,321.026068 L427.032366,321.850813 L425.591394,325 Z" id="Fill-31" fill="#1D1D1B"></path>
                <path d="M409.944798,361.111268 C410.526288,361.566958 410.870544,362.162717 410.970432,362.902279 C411.072104,363.639974 410.91157,364.302966 410.48883,364.894989 C410.053605,365.505688 409.481033,365.864264 408.778251,365.970716 C408.073685,366.075301 407.429765,365.899748 406.848275,365.444058 C406.281055,365.001441 405.949285,364.411285 405.847613,363.673591 C405.745942,362.935896 405.913611,362.261699 406.348836,361.652867 C406.773359,361.060844 407.337012,360.711606 408.041578,360.605154 C408.74436,360.498701 409.381145,360.668651 409.944798,361.111268 L409.944798,361.111268 Z M405.075266,358.386466 L402.979405,361.31857 L391,351.933971 L393.097645,349 L405.075266,358.386466 Z" id="Fill-33" fill="#1D1D1B"></path>
                <path d="M386.095014,361.920264 C385.673026,362.429153 385.382361,362.979548 385.226523,363.567838 C385.068934,364.156128 385.028661,364.739005 385.102203,365.316468 C385.175744,365.893931 385.359598,366.456957 385.653765,367.000133 C385.947931,367.545114 386.3349,368.028739 386.814671,368.451009 C387.294443,368.873279 387.816238,369.190883 388.38531,369.405627 C388.952631,369.62398 389.518201,369.721427 390.083771,369.706991 C390.649341,369.694359 391.200903,369.56082 391.741959,369.309985 C392.281264,369.059149 392.762787,368.678385 393.186527,368.169496 C393.610266,367.658802 393.895678,367.112017 394.046263,366.532749 C394.195097,365.951677 394.231868,365.37241 394.160077,364.796751 C394.084785,364.217484 393.89918,363.661676 393.598009,363.123913 C393.295088,362.587955 392.906368,362.107939 392.426597,361.68567 C391.948576,361.265204 391.428532,360.940382 390.868215,360.718419 C390.306147,360.494652 389.742328,360.388183 389.178509,360.404424 C388.611188,360.41886 388.063128,360.546985 387.529076,360.790602 C386.998525,361.032415 386.518754,361.40957 386.095014,361.920264 L386.095014,361.920264 Z M382.741867,364.861716 C382.48272,364.006349 382.472215,363.105868 382.703345,362.158467 C382.937978,361.209263 383.335453,360.397206 383.89577,359.7241 C384.618929,358.850688 385.436642,358.190214 386.350659,357.740876 C387.261174,357.291538 388.203207,357.046116 389.178509,357.006415 C390.150309,356.966715 391.108101,357.111081 392.048383,357.444926 C392.990416,357.773358 393.862409,358.29127 394.660861,358.996858 C395.441803,359.686204 396.068657,360.487434 396.541425,361.402352 C397.012441,362.315465 397.303106,363.271888 397.41692,364.269816 C397.528984,365.26594 397.441434,366.262063 397.15077,367.261796 C396.861856,368.261529 396.35582,369.194492 395.632661,370.067905 C395.072344,370.742815 394.356188,371.273359 393.484195,371.657733 C392.612202,372.042106 391.745461,372.170231 390.885725,372.038497 L398,378.309384 L395.767487,381 L379,366.222363 L381.234264,363.531746 L382.741867,364.861716 Z" id="Fill-35" fill="#1D1D1B"></path>
                <path d="M380.831527,382.866653 C381.623793,382.077494 382.060718,381.192902 382.144114,380.214713 C382.229323,379.232852 381.83591,378.295038 380.965686,377.399435 L375.572112,382.77856 C376.397012,383.626447 377.285365,384.04672 378.237172,384.037544 C379.192605,384.030203 380.05739,383.639294 380.831527,382.866653 L380.831527,382.866653 Z M379.111022,375.494443 C378.697666,375.132898 378.269806,374.833752 377.825629,374.597004 C377.381452,374.358421 376.920959,374.224448 376.444149,374.187743 C375.967339,374.154708 375.477838,374.240965 374.977459,374.446513 C374.475268,374.652062 373.960385,375.019112 373.434625,375.543995 C372.705813,376.268919 372.316025,376.938787 372.263449,377.54442 C372.214499,378.151889 372.301521,378.728158 372.528142,379.275063 L369.97186,381.824229 C369.591137,381.277324 369.317379,380.658844 369.154212,379.972459 C368.991046,379.286075 368.956599,378.568491 369.054499,377.823378 C369.154212,377.07643 369.386272,376.327647 369.754304,375.573359 C370.120523,374.820905 370.653535,374.097815 371.351527,373.402255 C372.263449,372.490134 373.204379,371.847796 374.167064,371.473404 C375.131561,371.099013 376.092433,370.946687 377.044241,371.016426 C377.999674,371.086166 378.929725,371.361454 379.841647,371.844125 C380.753569,372.326797 381.598411,372.9673 382.377987,373.76747 C383.170253,374.582322 383.7921,375.465079 384.23809,376.410234 C384.685892,377.355389 384.936082,378.311556 384.990471,379.276898 C385.043047,380.242241 384.878067,381.203914 384.495531,382.158245 C384.111182,383.112576 383.492961,384.015521 382.639054,384.865243 C381.941062,385.560803 381.166925,386.087521 380.309392,386.44723 C379.451859,386.80694 378.57801,386.990465 377.686031,386.999642 C376.792238,387.008818 375.929266,386.84181 375.093489,386.500453 C374.257712,386.159096 373.496266,385.636049 372.809152,384.929477 C372.626042,384.740446 372.412112,384.512874 372.169175,384.246763 C371.924425,383.980651 371.656106,383.635623 371.367844,383.213515 L379.111022,375.494443 Z" id="Fill-37" fill="#1D1D1B"></path>
                <path d="M361.501275,387.131048 C361.013581,387.535994 360.646958,388.00245 360.401406,388.523582 C360.157559,389.048131 360.022847,389.58635 360.000679,390.136529 C359.976806,390.686708 360.063772,391.240304 360.259873,391.797317 C360.455973,392.35604 360.749272,392.870337 361.139768,393.345336 C361.531969,393.818627 361.982148,394.203069 362.493714,394.498662 C363.003576,394.792546 363.53049,394.980496 364.076161,395.06251 C364.620127,395.139398 365.170914,395.108643 365.730227,394.965118 C366.28954,394.819884 366.811338,394.544795 367.299032,394.13985 C367.790136,393.733196 368.151643,393.273574 368.388669,392.755859 C368.625695,392.239853 368.755292,391.70676 368.779165,391.153164 C368.799628,390.602985 368.710957,390.052806 368.50633,389.502627 C368.303408,388.950739 368.004994,388.439859 367.614498,387.966568 C367.222297,387.493278 366.777234,387.10371 366.274193,386.802991 C365.771153,386.500564 365.247649,386.310906 364.703683,386.2306 C364.158012,386.150294 363.610635,386.177633 363.059848,386.316032 C362.510767,386.454431 361.990674,386.726103 361.501275,387.131048 L361.501275,387.131048 Z M363.129763,401 L354,389.967374 L356.574886,387.828169 L357.809468,389.319804 C357.700333,388.479157 357.833341,387.636803 358.20849,386.791031 C358.585344,385.945259 359.098616,385.253264 359.74319,384.716754 C360.578749,384.024758 361.468876,383.541216 362.416979,383.27467 C363.365083,383.006415 364.308071,382.934652 365.249354,383.059382 C366.188932,383.182404 367.084174,383.477997 367.93508,383.944453 C368.784281,384.4092 369.53799,385.036268 370.19109,385.825655 C370.830548,386.599664 371.302895,387.450562 371.60813,388.383474 C371.913365,389.314678 372.041257,390.254424 371.988395,391.204423 C371.935533,392.152713 371.691686,393.070247 371.253444,393.9519 C370.813496,394.836971 370.177448,395.626358 369.343594,396.318353 C368.697315,396.854863 367.924849,397.230762 367.024491,397.44434 C366.125839,397.659628 365.274933,397.633998 364.470068,397.369161 L365.704649,398.860795 L363.129763,401 Z" id="Fill-39" fill="#1D1D1B"></path>
                <path d="M325.738063,431.271077 C326.050598,431.933879 326.083116,432.603866 325.837424,433.277446 C325.591732,433.94923 325.145511,434.4378 324.496956,434.739563 C323.828528,435.050308 323.156487,435.08264 322.479027,434.838355 C321.801566,434.59407 321.308375,434.139628 320.99584,433.476826 C320.692338,432.831985 320.663433,432.172775 320.909125,431.499196 C321.154817,430.825616 321.611877,430.33525 322.280305,430.024505 C322.927054,429.722741 323.591868,429.694002 324.267522,429.938287 C324.944983,430.182572 325.434561,430.628032 325.738063,431.271077 L325.738063,431.271077 Z M322.630778,426.649421 L319.420519,428.142074 L313,414.492653 L316.212066,413 L322.630778,426.649421 Z" id="Fill-41" fill="#1D1D1B"></path>
                <path d="M304.378474,420.555657 C303.75963,420.798342 303.244224,421.139898 302.828688,421.580326 C302.413153,422.020754 302.104623,422.513314 301.89953,423.058007 C301.698005,423.599104 301.599917,424.181547 301.610617,424.801741 C301.623101,425.423733 301.74259,426.036737 301.976217,426.638955 C302.209844,427.24297 302.532642,427.775079 302.941043,428.238876 C303.351228,428.702674 303.813132,429.065802 304.326755,429.328261 C304.840378,429.587125 305.398587,429.738129 305.999597,429.781273 C306.60239,429.820821 307.212318,429.72195 307.831162,429.479265 C308.448223,429.234783 308.960062,428.896822 309.364897,428.458191 C309.769732,428.021359 310.074695,427.530596 310.279788,426.987702 C310.481314,426.444807 310.574051,425.864161 310.55265,425.247562 C310.533033,424.630963 310.40641,424.021555 310.172783,423.419337 C309.939156,422.815322 309.621709,422.279618 309.224007,421.810427 C308.824523,421.343034 308.366186,420.978108 307.852563,420.717447 C307.337156,420.454988 306.786082,420.302187 306.193989,420.259043 C305.603679,420.214101 304.997319,420.311175 304.378474,420.555657 L304.378474,420.555657 Z M299.994845,421.513813 C300.162486,420.63835 300.570888,419.840187 301.221833,419.121121 C301.874562,418.402055 302.609329,417.88253 303.427915,417.560748 C304.485479,417.145487 305.526992,416.960328 306.556022,417.007067 C307.585051,417.055604 308.544527,417.296491 309.438017,417.733324 C310.329724,418.170156 311.121559,418.761588 311.813523,419.509416 C312.503704,420.255447 313.042295,421.13091 313.431079,422.137602 C313.812729,423.122723 314.001771,424.129415 314,425.163072 C313.996421,426.193134 313.812729,427.174659 313.448913,428.104052 C313.085097,429.033444 312.541156,429.867561 311.815307,430.604603 C311.089457,431.341646 310.197751,431.916898 309.14197,432.332159 C308.323384,432.652143 307.433461,432.772587 306.470418,432.688097 C305.507375,432.601809 304.670954,432.294408 303.959372,431.762299 L307.42276,440.718265 L304.162681,442 L296,420.895416 L299.260079,419.615479 L299.994845,421.513813 Z" id="Fill-43" fill="#1D1D1B"></path>
                <path d="M289.031409,436.099282 C290.085313,435.787902 290.877088,435.226695 291.403143,434.413848 C291.930993,433.601002 292.022558,432.60169 291.67784,431.414102 L284.481845,433.53945 C284.808609,434.665487 285.390321,435.449367 286.226982,435.892903 C287.061846,436.336438 287.997254,436.405231 289.031409,436.099282 L289.031409,436.099282 Z M290.939927,428.881425 C290.747819,428.370906 290.51262,427.909268 290.234332,427.492888 C289.957839,427.078318 289.616712,426.741593 289.218131,426.486334 C288.817755,426.231075 288.350949,426.073575 287.817713,426.017454 C287.284477,425.957712 286.668652,426.033747 285.964852,426.241937 C284.991741,426.529782 284.345394,426.924438 284.01863,427.427715 C283.693661,427.930992 283.503348,428.474096 283.449485,429.057028 L280.036415,430.065392 C279.957417,429.410046 280.007688,428.743838 280.180048,428.068578 C280.355998,427.395129 280.657626,426.757886 281.088524,426.15504 C281.519422,425.552194 282.070612,425.0109 282.738504,424.529348 C283.406396,424.049606 284.205352,423.671243 285.137169,423.39607 C286.358046,423.035811 287.47479,422.921759 288.4874,423.052104 C289.503601,423.180638 290.410282,423.50288 291.209239,424.013399 C292.009991,424.522106 292.695836,425.202797 293.266776,426.053661 C293.841307,426.902714 294.281182,427.858578 294.589992,428.923063 C294.904188,430.007461 295.038844,431.066515 294.990368,432.098413 C294.943687,433.130312 294.719261,434.080744 294.318885,434.94428 C293.920305,435.809627 293.333206,436.566352 292.553999,437.214457 C291.776588,437.864372 290.82143,438.354976 289.683142,438.691701 C288.753121,438.966874 287.832076,439.057391 286.916418,438.965063 C286.002556,438.872736 285.156918,438.621097 284.372325,438.206528 C283.591323,437.793768 282.914454,437.239802 282.341719,436.548249 C281.770779,435.856696 281.348858,435.042039 281.075956,434.104279 C281.002344,433.854451 280.921551,433.555743 280.833576,433.208156 C280.743806,432.86238 280.670194,432.436948 280.614536,431.931861 L290.939927,428.881425 Z" id="Fill-45" fill="#1D1D1B"></path>
                <path d="M270.250115,431.294322 C269.605686,431.425969 269.040925,431.673032 268.561143,432.037314 C268.079591,432.399793 267.695412,432.832604 267.403294,433.333943 C267.112947,433.833479 266.918202,434.39433 266.8226,435.009282 C266.728768,435.622431 266.744701,436.250007 266.86863,436.886599 C266.994329,437.523192 267.217401,438.105683 267.539616,438.635877 C267.86006,439.16607 268.249551,439.604291 268.709858,439.954146 C269.168394,440.300395 269.688895,440.547458 270.26959,440.693532 C270.850285,440.839605 271.464617,440.846819 272.109047,440.715172 C272.755247,440.581722 273.312926,440.336463 273.783856,439.97218 C274.254785,439.611504 274.635423,439.180497 274.927541,438.680961 C275.217888,438.177818 275.405552,437.622378 275.490532,437.009229 C275.575511,436.39608 275.554267,435.770308 275.430338,435.133715 C275.302868,434.497123 275.085108,433.912828 274.775286,433.380831 C274.463693,432.847031 274.077744,432.40881 273.619207,432.060758 C273.162441,431.712706 272.647252,431.465643 272.075409,431.317766 C271.505337,431.169889 270.896315,431.162675 270.250115,431.294322 L270.250115,431.294322 Z M264.926489,445 L262,430.169014 L265.406271,429.471106 L265.801072,431.476463 C266.112665,430.639696 266.649099,429.921951 267.408606,429.325032 C268.168112,428.729918 268.975419,428.342191 269.830528,428.169067 C270.933494,427.943644 271.983348,427.943644 272.981859,428.169067 C273.980371,428.396292 274.87797,428.800249 275.676425,429.388151 C276.476651,429.976052 277.147636,430.697404 277.698234,431.557615 C278.247062,432.416024 278.624159,433.375421 278.834838,434.435808 C279.040206,435.476357 279.054369,436.506086 278.875558,437.524995 C278.696746,438.543904 278.349746,439.479858 277.836326,440.336463 C277.322907,441.191264 276.648381,441.921633 275.814517,442.522158 C274.978883,443.124486 274.010468,443.535657 272.905732,443.762882 C272.052394,443.93781 271.161877,443.898136 270.234182,443.647466 C269.306486,443.394993 268.539898,442.945952 267.936188,442.296735 L268.33099,444.302092 L264.926489,445 Z" id="Fill-47" fill="#1D1D1B"></path>
                <path d="M218.10035,447.073504 L214.252283,446.883352 L215.151933,432 L219,432.190151 L218.10035,447.073504 Z M218.68964,452.5488 C218.646426,453.272086 218.332137,453.870975 217.74874,454.345465 C217.165342,454.816401 216.485694,455.033209 215.707831,454.99589 C214.910324,454.956793 214.248355,454.672454 213.723886,454.144651 C213.201382,453.618624 212.961737,452.991302 213.004952,452.268016 C213.048166,451.564277 213.362455,450.976052 213.945852,450.505116 C214.52925,450.030626 215.21872,449.813817 216.01819,449.852914 C216.796054,449.892011 217.446237,450.174572 217.970706,450.702376 C218.491246,451.230179 218.730891,451.846839 218.68964,452.5488 L218.68964,452.5488 Z" id="Fill-49" fill="#1D1D1B"></path>
                <path d="M203.497131,433.696171 C202.821373,433.616761 202.187736,433.672709 201.601714,433.865819 C201.01386,434.057125 200.495596,434.344083 200.050585,434.7285 C199.607405,435.112916 199.23931,435.582156 198.951793,436.138026 C198.660613,436.69209 198.479312,437.291274 198.400565,437.937382 C198.321818,438.581685 198.354782,439.207941 198.503119,439.814344 C198.651456,440.420747 198.895022,440.960374 199.235647,441.438638 C199.574442,441.915097 200.008465,442.313952 200.534054,442.63881 C201.057812,442.963669 201.658485,443.163999 202.334242,443.245213 C203.011831,443.324623 203.638143,443.268675 204.21684,443.07376 C204.791875,442.88065 205.302813,442.591886 205.747824,442.209275 C206.194666,441.824859 206.555437,441.353814 206.831966,440.799749 C207.112158,440.242075 207.287965,439.641086 207.366712,438.996783 C207.445458,438.350675 207.417989,437.726224 207.278808,437.119821 C207.143291,436.515223 206.905219,435.975596 206.564593,435.499137 C206.223968,435.020873 205.79727,434.623823 205.2845,434.300769 C204.768067,433.977715 204.172888,433.777385 203.497131,433.696171 L203.497131,433.696171 Z M199.067166,432.454488 C199.640369,431.757847 200.393042,431.247097 201.327016,430.922238 C202.264652,430.595574 203.180312,430.485483 204.073997,430.59016 C205.231392,430.727323 206.264257,431.06301 207.172592,431.595417 C208.082758,432.12963 208.835431,432.801004 209.432442,433.613151 C210.031283,434.425298 210.465306,435.325879 210.730848,436.318503 C210.998221,437.309322 211.06598,438.341651 210.935956,439.419099 C210.805932,440.471281 210.492776,441.454881 209.994657,442.36629 C209.496538,443.279504 208.861069,444.059165 208.082758,444.708883 C207.306278,445.3586 206.414425,445.836864 205.401704,446.141871 C204.390815,446.446877 203.306673,446.531701 202.15111,446.396343 C201.255594,446.291667 200.394873,445.970417 199.563454,445.436205 C198.730203,444.901993 198.120373,444.228814 197.733964,443.420276 L196.567413,453 L193,452.577684 L195.746981,430 L199.314394,430.422316 L199.067166,432.454488 Z" id="Fill-51" fill="#1D1D1B"></path>
                <path d="M183.354936,440.212836 C184.452417,440.438473 185.431004,440.319337 186.288868,439.853623 C187.150391,439.389714 187.708277,438.552151 187.966185,437.344544 L180.488682,435.804801 C180.245407,436.949229 180.393567,437.914954 180.934991,438.700169 C181.474586,439.487189 182.281234,439.99081 183.354936,440.212836 L183.354936,440.212836 Z M188.509438,434.766873 C188.577116,434.228955 188.586262,433.709089 188.535046,433.212688 C188.485659,432.716288 188.339328,432.261405 188.101541,431.846233 C187.865582,431.432867 187.519876,431.073654 187.06808,430.770398 C186.616283,430.467143 186.025473,430.241506 185.295648,430.089879 C184.285966,429.880488 183.514071,429.922005 182.981793,430.21082 C182.449514,430.499635 182.021497,430.885924 181.694082,431.373299 L178.14739,430.642237 C178.390664,430.0267 178.749175,429.467122 179.228408,428.956281 C179.705812,428.44544 180.28199,428.028463 180.955111,427.701742 C181.631891,427.376825 182.383666,427.162019 183.212264,427.055519 C184.040862,426.949018 184.938967,426.995951 185.908408,427.194511 C187.175999,427.458054 188.233239,427.885861 189.083786,428.479736 C189.932505,429.075417 190.594652,429.788428 191.070227,430.615161 C191.545802,431.443698 191.838463,432.3661 191.946382,433.385977 C192.05613,434.402244 191.997598,435.452808 191.768956,436.534058 C191.534827,437.636969 191.152538,438.631575 190.616601,439.51607 C190.082494,440.402371 189.427664,441.131628 188.655769,441.702037 C187.887532,442.274251 186.996743,442.658736 185.98889,442.862712 C184.984695,443.064882 183.889044,443.043221 182.707422,442.801338 C181.73981,442.600973 180.869142,442.243565 180.09176,441.730919 C179.314377,441.216467 178.672351,440.591905 178.16751,439.857233 C177.662669,439.12256 177.315133,438.313879 177.13222,437.436604 C176.947477,436.557524 176.956623,435.642342 177.157828,434.685644 C177.212702,434.432931 177.282209,434.13148 177.366349,433.783097 C177.450489,433.43652 177.589503,433.028569 177.776075,432.55744 L188.509438,434.766873 Z" id="Fill-53" fill="#1D1D1B"></path>
                <path d="M169.344058,427.070167 C168.698061,426.87445 168.068443,426.819059 167.45884,426.911378 C166.851058,427.003697 166.294228,427.203106 165.793808,427.513299 C165.289749,427.821645 164.84938,428.231542 164.47088,428.739297 C164.090562,429.250745 163.808507,429.821277 163.619257,430.458279 C163.430008,431.095281 163.3554,431.730437 163.393614,432.367439 C163.433647,433.006287 163.577404,433.591591 163.828524,434.132581 C164.077824,434.671724 164.432667,435.149938 164.891233,435.569066 C165.349799,435.984503 165.901171,436.292848 166.548987,436.492258 C167.196803,436.687974 167.820962,436.739673 168.419646,436.645508 C169.01651,436.551342 169.567882,436.34824 170.070121,436.038048 C170.57236,435.727855 171.00727,435.319805 171.376671,434.80651 C171.744252,434.295062 172.024487,433.720837 172.211917,433.083835 C172.401166,432.446833 172.483053,431.811678 172.452118,431.180215 C172.423003,430.545059 172.284705,429.957909 172.035405,429.418766 C171.784286,428.879622 171.434902,428.405102 170.987254,427.989665 C170.539606,427.574229 169.991874,427.26773 169.344058,427.070167 L169.344058,427.070167 Z M158,436.828299 L162.401873,422 L165.819284,423.043206 L165.224239,425.048378 C165.90481,424.446457 166.730957,424.062409 167.704501,423.896235 C168.676225,423.730061 169.591538,423.779913 170.44862,424.040253 C171.556822,424.379987 172.508529,424.896974 173.307381,425.591214 C174.104413,426.285454 174.724933,427.096016 175.168942,428.017361 C175.612951,428.940553 175.882267,429.924675 175.971433,430.967881 C176.058779,432.01478 175.945957,433.067218 175.631148,434.127042 C175.321797,435.168401 174.845034,436.104517 174.199038,436.937236 C173.553041,437.768108 172.794223,438.443884 171.920764,438.964564 C171.049124,439.485244 170.090138,439.810207 169.047445,439.944993 C168.006572,440.076087 166.931125,439.972689 165.821104,439.636647 C164.965841,439.372615 164.174268,438.899941 163.455484,438.216779 C162.73306,437.533618 162.254477,436.750751 162.014275,435.870027 L161.419231,437.875198 L158,436.828299 Z" id="Fill-55" fill="#1D1D1B"></path>
                <path d="M115.06169,416.630732 L112.021756,414.80122 L119.961881,402 L123,403.831301 L115.06169,416.630732 Z M112.889272,421.734767 C112.504516,422.358911 111.958235,422.754143 111.25406,422.922251 C110.551699,423.08857 109.892896,422.988421 109.279464,422.618226 C108.647884,422.23909 108.246794,421.700788 108.076195,421.006896 C107.909226,420.314794 108.016304,419.654882 108.40106,419.034314 C108.776741,418.429842 109.315762,418.043552 110.019938,417.875444 C110.722298,417.709125 111.391991,417.816428 112.021756,418.195564 C112.635188,418.565759 113.027203,419.096907 113.197802,419.790798 C113.366587,420.482901 113.264953,421.133871 112.889272,421.734767 L112.889272,421.734767 Z" id="Fill-57" fill="#1D1D1B"></path>
                <path d="M108.81294,397.668999 C108.270188,397.294612 107.704302,397.054934 107.111724,396.953464 C106.519146,396.850245 105.942583,396.862491 105.382036,396.988453 C104.821489,397.114416 104.287635,397.347096 103.782252,397.691742 C103.275091,398.03289 102.83733,398.461512 102.468971,398.975857 C102.100611,399.491952 101.835464,400.041288 101.678866,400.623863 C101.52049,401.209937 101.477781,401.782015 101.545403,402.343597 C101.613024,402.903429 101.796314,403.442267 102.095273,403.956613 C102.392452,404.470959 102.810638,404.915325 103.353389,405.287964 C103.892582,405.664101 104.456688,405.90028 105.040369,405.996501 C105.62405,406.090973 106.195274,406.078726 106.757601,405.951015 C107.316368,405.825052 107.844884,405.588873 108.343148,405.240728 C108.841412,404.892582 109.275614,404.460462 109.643973,403.946116 C110.012333,403.430021 110.27926,402.884185 110.446534,402.305108 C110.613809,401.727782 110.661855,401.157453 110.592454,400.597621 C110.524833,400.036039 110.345102,399.502449 110.056821,398.993352 C109.768539,398.486004 109.353912,398.043387 108.81294,397.668999 L108.81294,397.668999 Z M105.604475,394.60042 C106.417713,394.26627 107.302132,394.171798 108.255952,394.317005 C109.207992,394.463961 110.042584,394.785864 110.759729,395.280966 C111.683297,395.921274 112.409339,396.675297 112.937854,397.541288 C113.46637,398.409027 113.79736,399.322253 113.929044,400.287964 C114.060728,401.251924 114.009122,402.219384 113.774226,403.183345 C113.537551,404.150805 113.112247,405.064031 112.496535,405.923023 C111.895059,406.762771 111.167238,407.460812 110.31485,408.011896 C109.462463,408.564731 108.553131,408.940868 107.585075,409.145556 C106.617019,409.346746 105.627609,409.350245 104.620404,409.152554 C103.611419,408.954864 102.645143,408.536739 101.719795,407.896431 C101.00443,407.39958 100.415411,406.736529 99.9545168,405.902029 C99.4936226,405.069279 99.2854194,404.219034 99.3334663,403.353044 L93.8543412,411 L91,409.023093 L103.912157,391 L106.766498,392.976907 L105.604475,394.60042 Z" id="Fill-59" fill="#1D1D1B"></path>
                <path d="M87.4816234,394.139069 C88.346478,394.851811 89.2760119,395.201867 90.2665291,395.196515 C91.2570463,395.189236 92.1588605,394.712872 92.9738196,393.769165 L87.065828,388.917105 C86.2952204,389.813897 85.960736,390.732342 86.0586789,391.677853 C86.1584698,392.62156 86.6334007,393.442567 87.4816234,394.139069 L87.4816234,394.139069 Z M94.7072248,391.755443 C95.0306213,391.313362 95.2893384,390.86226 95.4833763,390.40033 C95.6811102,389.936597 95.7716612,389.46745 95.7605733,388.991086 C95.7513334,388.51833 95.6182789,388.040161 95.3632576,387.561993 C95.1082364,387.083824 94.6924409,386.60746 94.1158712,386.1329 C93.3175439,385.479703 92.6116156,385.154909 91.9980863,385.160322 C91.384557,385.165736 90.8172271,385.304675 90.2905529,385.58075 L87.4890154,383.280127 C88.0027538,382.854286 88.5959553,382.525883 89.26862,382.300332 C89.9394367,382.07478 90.6564529,381.977342 91.4141246,382.004408 C92.1717964,382.033279 92.944252,382.195676 93.7351874,382.489795 C94.5242748,382.783914 95.3004263,383.245843 96.06549,383.873778 C97.0670951,384.696589 97.7988951,385.566315 98.266434,386.488368 C98.7339729,387.408618 98.9779063,388.345107 98.9982341,389.296031 C99.0204098,390.246956 98.8337639,391.196075 98.4364482,392.145195 C98.0409805,393.092511 97.4773466,393.989303 96.7510905,394.833767 C96.0063546,395.694471 95.1840036,396.390973 94.2784934,396.92147 C93.3729833,397.450162 92.4397535,397.785783 91.475108,397.930135 C90.5123104,398.072684 89.5328811,397.996899 88.5386679,397.704584 C87.5463027,397.410465 86.5835052,396.881773 85.6502754,396.114899 C84.8852117,395.486964 84.2846182,394.767004 83.8392551,393.95141 C83.3994359,393.134012 83.1314788,392.285939 83.0372318,391.401778 C82.9429848,390.519422 83.0279919,389.647891 83.2885571,388.787187 C83.5528182,387.928288 84.0037253,387.125325 84.6468223,386.378299 C84.8186844,386.181619 85.0256582,385.94885 85.2695915,385.681797 C85.5153728,385.414744 85.8332254,385.118821 86.2286931,384.794027 L94.7072248,391.755443 Z" id="Fill-61" fill="#1D1D1B"></path>
                <path d="M81.6048492,375.192237 C81.1571421,374.744531 80.6617703,374.424498 80.1204362,374.230435 C79.5808044,374.032968 79.0343634,373.951257 78.4845178,373.980196 C77.9363745,374.009135 77.3950404,374.147022 76.8605155,374.392154 C76.3259907,374.638988 75.8425351,374.977747 75.4084464,375.411834 C74.9743578,375.845922 74.6355984,376.329377 74.3921683,376.862198 C74.1453335,377.398424 74.0091489,377.939757 73.9802096,378.489601 C73.9512704,379.037743 74.0346835,379.582481 74.230449,380.123814 C74.4245121,380.666849 74.7479507,381.160517 75.1939555,381.609926 C75.643365,382.055929 76.1336298,382.37426 76.669857,382.561514 C77.2026795,382.748767 77.7440136,382.827073 78.2938592,382.799837 C78.8420026,382.769195 79.379932,382.627904 79.9076477,382.375963 C80.4353633,382.122319 80.9154143,381.778454 81.3478006,381.346068 C81.7818893,380.911981 82.1240533,380.431931 82.3759949,379.905919 C82.6296389,379.378204 82.7709305,378.840276 82.7981674,378.290432 C82.8271067,377.740587 82.7470982,377.200957 82.5598442,376.664731 C82.370888,376.131909 82.0542586,375.641646 81.6048492,375.192237 L81.6048492,375.192237 Z M68,378.101476 L78.0929869,368 L80.455791,370.361097 L79.0905396,371.726345 C79.9144569,371.539091 80.7639088,371.593565 81.6371931,371.889766 C82.5104773,372.184265 83.2441722,372.628566 83.8365756,373.220968 C84.6026144,373.985303 85.1626739,374.826242 85.516754,375.743784 C85.8708342,376.659624 86.0308512,377.592487 85.9951027,378.538968 C85.9593542,379.483747 85.7499703,380.402992 85.3669509,381.289892 C84.9839315,382.178495 84.4323836,382.983685 83.7106048,383.707165 C83.0024444,384.415324 82.2023595,384.963466 81.3052429,385.354996 C80.411531,385.744824 79.4905821,385.957612 78.5440986,385.995062 C77.5976151,386.030811 76.6664524,385.872496 75.7489081,385.518417 C74.8313638,385.164338 73.9887212,384.605982 73.2243847,383.839945 C72.6319813,383.247543 72.1876788,382.515552 71.8897748,381.642269 C71.5935732,380.767285 71.5408016,379.919537 71.7263532,379.095622 L70.3628041,380.462572 L68,378.101476 Z" id="Fill-63" fill="#1D1D1B"></path>
                <path d="M39.1623832,339.995549 L37.3954128,336.869291 L50.2312538,329 L52,332.126258 L39.1623832,339.995549 Z M34.9003442,343.612019 C34.2752451,343.99494 33.6199566,344.094832 32.9344786,343.909846 C32.2490007,343.72486 31.7269009,343.316042 31.3699551,342.685241 C31.0041301,342.035941 30.9100101,341.351494 31.0858192,340.639299 C31.26518,339.923405 31.6647462,339.375847 32.2898452,338.992927 C32.8971858,338.621105 33.5418192,338.528613 34.2272972,338.713598 C34.9127751,338.896734 35.4384266,339.316652 35.8060275,339.965951 C36.1647491,340.596753 36.2517657,341.2701 36.0759566,341.984145 C35.8983716,342.69819 35.504133,343.242048 34.9003442,343.612019 L34.9003442,343.612019 Z" id="Fill-65" fill="#1D1D1B"></path>
                <path d="M42.2688718,321.148845 C41.9700663,320.568159 41.5800087,320.094166 41.1058562,319.728613 C40.6281252,319.36481 40.1128198,319.107699 39.552783,318.959029 C38.998114,318.810359 38.4112385,318.77188 37.7975241,318.838344 C37.1820204,318.906557 36.5879878,319.079714 36.0118478,319.363061 C35.437497,319.648157 34.9382949,320.010211 34.51782,320.452722 C34.0973451,320.893484 33.780647,321.379721 33.5713042,321.906186 C33.3601722,322.430903 33.2653417,322.9906 33.2814449,323.58178 C33.295759,324.172961 33.4550027,324.758894 33.7538082,325.33958 C34.0526138,325.922016 34.4390928,326.389013 34.9114561,326.744071 C35.3820301,327.099129 35.8955462,327.352742 36.4537937,327.501412 C37.0120412,327.650082 37.5953383,327.685063 38.2054742,327.608104 C38.8138208,327.531146 39.4060641,327.350993 39.9822042,327.069395 C40.556555,326.786049 41.0575463,326.427492 41.4833889,325.995476 C41.9092316,325.559961 42.2277189,325.08072 42.4370618,324.554255 C42.6464046,324.027789 42.7466028,323.475088 42.7340781,322.892653 C42.7233425,322.311967 42.5676774,321.729532 42.2688718,321.148845 L42.2688718,321.148845 Z M40.9018811,316.958111 C41.785773,317.038567 42.614198,317.36564 43.3889453,317.935832 C44.1654819,318.506024 44.7505682,319.175912 45.1442043,319.943747 C45.6577204,320.93721 45.9386334,321.937669 45.9905218,322.946874 C46.0406209,323.956078 45.8921128,324.916309 45.5449973,325.827567 C45.1978819,326.738824 44.686155,327.567876 44.011606,328.311224 C43.3370569,329.054572 42.5193675,329.661494 41.5603269,330.133739 C40.6209681,330.59549 39.6386672,330.873589 38.6170028,330.96454 C37.5953383,331.05724 36.6058804,330.968038 35.6504183,330.698684 C34.6949562,330.429329 33.8146429,329.974575 33.0166352,329.334421 C32.2186276,328.692518 31.5637603,327.877459 31.0502442,326.882247 C30.6548189,326.114412 30.4526331,325.255626 30.4454761,324.307638 C30.4383191,323.359651 30.6637652,322.513108 31.1236037,321.76976 L22.5781227,325.977985 L21,322.911893 L41.1344843,313 L42.7143962,316.064344 L40.9018811,316.958111 Z" id="Fill-67" fill="#1D1D1B"></path>
                <path d="M25.0549113,308.508439 C25.4677788,309.514403 26.1015665,310.240539 26.9617071,310.683305 C27.8200368,311.126071 28.8250431,311.122529 29.9749152,310.672679 L27.1699516,303.802723 C26.0798367,304.22955 25.3555078,304.872446 24.9933434,305.736725 C24.6329898,306.597462 24.6529088,307.521957 25.0549113,308.508439 L25.0549113,308.508439 Z M32.4267684,309.714533 C32.9156904,309.477211 33.3539094,309.204467 33.7414253,308.89276 C34.1289412,308.581053 34.4313485,308.216214 34.6468364,307.800014 C34.8623242,307.383814 34.9745952,306.912711 34.9800277,306.383163 C34.9854601,305.853615 34.8514593,305.253224 34.5780251,304.581991 C34.1995633,303.655725 33.7450469,303.055335 33.2108544,302.782591 C32.6784727,302.508076 32.1189286,302.373475 31.5340331,302.371704 L30.2048896,299.116489 C30.8513531,298.978346 31.5177357,298.962407 32.2058481,299.072213 C32.8939605,299.180248 33.5585323,299.419341 34.1995633,299.785951 C34.8405944,300.154333 35.4327332,300.644917 35.974169,301.255934 C36.5174157,301.868722 36.9701212,302.617882 37.3322857,303.506956 C37.8085319,304.670544 38.0294522,305.756206 37.9968574,306.765713 C37.9642626,307.773448 37.7324774,308.694401 37.2996909,309.526801 C36.8669044,310.3592 36.2566573,311.095963 35.465328,311.737088 C34.6739987,312.378213 33.7631552,312.898905 32.7327973,313.300937 C31.6843313,313.711824 30.6431086,313.940291 29.6109399,313.989881 C28.5769605,314.03947 27.6117922,313.906641 26.7118136,313.594933 C25.811835,313.281455 25.0023975,312.774931 24.2816903,312.071819 C23.5627939,311.368707 22.9797091,310.47432 22.5360577,309.388658 C22.1738932,308.501355 21.9964327,307.605197 22,306.700183 C22.003676,305.793399 22.1757041,304.936204 22.512517,304.128599 C22.8493299,303.322765 23.3364411,302.607255 23.968418,301.980299 C24.6040166,301.356885 25.3754269,300.8663 26.2826488,300.510316 C26.5252989,300.41645 26.8150305,300.308415 27.1500326,300.189754 C27.4886563,300.069321 27.9051454,299.957744 28.4013107,299.855023 L32.4267684,309.714533 Z" id="Fill-69" fill="#1D1D1B"></path>
                <path d="M29.4913045,287.550274 C29.2938049,286.90418 28.9855578,286.350906 28.5665633,285.892271 C28.1475687,285.435455 27.6713547,285.082379 27.1323837,284.831221 C26.591567,284.581884 26.0027597,284.436285 25.3678076,284.399886 C24.7310097,284.359846 24.0942119,284.434465 23.457414,284.625563 C22.8224619,284.813021 22.2502667,285.098759 21.7426742,285.477315 C21.2313901,285.857691 20.8253161,286.299946 20.5152233,286.800441 C20.2069762,287.302756 20.005785,287.859671 19.9153412,288.467545 C19.8248975,289.077238 19.8784254,289.706952 20.075925,290.353046 C20.2752704,291.000959 20.5816717,291.548774 20.9951289,291.996489 C21.4104319,292.442385 21.8866459,292.791821 22.4274627,293.042978 C22.9664336,293.292316 23.5515493,293.430635 24.1846556,293.459754 C24.8196077,293.488874 25.452714,293.406975 26.0895118,293.217697 C26.7263097,293.028419 27.3003507,292.748141 27.8116348,292.378685 C28.3229189,292.011049 28.7345302,291.574253 29.0427773,291.073758 C29.3510244,290.569623 29.5522156,290.018169 29.6463509,289.421215 C29.7423321,288.822441 29.6888041,288.198187 29.4913045,287.550274 L29.4913045,287.550274 Z M15,283.413456 L29.8235469,279 L30.8682645,282.419746 L28.8655814,283.01488 C29.7497152,283.255117 30.5304848,283.733772 31.2152732,284.454485 C31.8982159,285.173378 32.3725841,285.96325 32.6328406,286.822281 C32.974312,287.92883 33.0758305,289.004439 32.9447793,290.047289 C32.8137282,291.090138 32.4870232,292.049268 31.9683559,292.92104 C31.4496887,293.796451 30.7796666,294.553563 29.9582896,295.196017 C29.1387584,295.84211 28.1974051,296.318945 27.1360753,296.635622 C26.096895,296.945019 25.0503316,297.057858 23.9926934,296.972319 C22.9387467,296.8886 21.9494028,296.622882 21.0265074,296.178807 C20.1054577,295.734731 19.2970013,295.114118 18.6011381,294.318786 C17.9052749,293.519814 17.3866077,292.569783 17.0488279,291.459594 C16.7867256,290.604203 16.7368893,289.688752 16.9030104,288.715062 C17.0672858,287.741372 17.4512103,286.9151 18.0510924,286.234427 L16.0484092,286.829561 L15,283.413456 Z" id="Fill-71" fill="#1D1D1B"></path>
                <g id="Group-75" transform="translate(0.000000, 233.000000)">
                    <mask id="mask-2" fill="white">
                        <use xlink:href="#path-1"></use>
                    </mask>
                    <g id="Clip-74"></g>
                    <path d="M8.05530769,4.29994286 L7.92438462,0.938228571 L22.7540769,0.393085714 L22.885,3.7548 L8.05530769,4.29994286 Z M2.67684615,5.30108571 C1.95676923,5.32851429 1.33576923,5.10908571 0.819153846,4.6428 C0.300769231,4.17994286 0.0300769231,3.60737143 0.00176923077,2.92851429 C-0.0247692308,2.2308 0.201692308,1.62908571 0.681153846,1.12851429 C1.16061538,0.626228571 1.76038462,0.362228571 2.48223077,0.3348 C3.18284615,0.3108 3.79146154,0.530228571 4.30807692,0.9948 C4.82646154,1.45937143 5.09892308,2.04222857 5.12723077,2.73994286 C5.152,3.4188 4.92553846,4.00851429 4.44607692,4.50908571 C3.96661538,5.01137143 3.37569231,5.27365714 2.67684615,5.30108571 L2.67684615,5.30108571 Z" id="Fill-73" fill="#1D1D1B" mask="url(#mask-2)"></path>
                </g>
                <path d="M19.8544564,222.344264 C19.8725027,221.688152 19.7570068,221.086716 19.5133828,220.541719 C19.2661495,219.994959 18.9322944,219.525804 18.5100127,219.134253 C18.087731,218.742702 17.586046,218.432284 17.0067622,218.206525 C16.429283,217.979002 15.8139067,217.859068 15.1642426,217.84143 C14.5145785,217.825557 13.8937884,217.915507 13.3054815,218.113047 C12.7153699,218.310586 12.1992479,218.592784 11.7553108,218.96317 C11.3131783,219.331792 10.9522538,219.785074 10.6797558,220.317724 C10.4054532,220.848611 10.2610834,221.444755 10.2430371,222.099104 C10.2249909,222.755216 10.3404868,223.351361 10.5841108,223.887538 C10.8313441,224.423716 11.1651992,224.885816 11.5874809,225.277367 C12.0097625,225.670681 12.5114476,225.974045 13.0907314,226.190985 C13.6700152,226.406162 14.2835869,226.520805 14.933251,226.538443 C15.582915,226.554316 16.2037052,226.469657 16.7938167,226.2827 C17.3821236,226.097507 17.8982457,225.8206 18.3421828,225.450214 C18.7843153,225.079828 19.1434352,224.633601 19.4177378,224.111533 C19.6902358,223.589466 19.8364102,223.000376 19.8544564,222.344264 L19.8544564,222.344264 Z M20.6845828,217.980766 C21.4298919,218.467559 22.007371,219.143072 22.418825,220.010833 C22.8266696,220.878594 23.0215689,221.746355 22.9981088,222.614116 C22.9692348,223.735856 22.7310247,224.755299 22.2852829,225.677736 C21.8377365,226.596646 21.2367972,227.379748 20.4842697,228.028805 C19.7299375,228.676098 18.8709372,229.173473 17.9090734,229.519167 C16.9472096,229.866624 15.9239887,230.023597 14.8430198,229.997141 C13.7819018,229.970685 12.7731179,229.759036 11.8202772,229.363957 C10.8674365,228.970643 10.0318963,228.430938 9.31185195,227.746606 C8.59541683,227.06051 8.03598387,226.247425 7.63896692,225.305587 C7.24194998,224.363749 7.05787849,223.333723 7.08855707,222.210219 C7.11021254,221.344222 7.35022733,220.48528 7.80499219,219.640447 C8.26156168,218.793851 8.87332869,218.148321 9.64390249,217.702095 L0,217.456935 L0.0920357461,214 L22.8230604,214.57498 L22.7310247,218.033678 L20.6845828,217.980766 Z" id="Fill-76" fill="#1D1D1B"></path>
                <path d="M11.7057522,202.818161 C11.5844781,203.942246 11.7944451,204.916577 12.3392731,205.737456 C12.880481,206.558334 13.7692204,207.039029 14.9982511,207.179539 L15.8381189,199.506915 C14.6742504,199.373799 13.7221589,199.617844 12.9890846,200.237201 C12.2542003,200.854708 11.8270262,201.716261 11.7057522,202.818161 L11.7057522,202.818161 Z M17.622838,207.479049 C18.1658559,207.495688 18.6835331,207.455014 19.1758693,207.355178 C19.6682056,207.253492 20.1098603,207.064912 20.5008332,206.785739 C20.8918061,206.506567 21.2176169,206.125709 21.4782655,205.641317 C21.7389142,205.158773 21.9108698,204.543115 21.9923225,203.790643 C22.1063563,202.755301 21.9941326,201.98434 21.6556514,201.475914 C21.3189803,200.969335 20.8899961,200.573687 20.3759391,200.292665 L20.7741522,196.654177 C21.4076732,196.83906 22.0031829,197.145965 22.5570612,197.576741 C23.1127496,198.007517 23.5833652,198.547374 23.9689079,199.196312 C24.3580708,199.843401 24.6440603,200.577385 24.8268763,201.401961 C25.0115024,202.228385 25.0477036,203.136159 24.9391001,204.127129 C24.7961053,205.428702 24.4684845,206.536148 23.9526174,207.447619 C23.4367503,208.360939 22.7887489,209.096771 22.006803,209.653267 C21.2248571,210.211613 20.3306876,210.596168 19.3242943,210.803237 C18.3160909,211.014003 17.262636,211.054677 16.1639297,210.928957 C15.0416925,210.799539 14.0117685,210.511122 13.0777776,210.05816 C12.1437866,209.605198 11.3564106,209.01912 10.7138393,208.298078 C10.0712681,207.577037 9.60246255,206.719182 9.30742279,205.726363 C9.01057297,204.731695 8.92912027,203.627946 9.06125464,202.416966 C9.1716683,201.424146 9.44498734,200.512676 9.8848319,199.680704 C10.3264865,198.850582 10.8894151,198.144331 11.5772379,197.563799 C12.2632506,196.983268 13.0361462,196.558039 13.8959246,196.28811 C14.7575131,196.016333 15.6715934,195.936833 16.6435955,196.049612 C16.9024341,196.077344 17.2083342,196.119867 17.563106,196.169785 C17.9196878,196.223401 18.3396217,196.31954 18.8283378,196.463748 L17.622838,207.479049 Z" id="Fill-78" fill="#1D1D1B"></path>
                <path d="M23.7207417,187.101675 C23.8506349,186.457151 23.8434186,185.842728 23.6972888,185.260177 C23.551159,184.679397 23.3058052,184.160591 22.9558153,183.700217 C22.6094335,183.241613 22.16924,182.853836 21.6388429,182.531574 C21.1084458,182.211083 20.5239265,181.987978 19.8870892,181.862261 C19.2502518,181.738314 18.6242389,181.724149 18.0090505,181.819765 C17.3920579,181.91361 16.8345997,182.108384 16.3330678,182.400545 C15.8333399,182.692705 15.4003627,183.078711 15.0377442,183.558563 C14.6733217,184.040185 14.427968,184.605029 14.2944667,185.249553 C14.1627694,185.895848 14.1717898,186.504959 14.3197237,187.075115 C14.4694616,187.647041 14.7184235,188.162306 15.0648053,188.619139 C15.4147952,189.077743 15.8549887,189.461978 16.3871899,189.773616 C16.917587,190.083483 17.5039104,190.301276 18.1407477,190.426994 C18.777585,190.55094 19.4017939,190.572189 20.0151783,190.485426 C20.6303668,190.400433 21.1878249,190.212742 21.6875528,189.920582 C22.1890848,189.628421 22.6202579,189.247727 22.9810723,188.776729 C23.3418867,188.307501 23.5890445,187.747969 23.7207417,187.101675 L23.7207417,187.101675 Z M13.1615096,177 L28,179.912753 L27.3054324,183.319523 L25.2993045,182.926434 C25.9487704,183.530232 26.3997883,184.296933 26.6523584,185.222993 C26.9067325,186.150825 26.944618,187.041472 26.769623,187.894935 C26.5441141,188.999833 26.1327857,189.970161 25.5320298,190.805917 C24.9312739,191.639903 24.2024289,192.314528 23.3472989,192.829793 C22.4903648,193.343288 21.5594637,193.69388 20.5509876,193.872718 C19.5425115,194.055097 18.5069743,194.040932 17.4461801,193.833763 C16.4052306,193.628366 15.4508767,193.251213 14.5813141,192.700534 C13.7099474,192.151626 12.9811024,191.477001 12.392975,190.680199 C11.8066517,189.879856 11.3971274,188.982127 11.1716184,187.983468 C10.9443053,186.986581 10.9425013,185.936573 11.1680102,184.831675 C11.3430052,183.976441 11.7290766,183.169016 12.3244203,182.409398 C12.921568,181.64801 13.6377845,181.111497 14.4730698,180.799859 L12.468746,180.40677 L13.1615096,177 Z" id="Fill-80" fill="#1D1D1B"></path>
                <path d="M29.5211511,131.499664 L31.0055865,128.3872 L44,134.885771 L42.5155645,138 L29.5211511,131.499664 Z M24.4264858,129.870167 C23.7954715,129.554154 23.3678989,129.063362 23.1437681,128.397793 C22.9196373,127.732223 22.9575671,127.086074 23.2575576,126.457579 C23.5661684,125.809664 24.0454635,125.371835 24.6954428,125.142329 C25.3454221,124.916353 25.986781,124.958723 26.6177953,125.274736 C27.2332929,125.580157 27.650521,126.067417 27.8746518,126.732987 C28.0987826,127.400321 28.0539565,128.055298 27.7470697,128.703213 C27.4470792,129.329943 26.9712323,129.76071 26.3229771,129.988451 C25.6729978,130.216192 25.0385353,130.177353 24.4264858,129.870167 L24.4264858,129.870167 Z" id="Fill-82" fill="#1D1D1B"></path>
                <path d="M46.7675258,124.499567 C47.0936949,123.929887 47.2788179,123.34786 47.326421,122.753488 C47.374024,122.159115 47.3105533,121.591199 47.1307195,121.049738 C46.9508857,120.508277 46.6670305,120.005618 46.2773906,119.538233 C45.8859877,119.070848 45.4152464,118.679303 44.8651667,118.363598 C44.3133238,118.049656 43.7367979,117.841538 43.135589,117.741006 C42.5361431,117.640474 41.956091,117.651056 41.400722,117.772753 C40.845353,117.892685 40.3234825,118.123732 39.8333473,118.465893 C39.3449752,118.808054 38.9394677,119.264857 38.6132986,119.832773 C38.2871295,120.404217 38.1037696,120.980953 38.0614558,121.566507 C38.019142,122.15206 38.0861389,122.714686 38.2659726,123.256147 C38.4440433,123.797608 38.7296617,124.29674 39.1263538,124.755306 C39.5230459,125.212108 39.9955503,125.598362 40.5473932,125.914068 C41.0974729,126.229773 41.6704727,126.443182 42.2663924,126.550769 C42.8623121,126.661883 43.438838,126.654828 43.9959701,126.533132 C44.5513391,126.413199 45.0714466,126.187444 45.5545294,125.854101 C46.0376123,125.520759 46.4413567,125.069247 46.7675258,124.499567 L46.7675258,124.499567 Z M49.5478969,121.042683 C49.9604567,121.816954 50.1350013,122.679412 50.0785828,123.633582 C50.0204013,124.587753 49.7753337,125.439628 49.3451431,126.194498 C48.7880111,127.16807 48.0986483,127.956451 47.2788179,128.559642 C46.4589875,129.164597 45.5703971,129.575543 44.6148098,129.797771 C43.6592226,130.018236 42.6877676,130.058801 41.6951557,129.917704 C40.7043069,129.776606 39.7487197,129.445028 38.830157,128.917677 C37.9292251,128.404435 37.16405,127.75186 36.5293426,126.961715 C35.8963983,126.173334 35.4327093,125.310877 35.1382755,124.374343 C34.8456049,123.43781 34.7521619,122.464238 34.8544203,121.450101 C34.9602049,120.437728 35.2899001,119.444756 35.8470322,118.469421 C36.2772227,117.716314 36.8890102,117.072557 37.6823944,116.538151 C38.4740156,116.007272 39.3079506,115.719787 40.1824364,115.684512 L32,111.003609 L33.7172362,108 L53,119.032046 L51.2845269,122.037419 L49.5478969,121.042683 Z" id="Fill-84" fill="#1D1D1B"></path>
                <path d="M48.5831797,103.860746 C47.9550891,104.797914 47.6905351,105.76303 47.7877182,106.757956 C47.8849013,107.752882 48.4392047,108.611798 49.4506286,109.336566 L53.7284835,102.940346 C52.7710503,102.252841 51.8280145,102.005041 50.8975766,102.195083 C49.970738,102.386988 49.1968728,102.942209 48.5831797,103.860746 L48.5831797,103.860746 Z M51.6084528,110.882987 C52.0763713,111.164323 52.5496888,111.38045 53.0266058,111.531365 C53.501723,111.684144 53.9768403,111.732586 54.4483582,111.672965 C54.919876,111.617071 55.3805958,111.438208 55.8305175,111.136376 C56.2822388,110.834545 56.7195626,110.370618 57.1370899,109.746461 C57.7129896,108.881955 57.9721445,108.142282 57.9109551,107.52744 C57.8479661,106.912598 57.6571993,106.355514 57.3368551,105.850598 L59.3651019,102.819241 C59.8366197,103.292483 60.2145539,103.85702 60.5007041,104.510988 C60.7850546,105.163093 60.948826,105.871093 60.9902188,106.634987 C61.0316116,107.397019 60.9416273,108.190724 60.7202658,109.012376 C60.4989044,109.832166 60.1119718,110.655681 59.5612677,111.484786 C58.8341943,112.569144 58.0351335,113.388933 57.1640852,113.947881 C56.2912372,114.504965 55.3841952,114.842196 54.4411594,114.953986 C53.4981237,115.067638 52.5388907,114.970754 51.5616609,114.663333 C50.5844311,114.357775 49.643195,113.880807 48.7379527,113.230565 C47.8147135,112.569144 47.048047,111.810839 46.4415527,110.951923 C45.8314589,110.094871 45.4121319,109.187513 45.1835717,108.23544 C44.9532119,107.283366 44.9406141,106.29403 45.1403793,105.26743 C45.3383448,104.24083 45.7774683,103.221683 46.4541505,102.211852 C47.0066542,101.38461 47.6689389,100.71201 48.4392047,100.186599 C49.2094706,99.6649152 50.028328,99.3146416 50.8957769,99.1339154 C51.7650255,98.9550522 52.6378735,98.9550522 53.5143208,99.1357785 C54.3943676,99.3165048 55.2312218,99.6928626 56.0302827,100.264852 C56.2426457,100.417631 56.4946018,100.603947 56.780752,100.821936 C57.0669021,101.041789 57.3908457,101.336168 57.7489833,101.701346 L51.6084528,110.882987 Z" id="Fill-86" fill="#1D1D1B"></path>
                <path d="M67.1431967,94.2987905 C67.5464376,93.8094004 67.8215299,93.2859066 67.9650563,92.7266037 C68.1085827,92.169006 68.1427556,91.618229 68.0607406,91.0725677 C67.9804341,90.5269063 67.7924829,90.0000021 67.4968868,89.4918549 C67.2012908,88.9802974 66.816845,88.5301268 66.341841,88.1396379 C65.8685455,87.7474438 65.3525339,87.4541508 64.7955148,87.2597589 C64.2384956,87.0653671 63.6848938,86.9784023 63.1330006,87.002275 C62.582816,87.0244425 62.0463006,87.1591526 61.5217458,87.402995 C60.9988996,87.6502478 60.535856,88.0151589 60.1309065,88.5062541 C59.7242484,88.9939389 59.4525734,89.5123172 59.3158816,90.0647994 C59.1791897,90.6138711 59.1501427,91.1612377 59.2304492,91.7051938 C59.3107556,92.2525604 59.5021242,92.7743491 59.8045548,93.2756754 C60.1069855,93.778707 60.4948485,94.2254672 60.9698525,94.6176613 C61.443148,95.0081502 61.9557423,95.3065588 62.5059268,95.5077714 C63.0561114,95.7106892 63.6080046,95.8010644 64.1581892,95.7771917 C64.7100824,95.7550242 65.2431805,95.6237245 65.7591921,95.388408 C66.2752037,95.1496812 66.7382472,94.7864753 67.1431967,94.2987905 L67.1431967,94.2987905 Z M62.9604271,81 L74,90.1210707 L71.8624817,92.6993206 L70.3708323,91.466467 C70.6356727,92.2696123 70.6613024,93.1222082 70.4477214,94.0208442 C70.2341404,94.9194803 69.8582379,95.6919321 69.3217226,96.3381998 C68.6297202,97.175449 67.8420336,97.8114855 66.9586628,98.2497198 C66.0752919,98.6896592 65.1594567,98.9352069 64.2094486,98.9880678 C63.2628578,99.0409287 62.3265188,98.9181549 61.4021404,98.6197464 C60.477762,98.3213378 59.6217295,97.8472945 58.8323343,97.1942061 C58.0583168,96.5547592 57.4329518,95.8078852 56.9596564,94.9501737 C56.486361,94.0941675 56.185639,93.1972366 56.0609077,92.2559708 C55.9344677,91.3147049 56.0045223,90.3717339 56.2744886,89.4236473 C56.5410377,88.4755606 57.0211677,87.5837454 57.71317,86.7482014 C58.2496854,86.1019337 58.9399791,85.5903762 59.7857597,85.2135288 C60.6315403,84.8349763 61.4756123,84.7019713 62.3145583,84.8128088 L60.8229088,83.5782499 L62.9604271,81 Z" id="Fill-88" fill="#1D1D1B"></path>
                <path d="M91.7064208,54.6712619 L94.5380468,52.5999563 L104,63.9286945 L101.170206,66 L91.7064208,54.6712619 Z M87.5780348,51.0327599 C87.1183076,50.4823551 86.9333178,49.8667933 87.0212338,49.1877891 C87.1091497,48.508785 87.4406661,47.9600948 88.0102881,47.5417185 C88.6000576,47.1113396 89.2575956,46.9364446 89.9829021,47.0204628 C90.706377,47.104481 91.2998096,47.4199779 91.7595367,47.9720974 C92.2064428,48.5053557 92.3859378,49.1140589 92.2961903,49.7913484 C92.2082743,50.4720671 91.8694316,51.0259013 91.2814938,51.4562802 C90.7100402,51.8746565 90.0616601,52.0426929 89.3363536,51.9586747 C88.6128786,51.8763711 88.0249408,51.5660182 87.5780348,51.0327599 L87.5780348,51.0327599 Z" id="Fill-90" fill="#1D1D1B"></path>
                <path d="M110.213215,55.9243462 C110.742064,55.548933 111.152437,55.0980779 111.447768,54.5753734 C111.743099,54.0508727 111.926823,53.5030209 112.000656,52.9282255 C112.074488,52.3534302 112.040148,51.7660612 111.895916,51.1625261 C111.753402,50.5607873 111.507865,49.9913807 111.159305,49.4561025 C110.812463,48.9244168 110.393504,48.4771542 109.911016,48.1161109 C109.428527,47.7586601 108.916848,47.5089833 108.379414,47.3724694 C107.838546,47.2341593 107.283942,47.2126045 106.71045,47.3096012 C106.136958,47.4065979 105.585787,47.643701 105.058655,48.0191142 C104.529806,48.3963236 104.122868,48.8435862 103.837839,49.360902 C103.551093,49.8782178 103.37252,50.4224771 103.29697,50.9990687 C103.223138,51.573864 103.260912,52.1576405 103.413729,52.7539907 C103.564829,53.3503409 103.815517,53.916155 104.164077,54.4514332 C104.512636,54.9849151 104.924726,55.4357702 105.39863,55.8004059 C105.87425,56.1650417 106.382495,56.4165147 106.919929,56.5548248 C107.45908,56.6913387 108.01025,56.7146898 108.575157,56.624878 C109.140064,56.5350662 109.686083,56.3015556 110.213215,55.9243462 L110.213215,55.9243462 Z M114.119485,53.9987818 C114.152109,54.8897146 113.940913,55.7572963 113.482463,56.6069156 C113.02573,57.4547387 112.448804,58.128327 111.751685,58.6258842 C110.846804,59.2689365 109.909299,59.6856631 108.934019,59.8706754 C107.958739,60.0592801 107.005781,60.0413177 106.075144,59.8185845 C105.144507,59.5958513 104.273967,59.1988833 103.46524,58.6276805 C102.656514,58.0564776 101.961112,57.3254098 101.380752,56.4362733 C100.810694,55.5650991 100.417491,54.6238718 100.199427,53.6197762 C99.9796455,52.6156806 99.9418705,51.6187699 100.084385,50.6308405 C100.225182,49.642911 100.556572,48.7070723 101.080269,47.8251208 C101.600533,46.9449654 102.313105,46.1815654 103.216269,45.5385131 C103.913388,45.0391597 104.723832,44.7230222 105.645884,44.5865083 C106.566218,44.4499944 107.417871,44.561361 108.199125,44.9170156 L103.025678,36.9848401 L105.809003,35 L118,53.695218 L115.218392,55.6800582 L114.119485,53.9987818 Z" id="Fill-92" fill="#1D1D1B"></path>
                <path d="M121.219238,37.3418798 C120.229229,37.8862698 119.560556,38.6157525 119.218789,39.5285132 C118.875165,40.4430885 119.014472,41.4411369 119.63671,42.5208439 L126.397747,38.8044744 C125.807085,37.7792064 125.039967,37.147714 124.094536,36.9045531 C123.147248,36.6613922 122.188816,36.8083775 121.219238,37.3418798 L121.219238,37.3418798 Z M120.966628,44.8272431 C121.278676,45.2809015 121.624158,45.6801209 121.999358,46.021272 C122.376416,46.3642377 122.796194,46.6128425 123.258694,46.7725303 C123.719336,46.9304034 124.226414,46.9775838 124.776212,46.9104424 C125.327868,46.8451156 125.931532,46.6309888 126.594634,46.2680621 C127.506631,45.7672233 128.069431,45.233721 128.279321,44.6657407 C128.48921,44.1013897 128.556078,43.5261509 128.476208,42.9454681 L131.682128,41.183459 C131.912449,41.8058783 132.016465,42.4664049 131.997891,43.1650388 C131.979317,43.8636727 131.821435,44.5550481 131.526104,45.2427942 C131.232631,45.926911 130.803565,46.5838084 130.238907,47.2062277 C129.677964,47.8250177 128.959139,48.3784809 128.086148,48.8593588 C126.940115,49.4890367 125.840518,49.8555926 124.787357,49.9608414 C123.734195,50.0660901 122.746044,49.9590267 121.822902,49.6414659 C120.897903,49.3257196 120.049059,48.8176223 119.276369,48.1189883 C118.501822,47.4203544 117.836863,46.5874376 117.279634,45.620238 C116.709404,44.6330773 116.330489,43.629585 116.141031,42.6097609 C115.947859,41.5899369 115.953431,40.613664 116.155891,39.6754985 C116.35835,38.7409622 116.776271,37.8681235 117.409654,37.0569823 C118.04118,36.2458411 118.891882,35.5472072 119.959902,34.9610805 C120.834751,34.4802027 121.743033,34.1807881 122.684749,34.0610223 C123.628322,33.9430711 124.540319,33.9956955 125.426312,34.2225247 C126.30859,34.4475393 127.120286,34.8322416 127.855827,35.3784463 C128.593226,35.9228363 129.206177,36.6232849 129.698395,37.4761626 C129.830273,37.7029918 129.980724,37.9770015 130.151608,38.2945624 C130.320634,38.6139379 130.493375,39.0131572 130.667973,39.4922205 L120.966628,44.8272431 Z" id="Fill-94" fill="#1D1D1B"></path>
                <path d="M141.750376,38.3779526 C142.346055,38.1040191 142.837754,37.7375885 143.223712,37.2804397 C143.611432,36.8215121 143.889885,36.3181148 144.060835,35.7702477 C144.231784,35.2241595 144.295229,34.6424954 144.252932,34.0305919 C144.210636,33.4169097 144.05731,32.8192365 143.792955,32.2357937 C143.532126,31.6523509 143.18494,31.1436172 142.756686,30.7078138 C142.328431,30.2684529 141.854356,29.9375981 141.332696,29.7063556 C140.811036,29.4768918 140.250605,29.3594917 139.656688,29.3505977 C139.061009,29.3417038 138.463568,29.475113 137.866127,29.7472677 C137.270448,30.02298 136.784035,30.385853 136.40689,30.8394442 C136.029744,31.2948143 135.756578,31.794654 135.583866,32.3407423 C135.412917,32.8903881 135.352996,33.4667158 135.405867,34.0768405 C135.4605,34.6851864 135.619113,35.2810807 135.879943,35.8645235 C136.142535,36.4461876 136.482671,36.9584789 136.902114,37.3996186 C137.321556,37.8407583 137.792107,38.1769494 138.313767,38.4064132 C138.835427,38.635877 139.388809,38.7568347 139.973914,38.7692862 C140.560781,38.7817377 141.152935,38.6501073 141.750376,38.3779526 L141.750376,38.3779526 Z M143.886361,24 L150,37.5846126 L146.852419,39.0272106 L146.024108,37.1915002 C145.906029,38.0666645 145.544745,38.8760136 144.942017,39.6213262 C144.335763,40.3684176 143.637867,40.9233999 142.848329,41.2844941 C141.82792,41.7523156 140.809274,41.9906733 139.79239,41.9995673 C138.773744,42.01024 137.813256,41.8234672 136.909163,41.4410275 C136.005071,41.0585878 135.190859,40.5160571 134.470052,39.8152142 C133.749245,39.1143713 133.169428,38.2783404 132.732362,37.3053428 C132.304107,36.3536906 132.062663,35.3700202 132.011555,34.3489952 C131.958684,33.329749 132.087337,32.351415 132.39575,31.4122143 C132.705926,30.4747925 133.197626,29.6191949 133.874373,28.8543156 C134.551121,28.0858786 135.398818,27.46686 136.420989,27.0008173 C137.210527,26.6379443 138.082897,26.4742957 139.038099,26.5027563 C139.991537,26.5365533 140.833947,26.7926989 141.565328,27.2800872 L140.737017,25.4443768 L143.886361,24 Z" id="Fill-96" fill="#1D1D1B"></path>
                <path d="M188.611793,10.2691409 L191.721549,9.67940762 L194,24.4102668 L190.888636,25 L188.611793,10.2691409 Z M187.03762,5.03637195 C186.92828,4.32014005 187.056915,3.67161166 187.428349,3.09256846 C187.798175,2.51174358 188.298245,2.16075431 188.925341,2.043164 C189.571733,1.918447 190.157023,2.06454406 190.679604,2.47432848 C191.203792,2.8841129 191.522164,3.44890274 191.631504,4.16335297 C191.739236,4.85998649 191.607385,5.49782485 191.237559,6.07686805 C190.866125,6.6594746 190.358016,7.00868219 189.713232,7.13161752 C189.084527,7.25098951 188.508885,7.10667412 187.984696,6.69510803 C187.462116,6.28532361 187.14696,5.7312238 187.03762,5.03637195 L187.03762,5.03637195 Z" id="Fill-98" fill="#1D1D1B"></path>
                <path d="M205.599988,20.7862953 C206.278444,20.7156429 206.881719,20.5218018 207.413481,20.2047718 C207.94341,19.8877419 208.383489,19.4928131 208.731885,19.018174 C209.078448,18.5471581 209.331493,18.0054897 209.489188,17.4004154 C209.64505,16.7935295 209.689058,16.1649044 209.621212,15.5181633 C209.551533,14.867799 209.377335,14.2627247 209.096784,13.7029404 C208.816234,13.1413445 208.456836,12.6667053 208.014923,12.2735882 C207.576677,11.8822826 207.063252,11.5851803 206.478313,11.3840927 C205.891541,11.1811935 205.258927,11.115976 204.582305,11.1848167 C203.90385,11.2554691 203.304242,11.4493103 202.785315,11.7663403 C202.266389,12.0815586 201.83181,12.4764874 201.483414,12.9493149 C201.135018,13.423954 200.889307,13.9601875 200.742614,14.5670734 C200.595921,15.1721478 200.557414,15.7989613 200.627094,16.447514 C200.694939,17.0960667 200.863636,17.7029526 201.133185,18.2627369 C201.404567,18.8261444 201.758464,19.3044067 202.200377,19.6939007 C202.638622,20.0870178 203.144713,20.3841202 203.720484,20.5870194 C204.29442,20.7899185 204.921533,20.8551361 205.599988,20.7862953 L205.599988,20.7862953 Z M210.206151,21.0308613 C209.804578,21.8370232 209.182967,22.5018803 208.343149,23.0254326 C207.501497,23.5489849 206.632341,23.8587685 205.73568,23.9511601 C204.574971,24.0707256 203.493109,23.9710877 202.486428,23.6486229 C201.477913,23.3261582 200.59042,22.8352146 199.823949,22.1703575 C199.055644,21.5055004 198.430365,20.7192661 197.946278,19.8080315 C197.462191,18.8949852 197.16147,17.8986054 197.047783,16.8188919 C196.935929,15.7591061 197.020278,14.7283058 197.302662,13.7264912 C197.581379,12.7246765 198.028793,11.8206883 198.639403,11.0127148 C199.251846,10.2083645 200.016484,9.54350739 200.935149,9.02357827 C201.851981,8.50183754 202.889834,8.18118439 204.050543,8.06161881 C204.949038,7.96741562 205.864036,8.0906044 206.795537,8.43299675 C207.727038,8.7735775 208.473339,9.29712983 209.036273,10.0036537 L208.014923,0.371377945 L211.594234,0 L214,22.7047794 L210.422523,23.0743458 L210.206151,21.0308613 Z" id="Fill-100" fill="#1D1D1B"></path>
                <path d="M224.037339,8.68237055 C222.968684,8.70413952 222.083377,9.03611621 221.381417,9.6819288 C220.681204,10.3277414 220.344193,11.2710631 220.365147,12.51008 L227.657146,12.3649536 C227.636192,11.1894295 227.288705,10.2769471 226.61643,9.62750639 C225.944155,8.97625156 225.08504,8.66060159 224.037339,8.68237055 L224.037339,8.68237055 Z M220.415786,15.1550091 C220.466425,15.6974191 220.571195,16.2071757 220.726604,16.6842788 C220.880267,17.1595678 221.114253,17.5731781 221.425071,17.9287379 C221.735889,18.2806694 222.134016,18.5545956 222.61945,18.7523303 C223.104885,18.9500651 223.705567,19.0407691 224.416258,19.0262565 C225.401097,19.0063016 226.110041,18.7976823 226.543091,18.3967706 C226.97614,17.9958588 227.290451,17.5223839 227.49126,16.9727175 L230.946927,16.9037825 C230.85438,17.5604796 230.641348,18.1899654 230.306083,18.7940542 C229.970819,19.399957 229.527292,19.9369248 228.968518,20.4067716 C228.411491,20.8748043 227.758424,21.252133 227.009318,21.5387577 C226.258465,21.8253824 225.41332,21.9795792 224.472135,21.99772 C223.234102,22.0231171 222.158462,21.8362668 221.238231,21.4407973 C220.319747,21.0453278 219.549686,20.4956615 218.928051,19.7899843 C218.308161,19.0824929 217.836695,18.2443878 217.5154,17.2702267 C217.192359,16.2960656 217.021235,15.2547835 217.002027,14.1463804 C216.981073,13.0143943 217.122512,11.9549714 217.429838,10.9699258 C217.737164,9.98306613 218.185929,9.12500615 218.781372,8.39574587 C219.37507,7.66285742 220.118937,7.08960805 221.012976,6.66874142 C221.905268,6.24787479 222.928522,6.02474291 224.080993,6.00115986 C225.023924,5.98483314 225.912724,6.14084405 226.747392,6.47100666 C227.580315,6.80479744 228.311959,7.27464424 228.942326,7.88236114 C229.570947,8.49007804 230.066858,9.2030116 230.426569,10.0229759 C230.788026,10.8429402 230.978358,11.742724 230.99582,12.7241415 C231.001058,12.983555 231.001058,13.2955768 230.997566,13.6529506 C230.992328,14.0121385 230.953912,14.4438896 230.880573,14.9463898 L220.415786,15.1550091 Z" id="Fill-102" fill="#1D1D1B"></path>
                <path d="M240.894116,19.7294878 C241.585396,19.7726629 242.224503,19.6845137 242.811438,19.4632415 C243.398374,19.2401702 243.907051,18.9271509 244.339334,18.5205856 C244.76789,18.1158192 245.116325,17.6283006 245.377185,17.0616277 C245.641772,16.4931558 245.794561,15.8869058 245.837417,15.2410785 C245.882136,14.5952513 245.813194,13.9746095 245.628729,13.3791533 C245.444263,12.781898 245.168497,12.2566012 244.795839,11.7996649 C244.425045,11.3445277 243.961087,10.9685447 243.411417,10.673515 C242.859884,10.3784853 242.237546,10.2093829 241.546267,10.1662078 C240.854987,10.1212338 240.221469,10.2111818 239.645714,10.4342531 C239.069958,10.6573243 238.566871,10.9721426 238.136451,11.376909 C237.704169,11.7834743 237.363187,12.2691939 237.111643,12.8376658 C236.8601,13.4043387 236.7129,14.0123877 236.668181,14.6600139 C236.625325,15.3058411 236.688677,15.9264829 236.861963,16.5219392 C237.033385,17.1155965 237.305425,17.6426923 237.676219,18.0978296 C238.05074,18.5547658 238.507245,18.9289499 239.047599,19.2239796 C239.586089,19.5172103 240.202837,19.6863127 240.894116,19.7294878 L240.894116,19.7294878 Z M250,7.94449019 L248.973329,23 L245.325013,22.767934 L245.464759,20.7351073 C244.922543,21.4564909 244.184681,22.0051742 243.253038,22.3793582 C242.319531,22.7517433 241.39534,22.9100519 240.478603,22.8506862 C239.297279,22.7751298 238.229616,22.4980897 237.277476,22.015968 C236.323473,21.5320473 235.520396,20.9024107 234.868246,20.1270583 C234.214232,19.3499069 233.724187,18.4756115 233.399975,17.5023733 C233.0739,16.529135 232.947197,15.5037269 233.019865,14.4279479 C233.092533,13.3719574 233.355257,12.3771316 233.811762,11.4434705 C234.266404,10.5098095 234.871972,9.69847777 235.62474,9.01127444 C236.377508,8.32227213 237.258843,7.80057326 238.268745,7.4425799 C239.280509,7.08458654 240.376122,6.94426753 241.557446,7.01982392 C242.474184,7.07739069 243.366698,7.3490339 244.242443,7.83835146 C245.116325,8.32587006 245.772202,8.96450143 246.211937,9.74704974 L246.351684,7.71242415 L250,7.94449019 Z" id="Fill-104" fill="#1D1D1B"></path>
            </g>
        </g>
    </g>
</svg>