<svg xmlns="http://www.w3.org/2000/svg" xmlns:xlink="http://www.w3.org/1999/xlink" viewBox="0 0 452 455">
  <defs>
    <path id="a" d="M0 .333h22.885v4.97H0z"/>
  </defs>
  <g fill-rule="evenodd">
    <path d="M296.795 11.755a2.491 2.491 0 0 1 1.336-1.48 2.681 2.681 0 0 1 2.02-.142c.71.223 1.23.644 1.562 1.265.329.62.375 1.267.14 1.94-.228.655-.67 1.14-1.326 1.45-.655.312-1.338.356-2.05.133-.691-.216-1.202-.634-1.531-1.253a2.297 2.297 0 0 1-.151-1.913zm-.95 5.312l3.424 1.074L294.425 32 291 30.928l4.844-13.861zM305.152 34.526c.619.248 1.23.356 1.835.324a4.415 4.415 0 0 0 1.69-.427c.52-.248.99-.6 1.407-1.053.418-.452.748-.973.992-1.565a5.13 5.13 0 0 0 .39-1.805 4.535 4.535 0 0 0-.267-1.725 4.286 4.286 0 0 0-.912-1.465 4.171 4.171 0 0 0-1.545-1.034c-.618-.248-1.226-.354-1.822-.317a4.47 4.47 0 0 0-1.673.43c-.52.252-.987.605-1.394 1.062a5.399 5.399 0 0 0-.975 1.569 5.395 5.395 0 0 0-.407 1.8 4.35 4.35 0 0 0 .252 1.72c.198.536.497 1.024.897 1.461.402.436.913.777 1.532 1.025zm3.861 2.305c-.723.514-1.567.807-2.538.876-.968.07-1.863-.057-2.68-.385-1.057-.423-1.945-1.003-2.664-1.738a7.227 7.227 0 0 1-1.612-2.488 7.924 7.924 0 0 1 .099-5.882 8.052 8.052 0 0 1 1.656-2.552 7.987 7.987 0 0 1 2.42-1.735 7.408 7.408 0 0 1 2.907-.677c1.035-.032 2.08.163 3.139.586.817.328 1.55.851 2.195 1.569.645.717 1.045 1.51 1.201 2.374L316.74 18 320 19.306 311.51 40l-3.26-1.306.763-1.863zM326.886 32.243c-.966-.5-1.91-.636-2.835-.413-.923.224-1.66.884-2.212 1.98l6.591 3.412c.521-1.04.633-2.007.33-2.9-.301-.896-.927-1.59-1.874-2.079zm-6.22 3.902c-.204.5-.345.996-.425 1.487-.08.492-.062.967.053 1.425.115.46.346.894.69 1.302.341.408.837.779 1.48 1.111.891.462 1.621.622 2.191.48a3.462 3.462 0 0 0 1.506-.782l3.123 1.616a5.224 5.224 0 0 1-1.444 1.342 5.551 5.551 0 0 1-1.938.758 6.901 6.901 0 0 1-2.274.042c-.803-.115-1.63-.39-2.482-.83-1.118-.58-1.996-1.265-2.637-2.058a6.601 6.601 0 0 1-1.306-2.565c-.23-.917-.264-1.88-.105-2.888.16-1.007.486-2 .978-2.98a9.595 9.595 0 0 1 1.846-2.568c.728-.712 1.527-1.244 2.395-1.595a6.235 6.235 0 0 1 2.79-.426c.994.066 2.01.368 3.052.908a7.12 7.12 0 0 1 2.168 1.703 6.985 6.985 0 0 1 1.317 2.3c.283.833.396 1.7.343 2.592-.055.891-.3 1.769-.735 2.635-.117.23-.258.502-.427.815a9.493 9.493 0 0 1-.7 1.073l-9.459-4.897zM337.234 50.669a4.081 4.081 0 0 0 3.357.487 4.488 4.488 0 0 0 1.509-.782 5.099 5.099 0 0 0 1.202-1.344 5.13 5.13 0 0 0 .672-1.675c.12-.586.131-1.155.035-1.708a4.21 4.21 0 0 0-.621-1.566 4.068 4.068 0 0 0-1.29-1.252 3.947 3.947 0 0 0-1.671-.607 4.247 4.247 0 0 0-1.658.137 4.27 4.27 0 0 0-1.498.79 5.297 5.297 0 0 0-1.187 1.353 5.304 5.304 0 0 0-.685 1.667 4.291 4.291 0 0 0-.05 1.7c.097.55.3 1.07.608 1.556a4.02 4.02 0 0 0 1.277 1.244zM350 44.66L342.343 57l-2.872-1.8 1.035-1.67c-.77.376-1.62.519-2.549.427-.93-.094-1.756-.366-2.475-.819-.931-.584-1.674-1.29-2.235-2.119a7.088 7.088 0 0 1-1.109-2.664 7.784 7.784 0 0 1-.008-2.875 7.897 7.897 0 0 1 1.084-2.78 7.817 7.817 0 0 1 1.997-2.184 7.684 7.684 0 0 1 2.58-1.272 7.041 7.041 0 0 1 2.869-.17c.986.143 1.943.503 2.874 1.088.72.45 1.327 1.078 1.818 1.876.492.8.74 1.63.743 2.49l1.034-1.668 2.871 1.8zM389.765 69.727c.51-.502 1.111-.746 1.797-.726a2.353 2.353 0 0 1 1.737.799 2.58 2.58 0 0 1 .7 1.867 2.579 2.579 0 0 1-.793 1.827 2.342 2.342 0 0 1-1.775.702c-.688-.018-1.272-.292-1.757-.822a2.54 2.54 0 0 1-.678-1.844c.017-.714.274-1.316.77-1.803zm-3.271 4.38l2.328 2.55L378.328 87 376 84.45l10.494-10.344zM387.394 93.505c.432.486.928.852 1.483 1.098a4.674 4.674 0 0 0 1.714.396 5.012 5.012 0 0 0 1.764-.261 5.412 5.412 0 0 0 1.64-.885 5.09 5.09 0 0 0 1.224-1.356c.31-.51.51-1.036.595-1.584a3.909 3.909 0 0 0-.107-1.652c-.154-.557-.448-1.08-.878-1.568a4.176 4.176 0 0 0-1.474-1.086 4.673 4.673 0 0 0-3.456-.111 5.705 5.705 0 0 0-1.632.895 5.34 5.34 0 0 0-1.23 1.343 4.064 4.064 0 0 0-.606 1.57 3.974 3.974 0 0 0 .094 1.644c.149.55.44 1.07.87 1.557zm2.333 3.686c-.892.113-1.788-.019-2.687-.394-.898-.375-1.635-.885-2.205-1.53-.738-.833-1.252-1.725-1.539-2.67a6.587 6.587 0 0 1-.236-2.831c.133-.94.441-1.838.937-2.689.49-.85 1.156-1.602 1.994-2.257a8.446 8.446 0 0 1 2.714-1.424 8.553 8.553 0 0 1 2.993-.385 7.848 7.848 0 0 1 2.922.73c.94.436 1.779 1.07 2.517 1.906.572.644.971 1.417 1.202 2.313.228.899.205 1.75-.075 2.554l7.458-5.83 2.278 2.57L390.424 101l-2.278-2.571 1.58-1.238zM407.405 102.806c-.637-.923-1.427-1.51-2.371-1.76-.943-.25-1.926-.016-2.948.705l4.343 6.299c.969-.684 1.529-1.5 1.682-2.454.155-.956-.082-1.886-.706-2.79zm-7.496.476a6.871 6.871 0 0 0-1.095 1.132 3.529 3.529 0 0 0-.632 1.313c-.115.47-.115.974.004 1.509.116.536.386 1.114.811 1.728.586.85 1.172 1.352 1.758 1.505a3.532 3.532 0 0 0 1.735.03l2.06 2.986a5.277 5.277 0 0 1-1.95.502 5.685 5.685 0 0 1-2.118-.264 7.084 7.084 0 0 1-2.078-1.076c-.673-.494-1.29-1.149-1.852-1.963-.737-1.068-1.207-2.114-1.409-3.141-.204-1.026-.19-2.013.04-2.952.23-.942.657-1.826 1.281-2.657a10.246 10.246 0 0 1 2.31-2.21c.933-.654 1.898-1.126 2.898-1.41a7.436 7.436 0 0 1 2.929-.27c.953.11 1.863.436 2.733.98.866.546 1.645 1.317 2.331 2.313a7.376 7.376 0 0 1 1.152 2.595c.206.918.238 1.822.096 2.717a6.825 6.825 0 0 1-.926 2.506 6.788 6.788 0 0 1-1.923 2.018c-.215.15-.472.325-.774.526a9.858 9.858 0 0 1-1.146.625l-6.235-9.042zM407.765 123a4.112 4.112 0 0 0 1.212 1.34 4.236 4.236 0 0 0 1.552.679c.55.116 1.123.123 1.716.024a5.148 5.148 0 0 0 1.71-.617 5.099 5.099 0 0 0 1.393-1.158 4.52 4.52 0 0 0 .839-1.488c.176-.532.239-1.09.188-1.675a4.059 4.059 0 0 0-.558-1.714 3.997 3.997 0 0 0-1.203-1.327 4.34 4.34 0 0 0-1.545-.664 4.318 4.318 0 0 0-1.708-.01 5.303 5.303 0 0 0-1.7.629 5.32 5.32 0 0 0-1.403 1.145c-.388.45-.673.943-.847 1.475a4.186 4.186 0 0 0-.195 1.66c.041.576.225 1.143.549 1.7zm14.235.745L409.324 131l-1.71-2.946 1.714-.98c-.864-.034-1.689-.312-2.473-.833-.787-.524-1.394-1.155-1.821-1.893-.555-.955-.885-1.93-.99-2.925a7.027 7.027 0 0 1 .271-2.874 7.7 7.7 0 0 1 1.355-2.54 7.818 7.818 0 0 1 2.282-1.935 7.951 7.951 0 0 1 2.818-.984 7.81 7.81 0 0 1 2.904.102 7.136 7.136 0 0 1 2.637 1.208c.814.59 1.498 1.362 2.05 2.319.428.738.674 1.577.733 2.513.061.938-.111 1.787-.516 2.548l1.715-.983 1.707 2.948zM441.711 157.126c.676-.21 1.321-.158 1.934.16a2.38 2.38 0 0 1 1.228 1.45 2.401 2.401 0 0 1-.161 1.913c-.321.607-.82 1.017-1.494 1.227a2.43 2.43 0 0 1-1.904-.17 2.423 2.423 0 0 1-1.237-1.48 2.355 2.355 0 0 1 .17-1.884 2.396 2.396 0 0 1 1.464-1.216zm-4.822 2.341l1.02 3.214L424.02 167l-1.02-3.216 13.889-4.317zM430.26 177.34c.154.667.418 1.246.79 1.733.374.486.81.87 1.309 1.156.499.283 1.05.462 1.654.536.601.072 1.21.03 1.825-.127a5.023 5.023 0 0 0 1.676-.772 4.71 4.71 0 0 0 1.235-1.276 4.63 4.63 0 0 0 .657-1.66 4.572 4.572 0 0 0-.053-1.921c-.155-.67-.418-1.243-.787-1.717a4.398 4.398 0 0 0-1.307-1.141 4.208 4.208 0 0 0-1.647-.518 5.131 5.131 0 0 0-1.822.14 5.249 5.249 0 0 0-1.68.757 4.465 4.465 0 0 0-1.239 1.26 4.664 4.664 0 0 0-.66 1.644c-.123.601-.106 1.238.049 1.905zm.356 4.637c-.827-.29-1.545-.822-2.157-1.59-.61-.769-1.018-1.594-1.224-2.478-.263-1.145-.305-2.24-.126-3.293a7.847 7.847 0 0 1 1.078-2.863 8.153 8.153 0 0 1 2.03-2.2 7.77 7.77 0 0 1 2.757-1.305 7.608 7.608 0 0 1 3.003-.17 7.543 7.543 0 0 1 2.779.967 7.325 7.325 0 0 1 2.208 2.02c.618.847 1.059 1.842 1.324 2.985.204.885.202 1.815-.005 2.794-.208.98-.617 1.798-1.223 2.456l9.125-2.34.815 3.526L429.494 186l-.813-3.528 1.935-.495zM444.25 193.71c-.168-1.107-.621-1.982-1.355-2.626-.736-.641-1.717-.866-2.942-.678l1.15 7.565c1.157-.18 2.015-.664 2.567-1.45.551-.788.745-1.722.58-2.81zm-6.91-2.899c-.53.127-1.02.303-1.47.53-.45.223-.828.522-1.134.892a3.28 3.28 0 0 0-.653 1.354c-.13.532-.138 1.166-.025 1.906.156 1.019.46 1.73.917 2.126.457.397.97.661 1.539.795l.545 3.586a5.279 5.279 0 0 1-1.96-.412 5.747 5.747 0 0 1-1.779-1.177 7.18 7.18 0 0 1-1.394-1.885c-.386-.74-.654-1.6-.802-2.578-.196-1.283-.158-2.428.105-3.436.266-1.01.705-1.886 1.32-2.626a7.127 7.127 0 0 1 2.299-1.807 10.065 10.065 0 0 1 3.023-.954c1.118-.173 2.187-.167 3.204.022 1.02.186 1.93.538 2.737 1.059.805.52 1.475 1.216 2.015 2.09.54.873.9 1.908 1.082 3.103a7.46 7.46 0 0 1-.098 2.834 7.12 7.12 0 0 1-1.093 2.474 6.781 6.781 0 0 1-1.917 1.833c-.763.483-1.628.8-2.595.95-.258.04-.564.083-.921.127a9.152 9.152 0 0 1-1.296.051l-1.65-10.857zM435.166 212.546c.043.691.214 1.314.51 1.863a4.447 4.447 0 0 0 2.703 2.217 5.143 5.143 0 0 0 1.863.209 5.174 5.174 0 0 0 1.82-.462 4.728 4.728 0 0 0 1.458-1.042 4.537 4.537 0 0 0 1.205-3.444c-.046-.693-.215-1.308-.51-1.848a4.525 4.525 0 0 0-1.125-1.366 4.38 4.38 0 0 0-1.577-.815 5.296 5.296 0 0 0-1.86-.19 5.308 5.308 0 0 0-1.822.443 4.413 4.413 0 0 0-1.457 1.024c-.406.43-.719.936-.942 1.51-.223.575-.31 1.21-.266 1.901zM448 219.961L432.953 221l-.236-3.647 2.036-.14c-.786-.438-1.422-1.096-1.912-1.97-.487-.873-.762-1.767-.821-2.682-.076-1.183.065-2.278.42-3.288a7.72 7.72 0 0 1 1.567-2.647 8.113 8.113 0 0 1 2.412-1.81 7.892 7.892 0 0 1 3-.796 7.927 7.927 0 0 1 3.056.376 7.952 7.952 0 0 1 2.64 1.465 7.585 7.585 0 0 1 1.89 2.406c.484.954.763 2.022.839 3.204.059.913-.1 1.837-.471 2.77-.373.934-.921 1.672-1.642 2.215l2.035-.141.234 3.646zM449.873 266.932c.714.132 1.272.49 1.674 1.07.401.581.535 1.214.405 1.9a2.478 2.478 0 0 1-1.083 1.653c-.587.397-1.24.527-1.955.395a2.485 2.485 0 0 1-1.643-1.066c-.402-.58-.534-1.223-.4-1.931a2.447 2.447 0 0 1 1.08-1.621 2.5 2.5 0 0 1 1.922-.4zm-5.52-.189l-.649 3.396-14.704-2.74.648-3.399 14.706 2.743zM429.49 278.597a4.216 4.216 0 0 0-.077 1.824c.111.583.32 1.11.628 1.581.31.474.712.881 1.203 1.229.492.344 1.04.597 1.645.753a4.982 4.982 0 0 0 1.799.144 4.455 4.455 0 0 0 1.638-.486 4.178 4.178 0 0 0 2.108-2.714 4.063 4.063 0 0 0 .072-1.806 4.362 4.362 0 0 0-.63-1.57 4.36 4.36 0 0 0-1.207-1.21 5.276 5.276 0 0 0-1.65-.74 5.265 5.265 0 0 0-1.796-.16 4.211 4.211 0 0 0-2.934 1.535c-.371.447-.638.988-.8 1.62zm-1.74 4.05c-.59-.634-.98-1.415-1.174-2.346-.193-.933-.182-1.815.03-2.652.275-1.081.724-2.018 1.344-2.815a7.107 7.107 0 0 1 2.205-1.89 7.738 7.738 0 0 1 2.737-.884 7.78 7.78 0 0 1 2.976.207 7.81 7.81 0 0 1 2.689 1.271 7.773 7.773 0 0 1 1.991 2.119 7.233 7.233 0 0 1 1.03 2.731c.163.999.107 2.04-.166 3.121-.214.837-.626 1.615-1.24 2.336-.612.722-1.33 1.215-2.147 1.48l8.975 2.34-.85 3.335-21.15-5.515.848-3.337 1.903.499zM433.022 300.28c.366-1.038.375-2.007.03-2.907-.35-.902-1.102-1.555-2.263-1.965l-2.499 7.086c1.1.388 2.074.372 2.922-.052.847-.423 1.45-1.145 1.81-2.161zm-4.708-5.743a6.558 6.558 0 0 0-1.534-.23 3.439 3.439 0 0 0-1.407.24c-.441.177-.84.465-1.199.866-.358.402-.659.947-.904 1.64-.336.957-.4 1.714-.183 2.272.218.554.543 1.026.98 1.41l-1.183 3.358a5.288 5.288 0 0 1-1.525-1.275 5.675 5.675 0 0 1-1.013-1.85 7.035 7.035 0 0 1-.346-2.285c.004-.824.166-1.693.49-2.61.423-1.201.984-2.176 1.684-2.927a6.601 6.601 0 0 1 2.369-1.655 7.05 7.05 0 0 1 2.851-.488c1.02.025 2.052.223 3.09.589 1.059.374 1.991.878 2.797 1.518a7.42 7.42 0 0 1 1.905 2.197c.464.828.729 1.746.799 2.755.068 1.008-.096 2.073-.49 3.192a7.208 7.208 0 0 1-1.398 2.41 6.904 6.904 0 0 1-2.102 1.628 6.624 6.624 0 0 1-2.53.693 6.663 6.663 0 0 1-2.712-.39 25.204 25.204 0 0 1-.865-.325 9.178 9.178 0 0 1-1.158-.561l3.584-10.172zM417.743 312.876a4.14 4.14 0 0 0-.397 1.79c.009.596.13 1.154.36 1.676.229.52.563.994 1 1.422.437.43.947.774 1.53 1.036a5.206 5.206 0 0 0 1.796.457 4.677 4.677 0 0 0 1.741-.192 4.377 4.377 0 0 0 1.507-.84c.457-.387.824-.879 1.098-1.476.272-.597.402-1.19.39-1.775a4.298 4.298 0 0 0-.367-1.66 4.36 4.36 0 0 0-1.007-1.411 5.46 5.46 0 0 0-1.535-1.02 5.554 5.554 0 0 0-1.788-.471 4.443 4.443 0 0 0-1.736.178 4.398 4.398 0 0 0-1.502.825 4.066 4.066 0 0 0-1.09 1.46zM425.59 325L412 318.899l1.441-3.15 1.836.827c-.486-.73-.746-1.572-.778-2.527-.032-.955.134-1.827.495-2.617.466-1.02 1.082-1.87 1.85-2.548a7.288 7.288 0 0 1 2.558-1.48 8.066 8.066 0 0 1 2.923-.395c1.01.046 2 .289 2.973.724a8.154 8.154 0 0 1 2.496 1.729 7.901 7.901 0 0 1 1.642 2.444 7.16 7.16 0 0 1 .564 2.883c-.01 1.017-.248 2.036-.715 3.058-.362.79-.913 1.487-1.658 2.094-.748.606-1.557.967-2.432 1.085l1.837.825-1.44 3.149zM409.945 361.111a2.645 2.645 0 0 1 1.025 1.791c.102.738-.058 1.401-.481 1.993-.435.61-1.008.97-1.71 1.076-.705.104-1.35-.071-1.93-.527-.568-.443-.9-1.033-1.001-1.77a2.72 2.72 0 0 1 .5-2.021c.425-.592.989-.941 1.694-1.048a2.389 2.389 0 0 1 1.903.506zm-4.87-2.725l-2.096 2.933L391 351.934l2.098-2.934 11.977 9.386zM386.095 361.92a4.293 4.293 0 0 0-.868 1.648 4.5 4.5 0 0 0-.125 1.748c.074.578.258 1.141.552 1.684a5.235 5.235 0 0 0 1.16 1.451c.48.422 1.002.74 1.571.955a4.375 4.375 0 0 0 1.699.301 4.126 4.126 0 0 0 1.658-.397c.54-.25 1.02-.632 1.445-1.14.423-.511.709-1.058.86-1.637a4.63 4.63 0 0 0 .113-1.736 4.608 4.608 0 0 0-.562-1.673 5.528 5.528 0 0 0-1.171-1.438 5.327 5.327 0 0 0-1.559-.968 4.21 4.21 0 0 0-1.69-.314 4.189 4.189 0 0 0-1.649.387c-.53.241-1.01.619-1.434 1.13zm-3.353 2.942c-.26-.856-.27-1.756-.039-2.704.235-.949.632-1.76 1.193-2.434.723-.873 1.54-1.534 2.455-1.983a6.97 6.97 0 0 1 2.828-.735c.971-.04 1.93.105 2.87.439a7.814 7.814 0 0 1 2.612 1.552c.78.69 1.408 1.49 1.88 2.405.471.913.762 1.87.876 2.868a7.578 7.578 0 0 1-.266 2.992c-.29 1-.795 1.932-1.518 2.806-.56.675-1.277 1.205-2.149 1.59-.872.384-1.739.512-2.598.38L398 378.31 395.767 381 379 366.222l2.234-2.69 1.508 1.33zM380.832 382.867c.792-.79 1.229-1.674 1.312-2.652.085-.982-.308-1.92-1.178-2.816l-5.394 5.38c.825.847 1.713 1.268 2.665 1.259.956-.008 1.82-.399 2.595-1.171zm-1.721-7.373a6.848 6.848 0 0 0-1.285-.897 3.45 3.45 0 0 0-1.382-.41 3.243 3.243 0 0 0-1.467.26c-.502.205-1.017.572-1.542 1.097-.73.725-1.119 1.395-1.172 2a3.681 3.681 0 0 0 .265 1.731l-2.556 2.55a5.396 5.396 0 0 1-.818-1.853 5.903 5.903 0 0 1-.1-2.149c.1-.747.332-1.495.7-2.25.367-.752.9-1.475 1.598-2.17.911-.913 1.852-1.555 2.815-1.93.965-.374 1.925-.526 2.877-.457.956.07 1.886.345 2.798.828a10.202 10.202 0 0 1 2.536 1.923 9.783 9.783 0 0 1 1.86 2.643c.448.945.698 1.902.752 2.867a6.694 6.694 0 0 1-.494 2.881c-.385.955-1.003 1.858-1.857 2.707a7.26 7.26 0 0 1-2.33 1.582 6.908 6.908 0 0 1-2.623.553 6.608 6.608 0 0 1-2.593-.5c-.835-.34-1.597-.864-2.284-1.57a31.999 31.999 0 0 1-.64-.683 9.252 9.252 0 0 1-.801-1.033l7.743-7.72zM361.501 387.131a4.052 4.052 0 0 0-1.1 1.393 4.201 4.201 0 0 0-.4 1.613c-.024.55.063 1.103.259 1.66.196.559.49 1.073.88 1.548.392.474.842.858 1.354 1.154.51.294 1.036.481 1.582.564a4.217 4.217 0 0 0 1.654-.098 4.027 4.027 0 0 0 1.569-.825 3.901 3.901 0 0 0 1.09-1.384 4.24 4.24 0 0 0 .39-1.603c.02-.55-.068-1.1-.273-1.65a5.251 5.251 0 0 0-.892-1.536 5.21 5.21 0 0 0-1.34-1.164 4.223 4.223 0 0 0-1.57-.572 4.18 4.18 0 0 0-1.644.085c-.55.138-1.07.41-1.559.815zM363.13 401L354 389.967l2.575-2.139 1.234 1.492c-.109-.84.024-1.683.4-2.529.376-.846.89-1.538 1.534-2.074.836-.692 1.726-1.176 2.674-1.442a6.945 6.945 0 0 1 2.832-.216c.94.123 1.835.419 2.686.885a7.74 7.74 0 0 1 2.256 1.882 7.785 7.785 0 0 1 1.417 2.557c.305.932.433 1.871.38 2.821a6.995 6.995 0 0 1-.735 2.748c-.44.885-1.076 1.674-1.91 2.366-.646.537-1.418.913-2.319 1.126-.898.216-1.75.19-2.554-.075l1.235 1.492L363.13 401zM325.738 431.271c.313.663.345 1.333.1 2.006a2.5 2.5 0 0 1-1.341 1.463c-.668.31-1.34.343-2.018.098-.677-.244-1.17-.698-1.483-1.361a2.478 2.478 0 0 1-.087-1.978c.246-.673.703-1.164 1.371-1.474a2.514 2.514 0 0 1 1.988-.087c.677.245 1.167.69 1.47 1.333zm-3.107-4.622l-3.21 1.493-6.421-13.65 3.212-1.492 6.419 13.65zM304.378 420.556a4.202 4.202 0 0 0-1.55 1.024 4.39 4.39 0 0 0-.928 1.478 4.725 4.725 0 0 0-.29 1.744 5.34 5.34 0 0 0 .366 1.837 5.28 5.28 0 0 0 .965 1.6 4.7 4.7 0 0 0 1.386 1.09c.513.258 1.072.41 1.673.452.602.04 1.212-.06 1.831-.302.617-.244 1.13-.582 1.534-1.02.405-.438.71-.928.915-1.471a4.507 4.507 0 0 0 .273-1.74 5.51 5.51 0 0 0-.38-1.829 5.581 5.581 0 0 0-.949-1.609 4.446 4.446 0 0 0-1.371-1.093 4.3 4.3 0 0 0-1.659-.458 4.063 4.063 0 0 0-1.816.297zm-4.383.958c.167-.876.576-1.674 1.227-2.393.653-.719 1.387-1.238 2.206-1.56 1.057-.416 2.099-.6 3.128-.554a7.264 7.264 0 0 1 2.882.726 8.023 8.023 0 0 1 2.376 1.776 8.144 8.144 0 0 1 1.617 2.629 8.26 8.26 0 0 1 .569 3.025 8.079 8.079 0 0 1-.551 2.941 7.36 7.36 0 0 1-1.634 2.5c-.726.738-1.617 1.313-2.673 1.728-.819.32-1.709.44-2.672.356-.963-.086-1.799-.394-2.51-.926l3.463 8.956-3.26 1.282L296 420.895l3.26-1.28.735 1.899zM289.031 436.1c1.054-.312 1.846-.873 2.372-1.686.528-.813.62-1.812.275-3l-7.196 2.125c.327 1.126.908 1.91 1.745 2.354.835.443 1.77.512 2.804.206zm1.909-7.219a6.787 6.787 0 0 0-.706-1.388 3.462 3.462 0 0 0-1.016-1.007 3.187 3.187 0 0 0-1.4-.469c-.534-.06-1.15.017-1.853.225-.973.288-1.62.682-1.946 1.186a3.571 3.571 0 0 0-.57 1.629l-3.413 1.008a5.405 5.405 0 0 1 .144-1.996c.176-.674.478-1.311.909-1.914a7.119 7.119 0 0 1 1.65-1.626c.667-.48 1.466-.858 2.398-1.133 1.221-.36 2.338-.474 3.35-.344 1.017.129 1.923.45 2.722.961.801.51 1.487 1.19 2.058 2.04.574.85 1.014 1.806 1.323 2.87.314 1.084.449 2.144.4 3.175a7.511 7.511 0 0 1-.671 2.846 6.433 6.433 0 0 1-1.765 2.27c-.777.65-1.733 1.141-2.87 1.478a7.14 7.14 0 0 1-2.768.273 6.86 6.86 0 0 1-2.544-.758 6.655 6.655 0 0 1-2.03-1.659c-.571-.691-.993-1.506-1.266-2.444-.074-.25-.154-.548-.242-.896a9.17 9.17 0 0 1-.22-1.276l10.326-3.05zM270.25 431.294a4.114 4.114 0 0 0-1.689.743 4.352 4.352 0 0 0-1.158 1.297c-.29.5-.485 1.06-.58 1.675a5.454 5.454 0 0 0 .046 1.878c.125.636.348 1.219.67 1.749.321.53.71.968 1.17 1.318.46.346.98.593 1.56.74a4.1 4.1 0 0 0 1.84.021c.646-.133 1.204-.379 1.675-.743.47-.36.851-.792 1.144-1.291.29-.503.478-1.059.563-1.672a5.68 5.68 0 0 0-.06-1.875 5.665 5.665 0 0 0-.656-1.753 4.449 4.449 0 0 0-1.156-1.32 4.292 4.292 0 0 0-1.544-.743c-.57-.148-1.179-.155-1.825-.024zM264.926 445L262 430.169l3.406-.698.395 2.005c.312-.836.848-1.554 1.608-2.151.76-.595 1.566-.983 2.422-1.156 1.102-.225 2.152-.225 3.15 0a7.17 7.17 0 0 1 2.695 1.22c.8.587 1.472 1.308 2.022 2.169a8.283 8.283 0 0 1 1.137 2.878 8.36 8.36 0 0 1 .04 3.089 8.16 8.16 0 0 1-1.039 2.811 7.32 7.32 0 0 1-2.021 2.186c-.836.602-1.805 1.014-2.91 1.24-.853.176-1.743.136-2.67-.115-.929-.252-1.695-.701-2.299-1.35l.395 2.005-3.405.698zM218.1 447.074l-3.848-.19.9-14.884 3.848.19-.9 14.884zm.59 5.475c-.044.723-.358 1.322-.941 1.796-.584.471-1.263.688-2.041.65-.798-.038-1.46-.323-1.984-.85-.523-.526-.762-1.154-.719-1.877.043-.704.357-1.292.94-1.763.584-.474 1.274-.691 2.073-.652.778.039 1.428.322 1.953.85.52.527.76 1.144.719 1.846zM203.497 433.696a4.37 4.37 0 0 0-1.895.17 4.452 4.452 0 0 0-1.551.863 4.708 4.708 0 0 0-1.1 1.409 5.174 5.174 0 0 0-.55 1.8 5.19 5.19 0 0 0 .102 1.876c.148.607.392 1.146.733 1.625a4.42 4.42 0 0 0 1.298 1.2c.524.325 1.124.525 1.8.606.678.08 1.304.024 1.883-.171a4.543 4.543 0 0 0 1.53-.865 4.465 4.465 0 0 0 1.085-1.41c.28-.557.456-1.158.535-1.802a5.401 5.401 0 0 0-.088-1.877 4.412 4.412 0 0 0-.714-1.62 4.48 4.48 0 0 0-1.28-1.2c-.517-.322-1.112-.523-1.788-.604zm-4.43-1.242c.573-.696 1.326-1.207 2.26-1.532.938-.326 1.853-.437 2.747-.332 1.157.137 2.19.473 3.099 1.005a7.433 7.433 0 0 1 2.26 2.018 8 8 0 0 1 1.298 2.706c.267.99.335 2.023.205 3.1a8.182 8.182 0 0 1-.941 2.947 8.015 8.015 0 0 1-1.912 2.343 7.493 7.493 0 0 1-2.681 1.433c-1.011.305-2.095.39-3.25.254-.896-.104-1.757-.426-2.589-.96-.833-.534-1.443-1.207-1.829-2.016l-1.167 9.58-3.567-.422L195.747 430l3.567.422-.247 2.032zM183.355 440.213c1.097.225 2.076.106 2.934-.36.861-.463 1.42-1.3 1.677-2.508l-7.477-1.54c-.244 1.144-.095 2.11.446 2.895.54.787 1.346 1.29 2.42 1.513zm5.154-5.446a6.833 6.833 0 0 0 .026-1.554 3.394 3.394 0 0 0-.433-1.367c-.236-.413-.582-.772-1.034-1.076-.452-.303-1.043-.528-1.772-.68-1.01-.21-1.782-.168-2.314.12-.532.29-.96.676-1.288 1.163l-3.547-.73a5.287 5.287 0 0 1 1.081-1.687 5.8 5.8 0 0 1 1.727-1.254 7.34 7.34 0 0 1 2.257-.646c.829-.107 1.727-.06 2.696.139 1.268.263 2.325.69 3.176 1.285.849.595 1.51 1.308 1.986 2.135a6.97 6.97 0 0 1 .876 2.771 9.975 9.975 0 0 1-.177 3.148c-.234 1.103-.616 2.098-1.152 2.982a7.48 7.48 0 0 1-1.961 2.186c-.768.572-1.66.957-2.667 1.16-1.004.203-2.1.181-3.282-.06a7.44 7.44 0 0 1-2.615-1.071 6.975 6.975 0 0 1-1.924-1.874 6.628 6.628 0 0 1-1.036-2.42c-.185-.88-.175-1.795.026-2.751.055-.253.124-.555.208-.903.084-.346.224-.754.41-1.226l10.733 2.21zM169.344 427.07a4.252 4.252 0 0 0-1.885-.159 4.373 4.373 0 0 0-1.665.602 4.724 4.724 0 0 0-1.323 1.226 5.447 5.447 0 0 0-.852 1.72 5.495 5.495 0 0 0-.225 1.908c.04.64.183 1.225.435 1.766.249.539.604 1.017 1.062 1.436.459.416 1.01.724 1.658.923.648.196 1.272.248 1.87.154a4.424 4.424 0 0 0 2.958-1.84 5.673 5.673 0 0 0 .835-1.722c.19-.637.271-1.272.24-1.904a4.663 4.663 0 0 0-.417-1.761 4.563 4.563 0 0 0-1.048-1.43 4.156 4.156 0 0 0-1.643-.919zM158 436.828L162.402 422l3.417 1.043-.595 2.005c.68-.602 1.507-.986 2.48-1.152.972-.166 1.888-.116 2.745.144 1.108.34 2.06.857 2.858 1.551a7.53 7.53 0 0 1 1.862 2.426c.444.924.713 1.908.802 2.95a8.52 8.52 0 0 1-.34 3.16 8.475 8.475 0 0 1-1.432 2.81 8.167 8.167 0 0 1-2.278 2.028c-.872.52-1.83.845-2.874.98-1.04.131-2.116.028-3.226-.308-.855-.264-1.647-.737-2.366-1.42-.722-.683-1.2-1.466-1.44-2.347l-.596 2.005-3.419-1.047zM115.062 416.63l-3.04-1.829 7.94-12.801 3.038 1.831-7.938 12.8zm-2.173 5.105a2.55 2.55 0 0 1-1.635 1.187 2.549 2.549 0 0 1-1.975-.304c-.631-.379-1.032-.917-1.203-1.611a2.5 2.5 0 0 1 .325-1.973c.376-.604.915-.99 1.619-1.159a2.593 2.593 0 0 1 2.002.32 2.49 2.49 0 0 1 1.176 1.596 2.443 2.443 0 0 1-.309 1.944zM108.813 397.669a4.24 4.24 0 0 0-1.701-.716 4.384 4.384 0 0 0-1.73.035 4.618 4.618 0 0 0-1.6.704c-.507.34-.945.77-1.313 1.284a5.108 5.108 0 0 0-.79 1.648 4.48 4.48 0 0 0-.134 1.72c.068.56.251 1.098.55 1.613.297.514.716.958 1.258 1.331.54.376 1.104.612 1.687.709a4.46 4.46 0 0 0 1.718-.046 4.464 4.464 0 0 0 1.585-.71 5.4 5.4 0 0 0 1.301-1.295 5.378 5.378 0 0 0 .803-1.64 4.22 4.22 0 0 0 .145-1.708 4.263 4.263 0 0 0-.535-1.605c-.288-.507-.703-.95-1.244-1.324zm-3.209-3.069c.814-.334 1.698-.428 2.652-.283.952.147 1.787.469 2.504.964.923.64 1.65 1.394 2.178 2.26.528.868.86 1.781.991 2.747.132.964.08 1.931-.155 2.895a7.895 7.895 0 0 1-1.277 2.74 8.032 8.032 0 0 1-2.182 2.089 8.028 8.028 0 0 1-2.73 1.134 7.417 7.417 0 0 1-2.965.007c-1.009-.198-1.975-.616-2.9-1.257-.716-.496-1.305-1.16-1.765-1.994-.461-.833-.67-1.683-.622-2.549L93.854 411 91 409.023 103.912 391l2.854 1.977-1.162 1.623zM87.482 394.14c.864.712 1.794 1.062 2.785 1.057.99-.008 1.892-.484 2.707-1.428l-5.908-4.852c-.77.897-1.105 1.815-1.007 2.76.1.945.574 1.766 1.423 2.462zm7.225-2.385c.324-.442.582-.893.776-1.355.198-.463.289-.933.278-1.409-.01-.473-.143-.95-.398-1.429-.255-.478-.67-.955-1.247-1.43-.798-.652-1.504-.977-2.118-.972a3.688 3.688 0 0 0-1.707.42l-2.802-2.3a5.503 5.503 0 0 1 1.78-.98 6.013 6.013 0 0 1 2.145-.296c.758.03 1.53.192 2.321.486.79.294 1.565.756 2.33 1.384 1.002.823 1.734 1.692 2.201 2.614.468.92.712 1.857.732 2.808.022.951-.164 1.9-.562 2.85a10.08 10.08 0 0 1-1.685 2.688c-.745.86-1.567 1.557-2.473 2.087a7.821 7.821 0 0 1-2.803 1.01 6.784 6.784 0 0 1-2.936-.226c-.993-.295-1.955-.823-2.889-1.59a7.325 7.325 0 0 1-1.81-2.164 6.875 6.875 0 0 1-.803-2.55 6.54 6.54 0 0 1 .252-2.614c.264-.859.715-1.662 1.358-2.409.172-.196.379-.43.623-.696.245-.267.563-.563.959-.888l8.478 6.961zM81.605 375.192a4 4 0 0 0-1.485-.962 4.093 4.093 0 0 0-1.635-.25 4.433 4.433 0 0 0-1.624.412 5.013 5.013 0 0 0-1.453 1.02 4.952 4.952 0 0 0-1.016 1.45 4.417 4.417 0 0 0-.412 1.628 4.124 4.124 0 0 0 .25 1.634c.195.543.518 1.037.964 1.486.45.446.94.764 1.476.952a4.223 4.223 0 0 0 1.624.238 4.273 4.273 0 0 0 1.614-.424 5.24 5.24 0 0 0 1.44-1.03 5.213 5.213 0 0 0 1.028-1.44 4.178 4.178 0 0 0 .422-1.616 4.209 4.209 0 0 0-.238-1.625 3.936 3.936 0 0 0-.955-1.473zM68 378.102L78.093 368l2.363 2.361-1.365 1.365c.823-.187 1.673-.132 2.546.164.873.294 1.607.739 2.2 1.331.766.764 1.326 1.605 1.68 2.523.354.916.514 1.848.478 2.795a7.618 7.618 0 0 1-.628 2.75 7.746 7.746 0 0 1-1.656 2.418 7.769 7.769 0 0 1-5.167 2.288 6.96 6.96 0 0 1-2.795-.477c-.918-.354-1.76-.912-2.525-1.678-.592-.592-1.036-1.324-1.334-2.198-.296-.875-.35-1.722-.164-2.546l-1.363 1.367L68 378.1zM39.162 339.996l-1.767-3.127L50.231 329 52 332.126l-12.838 7.87zm-4.262 3.616c-.625.383-1.28.483-1.966.298-.685-.185-1.207-.594-1.564-1.225a2.711 2.711 0 0 1-.284-2.046 2.597 2.597 0 0 1 1.204-1.646 2.377 2.377 0 0 1 1.937-.28c.686.184 1.211.604 1.579 1.253.359.63.446 1.304.27 2.018-.178.714-.572 1.258-1.176 1.628zM42.269 321.149a4.179 4.179 0 0 0-1.163-1.42 4.41 4.41 0 0 0-1.553-.77 4.758 4.758 0 0 0-1.755-.12 5.349 5.349 0 0 0-1.786.524 5.272 5.272 0 0 0-1.494 1.09c-.42.44-.737.927-.947 1.453a4.141 4.141 0 0 0-.29 1.676c.015.591.174 1.177.473 1.758.299.582.685 1.049 1.157 1.404.471.355.985.609 1.543.757a4.537 4.537 0 0 0 1.751.107 5.638 5.638 0 0 0 1.777-.539 5.515 5.515 0 0 0 1.501-1.074c.426-.435.745-.914.954-1.44.21-.527.31-1.08.297-1.662-.01-.581-.166-1.163-.465-1.744zm-1.367-4.19c.884.08 1.712.407 2.487.977.776.57 1.362 1.24 1.755 2.008.514.993.795 1.994.847 3.003a7.026 7.026 0 0 1-.446 2.88 7.81 7.81 0 0 1-1.533 2.484 8.1 8.1 0 0 1-2.452 1.823c-.939.461-1.921.74-2.943.83a8.136 8.136 0 0 1-2.967-.265 7.376 7.376 0 0 1-2.633-1.365c-.798-.641-1.453-1.457-1.967-2.452-.395-.768-.597-1.626-.605-2.574-.007-.948.219-1.795.679-2.538l-8.546 4.208L21 322.912 41.134 313l1.58 3.064-1.812.894zM25.055 308.508c.413 1.006 1.047 1.733 1.907 2.175.858.443 1.863.44 3.013-.01l-2.805-6.87c-1.09.427-1.814 1.07-2.177 1.934-.36.86-.34 1.785.062 2.771zm7.372 1.207c.489-.238.927-.51 1.314-.822.388-.312.69-.677.906-1.093.215-.416.328-.887.333-1.417.005-.53-.129-1.13-.402-1.801-.378-.926-.833-1.527-1.367-1.8a3.633 3.633 0 0 0-1.677-.41l-1.33-3.256a5.412 5.412 0 0 1 2.002-.044 5.812 5.812 0 0 1 1.994.714 7.112 7.112 0 0 1 1.774 1.47c.543.613.996 1.362 1.358 2.251.477 1.164.697 2.25.665 3.259-.033 1.007-.265 1.928-.697 2.76-.433.833-1.043 1.57-1.835 2.211a10.185 10.185 0 0 1-2.732 1.564c-1.049.41-2.09.64-3.122.689-1.034.05-2-.083-2.9-.395-.9-.314-1.709-.82-2.43-1.523-.718-.703-1.301-1.598-1.745-2.683A6.984 6.984 0 0 1 22 306.7a6.577 6.577 0 0 1 1.968-4.72c.636-.623 1.407-1.114 2.315-1.47.242-.094.532-.202.867-.32.339-.12.755-.232 1.251-.335l4.026 9.86zM29.491 287.55a4.27 4.27 0 0 0-.924-1.658 4.526 4.526 0 0 0-1.435-1.06 4.84 4.84 0 0 0-1.764-.432 5.416 5.416 0 0 0-1.91.226 5.406 5.406 0 0 0-1.715.851c-.512.38-.918.823-1.228 1.323a4.392 4.392 0 0 0-.6 1.668c-.09.61-.037 1.239.16 1.885.2.648.507 1.196.92 1.643.415.446.892.796 1.432 1.047a4.65 4.65 0 0 0 1.758.417 5.719 5.719 0 0 0 1.905-.242c.636-.19 1.21-.47 1.722-.84a4.535 4.535 0 0 0 1.23-1.304c.309-.504.51-1.056.604-1.653.096-.599.043-1.223-.155-1.87zM15 283.413L29.824 279l1.044 3.42-2.002.595c.884.24 1.664.719 2.35 1.44.682.718 1.157 1.508 1.417 2.367.341 1.107.443 2.182.312 3.225a7.354 7.354 0 0 1-.977 2.874 8.132 8.132 0 0 1-2.01 2.275 8.37 8.37 0 0 1-2.822 1.44 8.515 8.515 0 0 1-3.143.336 8.298 8.298 0 0 1-2.966-.793 7.567 7.567 0 0 1-2.426-1.86c-.696-.8-1.214-1.75-1.552-2.86-.262-.855-.312-1.77-.146-2.744.164-.974.548-1.8 1.148-2.48l-2.003.595L15 283.413z"/>
    <g transform="translate(0 233)">

      <path fill="#1D1D1B" d="M8.055 4.3L7.925.938l14.83-.545.13 3.362-14.83.545zM2.677 5.3c-.72.028-1.341-.192-1.858-.658a2.346 2.346 0 0 1-.817-1.714c-.027-.698.2-1.3.68-1.8C1.16.626 1.76.362 2.481.335c.7-.024 1.31.195 1.826.66.518.464.79 1.047.82 1.745a2.34 2.34 0 0 1-.682 1.77c-.48.501-1.07.764-1.77.791z" mask="url(#b)"/>
    </g>
    <path fill="#1D1D1B" d="M19.854 222.344a4.088 4.088 0 0 0-.34-1.802 4.324 4.324 0 0 0-1.004-1.408 4.693 4.693 0 0 0-1.503-.927 5.388 5.388 0 0 0-1.843-.366 5.386 5.386 0 0 0-1.859.272c-.59.198-1.106.48-1.55.85a4.29 4.29 0 0 0-1.075 1.355 4.08 4.08 0 0 0-.437 1.781 4.003 4.003 0 0 0 .341 1.789 4.365 4.365 0 0 0 2.507 2.303c.579.215 1.193.33 1.842.347.65.016 1.27-.068 1.86-.255a4.493 4.493 0 0 0 1.55-.833c.441-.37.8-.816 1.075-1.338a4.006 4.006 0 0 0 .436-1.768zm.83-4.363c.746.487 1.323 1.162 1.735 2.03.408.868.603 1.735.58 2.603-.03 1.122-.268 2.141-.714 3.064a7.273 7.273 0 0 1-1.8 2.35 8.153 8.153 0 0 1-2.576 1.491 8.348 8.348 0 0 1-3.066.478 8.373 8.373 0 0 1-3.023-.633 8.078 8.078 0 0 1-2.508-1.617 7.23 7.23 0 0 1-1.673-2.441c-.397-.942-.581-1.972-.55-3.096.021-.866.261-1.725.716-2.57.457-.846 1.068-1.492 1.839-1.938L0 217.457.092 214l22.731.575-.092 3.459-2.046-.053zM11.706 202.818c-.122 1.124.088 2.099.633 2.92.541.82 1.43 1.301 2.66 1.442l.84-7.673c-1.165-.133-2.117.11-2.85.73-.735.618-1.162 1.48-1.283 2.581zm5.917 4.661a6.755 6.755 0 0 0 1.553-.124c.492-.102.934-.29 1.325-.57.39-.278.717-.66.977-1.144.26-.482.433-1.098.514-1.85.114-1.036.002-1.807-.336-2.315a3.593 3.593 0 0 0-1.28-1.183l.398-3.639a5.315 5.315 0 0 1 1.783.923c.556.43 1.026.97 1.412 1.62.39.646.675 1.38.858 2.205.185.826.22 1.734.112 2.725-.143 1.302-.47 2.41-.986 3.32-.516.914-1.164 1.65-1.946 2.206a6.979 6.979 0 0 1-2.683 1.15 9.873 9.873 0 0 1-3.16.126c-1.122-.13-2.152-.418-3.086-.87a7.512 7.512 0 0 1-2.364-1.76c-.643-.722-1.112-1.58-1.407-2.573-.296-.994-.378-2.098-.246-3.309.11-.993.384-1.904.824-2.736a7.098 7.098 0 0 1 1.692-2.117 6.626 6.626 0 0 1 2.319-1.276c.862-.272 1.776-.351 2.748-.238.258.027.564.07.92.12.356.053.776.15 1.264.294l-1.205 11.015zM23.72 187.102a4.134 4.134 0 0 0-.023-1.842 4.26 4.26 0 0 0-.741-1.56 4.651 4.651 0 0 0-1.317-1.168 5.37 5.37 0 0 0-1.752-.67 5.411 5.411 0 0 0-1.878-.042 4.698 4.698 0 0 0-1.676.58c-.5.293-.933.679-1.295 1.159a4.156 4.156 0 0 0-.744 1.69 4.008 4.008 0 0 0 .026 1.826c.15.572.398 1.087.745 1.544.35.459.79.843 1.322 1.155.53.31 1.117.527 1.754.653a5.624 5.624 0 0 0 1.874.058 4.496 4.496 0 0 0 1.673-.564 4.417 4.417 0 0 0 1.293-1.144c.36-.47.608-1.029.74-1.675zM13.163 177L28 179.913l-.695 3.407-2.006-.394c.65.604 1.1 1.37 1.353 2.297.255.928.293 1.818.118 2.672-.226 1.105-.637 2.075-1.238 2.91a7.345 7.345 0 0 1-2.185 2.025 8.17 8.17 0 0 1-2.796 1.043 8.336 8.336 0 0 1-3.105-.04 8.308 8.308 0 0 1-2.865-1.132 7.97 7.97 0 0 1-2.188-2.02 7.193 7.193 0 0 1-1.221-2.698c-.228-.996-.23-2.046-.004-3.151.175-.856.561-1.663 1.156-2.423.598-.761 1.314-1.298 2.15-1.61l-2.005-.392.693-3.407zM29.521 131.5l1.485-3.113L44 134.886 42.516 138l-12.995-6.5zm-5.095-1.63a2.47 2.47 0 0 1-1.282-1.472 2.495 2.495 0 0 1 .114-1.94c.308-.648.787-1.086 1.437-1.316a2.385 2.385 0 0 1 1.923.133c.615.305 1.033.792 1.257 1.458.224.667.179 1.322-.128 1.97a2.416 2.416 0 0 1-1.424 1.285 2.345 2.345 0 0 1-1.897-.118zM46.768 124.5c.326-.57.51-1.152.558-1.747a4.269 4.269 0 0 0-.195-1.703 4.623 4.623 0 0 0-.854-1.512 5.198 5.198 0 0 0-1.412-1.174 5.218 5.218 0 0 0-1.73-.623c-.599-.1-1.179-.09-1.734.032a4.306 4.306 0 0 0-1.568.693 4.172 4.172 0 0 0-1.22 1.367c-.326.571-.51 1.148-.552 1.734a4.318 4.318 0 0 0 .205 1.69c.178.54.464 1.04.86 1.498.397.457.87.843 1.421 1.16.55.315 1.123.528 1.72.636a4.32 4.32 0 0 0 3.288-.697c.483-.333.886-.785 1.213-1.354zm2.78-3.457c.412.774.587 1.636.53 2.59-.058.955-.303 1.807-.733 2.561-.557.974-1.246 1.762-2.066 2.366a7.19 7.19 0 0 1-2.664 1.238 7.914 7.914 0 0 1-2.92.12 7.972 7.972 0 0 1-2.865-1 8 8 0 0 1-2.3-1.956 7.879 7.879 0 0 1-1.392-2.588 7.257 7.257 0 0 1-.284-2.924c.106-1.012.436-2.005.993-2.98.43-.754 1.042-1.397 1.835-1.932.792-.53 1.626-.818 2.5-.853L32 111.004 33.717 108 53 119.032l-1.715 3.005-1.737-.994zM48.583 103.86c-.628.938-.892 1.903-.795 2.898.097.995.651 1.854 1.663 2.579l4.277-6.397c-.957-.687-1.9-.935-2.83-.745-.927.192-1.701.747-2.315 1.666zm3.025 7.023c.468.281.942.497 1.419.648.475.153.95.202 1.421.142.472-.056.933-.235 1.383-.537.451-.301.889-.765 1.306-1.39.576-.864.835-1.604.774-2.219a3.804 3.804 0 0 0-.574-1.676l2.028-3.032a5.48 5.48 0 0 1 1.136 1.692c.284.652.448 1.36.49 2.124a7.545 7.545 0 0 1-.27 2.377c-.222.82-.609 1.644-1.16 2.473-.727 1.084-1.526 1.904-2.397 2.463-.873.557-1.78.894-2.723 1.006-.943.114-1.902.017-2.88-.29a9.89 9.89 0 0 1-2.823-1.433 9.667 9.667 0 0 1-2.296-2.28 7.806 7.806 0 0 1-1.258-2.716c-.23-.952-.243-1.941-.044-2.968.198-1.026.637-2.045 1.314-3.055a7.375 7.375 0 0 1 1.985-2.025 6.835 6.835 0 0 1 2.457-1.053 6.424 6.424 0 0 1 2.618.002c.88.18 1.717.557 2.516 1.129.213.153.465.339.75.557.287.22.61.514.969.88l-6.14 9.181zM67.143 94.299c.403-.49.679-1.013.822-1.572a4.118 4.118 0 0 0 .096-1.654 4.398 4.398 0 0 0-.564-1.581 4.942 4.942 0 0 0-1.155-1.352 4.985 4.985 0 0 0-1.546-.88 4.429 4.429 0 0 0-1.663-.258 4.193 4.193 0 0 0-1.611.401 4.022 4.022 0 0 0-1.391 1.103c-.407.488-.678 1.006-.815 1.559a4.196 4.196 0 0 0-.086 1.64c.08.548.272 1.07.575 1.57.302.504.69.95 1.165 1.343.473.39.986.689 1.536.89.55.203 1.102.293 1.652.27a4.237 4.237 0 0 0 1.601-.39 3.96 3.96 0 0 0 1.384-1.09zM62.96 81L74 90.121 71.862 92.7l-1.491-1.233c.265.804.29 1.656.077 2.555-.214.898-.59 1.67-1.126 2.317-.692.837-1.48 1.473-2.363 1.912-.884.44-1.8.685-2.75.738a7.733 7.733 0 0 1-5.377-1.794 7.75 7.75 0 0 1-1.872-2.244 7.585 7.585 0 0 1-.9-2.694 6.886 6.886 0 0 1 .214-2.832c.267-.948.747-1.84 1.44-2.676.536-.646 1.226-1.158 2.072-1.534.846-.379 1.69-.512 2.529-.401l-1.492-1.235L62.96 81zM91.706 54.671l2.832-2.071L104 63.929 101.17 66l-9.464-11.329zm-4.128-3.638c-.46-.55-.645-1.166-.557-1.845.088-.68.42-1.228.99-1.646a2.708 2.708 0 0 1 1.972-.522c.723.084 1.317.4 1.777.952.446.533.626 1.142.536 1.82-.088.68-.427 1.234-1.015 1.664-.571.419-1.22.587-1.945.503-.723-.083-1.311-.393-1.758-.926zM110.213 55.924c.53-.375.94-.826 1.235-1.349.295-.524.479-1.072.553-1.647a4.868 4.868 0 0 0-.105-1.765 5.383 5.383 0 0 0-.737-1.707 5.226 5.226 0 0 0-1.248-1.34 4.378 4.378 0 0 0-1.532-.744 3.978 3.978 0 0 0-1.669-.062 3.978 3.978 0 0 0-1.651.71 4.043 4.043 0 0 0-1.221 1.34 4.568 4.568 0 0 0-.541 1.64 4.63 4.63 0 0 0 .117 1.754 5.63 5.63 0 0 0 .75 1.697c.349.534.76.985 1.235 1.35.475.364.983.616 1.52.754.54.136 1.091.16 1.656.07s1.111-.323 1.638-.7zM114.12 54c.033.89-.178 1.758-.637 2.608-.456.848-1.033 1.521-1.73 2.019-.905.643-1.843 1.06-2.818 1.245a6.69 6.69 0 0 1-2.859-.052 7.53 7.53 0 0 1-2.61-1.191 7.998 7.998 0 0 1-2.084-2.192 8.34 8.34 0 0 1-1.182-2.816 8.32 8.32 0 0 1-.115-2.99 7.53 7.53 0 0 1 .996-2.805c.52-.88 1.233-1.643 2.136-2.286.697-.5 1.508-.816 2.43-.952.92-.137 1.772-.026 2.553.33l-5.173-7.932L105.809 35 118 53.695l-2.782 1.985L114.12 54zM121.22 37.342c-.99.544-1.66 1.274-2.001 2.187-.344.914-.205 1.912.418 2.992l6.76-3.717c-.59-1.025-1.357-1.656-2.302-1.9-.948-.243-1.906-.096-2.876.438zm-.253 7.485c.312.454.657.853 1.032 1.194a3.6 3.6 0 0 0 1.26.752c.46.157.967.205 1.517.137.552-.065 1.156-.279 1.819-.642.912-.5 1.474-1.034 1.684-1.602.21-.565.277-1.14.197-1.72l3.206-1.763c.23.623.334 1.283.316 1.982a5.607 5.607 0 0 1-.472 2.078 7.092 7.092 0 0 1-1.287 1.963c-.561.619-1.28 1.172-2.153 1.653-1.146.63-2.245.997-3.299 1.102-1.053.105-2.041-.002-2.964-.32a7.288 7.288 0 0 1-2.547-1.522 10.167 10.167 0 0 1-1.996-2.499c-.57-.987-.95-1.99-1.139-3.01a7.318 7.318 0 0 1 .015-2.935c.202-.934.62-1.807 1.254-2.618.631-.811 1.482-1.51 2.55-2.096a7.61 7.61 0 0 1 2.725-.9 7.298 7.298 0 0 1 2.741.162 6.9 6.9 0 0 1 2.43 1.155c.737.545 1.35 1.245 1.842 2.098.132.227.283.501.454.819.169.319.341.718.516 1.197l-9.701 5.335zM141.75 38.378a4.182 4.182 0 0 0 1.474-1.098c.387-.458.666-.962.837-1.51.17-.546.234-1.128.192-1.74a5.181 5.181 0 0 0-.46-1.794 5.172 5.172 0 0 0-1.036-1.528 4.551 4.551 0 0 0-1.424-1.002 4.283 4.283 0 0 0-1.676-.355 4.14 4.14 0 0 0-1.79.396c-.597.276-1.083.639-1.46 1.092-.377.456-.65.956-.823 1.502-.171.55-.231 1.126-.178 1.736.054.608.213 1.204.474 1.788a5.478 5.478 0 0 0 1.022 1.535c.42.44.89.777 1.412 1.006a4.31 4.31 0 0 0 1.66.363c.587.013 1.179-.119 1.776-.391zM143.886 24L150 37.585l-3.148 1.442-.828-1.835c-.118.875-.48 1.684-1.082 2.43-.606.746-1.304 1.301-2.094 1.662-1.02.468-2.039.707-3.056.716a7.127 7.127 0 0 1-2.883-.559 7.881 7.881 0 0 1-2.439-1.626c-.72-.7-1.3-1.537-1.738-2.51a8.134 8.134 0 0 1-.72-2.956 8.001 8.001 0 0 1 .384-2.937 7.283 7.283 0 0 1 1.478-2.558c.677-.768 1.525-1.387 2.547-1.853.79-.363 1.662-.527 2.617-.498.954.034 1.796.29 2.527.777l-.828-1.836 3.15-1.444zM188.612 10.27l3.11-.59L194 24.41l-3.111.59-2.277-14.73zm-1.574-5.234c-.11-.716.019-1.364.39-1.943.37-.581.87-.932 1.497-1.05.647-.125 1.232.022 1.755.431.524.41.842.975.952 1.69a2.68 2.68 0 0 1-.394 1.913c-.372.582-.88.932-1.525 1.055-.628.119-1.204-.025-1.728-.437-.523-.41-.838-.964-.947-1.659zM205.6 20.786a4.377 4.377 0 0 0 3.132-1.768c.346-.47.6-1.013.757-1.618.156-.606.2-1.235.132-1.882a5.268 5.268 0 0 0-.524-1.815 4.692 4.692 0 0 0-1.082-1.43 4.457 4.457 0 0 0-1.537-.889 4.382 4.382 0 0 0-1.896-.2c-.678.071-1.278.265-1.797.582-.519.316-.953.71-1.302 1.183a4.47 4.47 0 0 0-.74 1.618 5.452 5.452 0 0 0-.116 1.88c.068.65.237 1.256.506 1.816a4.478 4.478 0 0 0 2.587 2.324c.574.203 1.202.268 1.88.2zm4.606.245c-.401.806-1.023 1.47-1.863 1.994-.842.524-1.71.834-2.607.926-1.161.12-2.243.02-3.25-.302a7.493 7.493 0 0 1-2.662-1.479 8.138 8.138 0 0 1-2.776-5.351 8.145 8.145 0 0 1 .255-3.093 8.028 8.028 0 0 1 1.336-2.713 7.48 7.48 0 0 1 2.296-1.99c.917-.521 1.955-.842 3.116-.961.898-.095 1.813.029 2.745.371.931.34 1.677.864 2.24 1.57L208.015.372l3.58-.371L214 22.705l-3.577.37-.217-2.044zM224.037 8.682c-1.068.022-1.954.354-2.656 1-.7.646-1.037 1.59-1.016 2.828l7.292-.145c-.02-1.176-.368-2.088-1.04-2.737-.673-.652-1.532-.967-2.58-.946zm-3.621 6.473c.05.542.155 1.052.31 1.53.154.475.388.888.7 1.244.31.352.708.626 1.193.823.486.198 1.087.289 1.797.274.985-.02 1.694-.228 2.127-.63.433-.4.747-.874.948-1.423l3.456-.07a5.427 5.427 0 0 1-.64 1.891 5.7 5.7 0 0 1-1.338 1.613 6.784 6.784 0 0 1-1.96 1.132c-.75.286-1.596.44-2.537.459-1.238.025-2.314-.162-3.234-.557a6.402 6.402 0 0 1-2.31-1.651c-.62-.708-1.091-1.546-1.413-2.52a10.445 10.445 0 0 1-.513-3.124c-.02-1.132.12-2.191.428-3.176.307-.987.756-1.845 1.351-2.574a6.244 6.244 0 0 1 2.232-1.727c.892-.421 1.916-.644 3.068-.668a6.853 6.853 0 0 1 2.666.47 6.679 6.679 0 0 1 3.68 3.552c.361.82.551 1.72.569 2.701.005.26.005.572.002.929-.006.36-.044.79-.117 1.293l-10.465.209zM240.894 19.73a4.57 4.57 0 0 0 1.917-.267 4.57 4.57 0 0 0 1.528-.942 4.678 4.678 0 0 0 1.038-1.46 5.068 5.068 0 0 0 .46-1.82 5.057 5.057 0 0 0-.208-1.862 4.625 4.625 0 0 0-.833-1.58 4.502 4.502 0 0 0-3.25-1.633c-.691-.045-1.325.045-1.9.268a4.61 4.61 0 0 0-1.51.943 4.45 4.45 0 0 0-1.024 1.46 5.368 5.368 0 0 0-.444 1.823c-.043.646.02 1.266.194 1.862.171.594.443 1.12.814 1.576.375.457.831.83 1.372 1.126.538.293 1.155.462 1.846.505zM250 7.943L248.973 23l-3.648-.232.14-2.033c-.542.721-1.28 1.27-2.212 1.644-.933.373-1.858.531-2.774.472-1.182-.076-2.25-.353-3.202-.835a7.594 7.594 0 0 1-2.409-1.889 7.932 7.932 0 0 1-1.848-5.7 7.974 7.974 0 0 1 .792-2.984 8.013 8.013 0 0 1 1.813-2.432 7.652 7.652 0 0 1 2.644-1.568c1.012-.358 2.107-.499 3.288-.423.917.057 1.81.329 2.685.818.874.488 1.53 1.127 1.97 1.909l.14-2.035 3.648.232z"/>
  </g>
</svg>
