<svg xmlns="http://www.w3.org/2000/svg" xmlns:xlink="http://www.w3.org/1999/xlink" viewBox="0 0 456 455">
  <defs>
    <path id="a" d="M0 .333h22.885v4.97H0z"/>
  </defs>
  <g fill="none" fill-rule="evenodd">
    <path fill="#1D1D1B" d="M180.438 5.262a2.491 2.491 0 0 1 .418-1.95c.411-.595.969-.975 1.676-1.132.728-.163 1.39-.059 1.986.314.595.372.959.91 1.092 1.61.13.682-.01 1.321-.423 1.92-.411.596-.982.976-1.71 1.139-.706.158-1.358.052-1.952-.32a2.297 2.297 0 0 1-1.087-1.581zm1.832 5.075l3.504-.782 2.734 14.425-3.502.784-2.736-14.427zM199.06 20.803a4.284 4.284 0 0 0 1.751-.636 4.415 4.415 0 0 0 1.252-1.216 4.574 4.574 0 0 0 .69-1.614c.137-.6.162-1.217.077-1.851a5.13 5.13 0 0 0-.564-1.76 4.535 4.535 0 0 0-1.094-1.36 4.286 4.286 0 0 0-1.523-.812 4.171 4.171 0 0 0-1.854-.123c-.66.095-1.24.306-1.736.636a4.47 4.47 0 0 0-1.234 1.21 4.452 4.452 0 0 0-.676 1.616 5.399 5.399 0 0 0-.061 1.846c.086.634.268 1.22.548 1.763.279.54.638.994 1.078 1.362.44.367.943.639 1.508.818.566.177 1.178.216 1.838.121zm4.497.066c-.369.807-.954 1.483-1.76 2.028-.803.545-1.642.882-2.514 1.007-1.127.161-2.185.104-3.176-.174a7.227 7.227 0 0 1-2.64-1.348 7.924 7.924 0 0 1-2.856-5.143 8.052 8.052 0 0 1 .16-3.04 7.987 7.987 0 0 1 1.227-2.712 7.408 7.408 0 0 1 2.18-2.04c.88-.544 1.883-.898 3.01-1.06.873-.126 1.768-.039 2.686.26.918.299 1.66.785 2.228 1.456l-1.27-9.405 3.477-.5 2.995 22.167-3.477.5-.27-1.996zM216.741 7.96c-1.086.05-1.972.403-2.661 1.059-.687.656-.995 1.596-.927 2.82l7.415-.34c-.069-1.16-.456-2.054-1.165-2.676-.708-.625-1.597-.913-2.662-.863zm-3.435 6.488c.073.535.199 1.036.375 1.5.177.467.43.87.759 1.209.33.34.746.601 1.247.783.5.182 1.115.255 1.838.221 1.003-.045 1.715-.271 2.138-.68.426-.405.73-.882.913-1.43l3.513-.161a5.224 5.224 0 0 1-.58 1.883 5.551 5.551 0 0 1-1.299 1.626 6.901 6.901 0 0 1-1.949 1.173c-.752.302-1.606.477-2.564.522-1.258.057-2.361-.097-3.313-.463a6.601 6.601 0 0 1-2.414-1.569c-.657-.679-1.168-1.495-1.534-2.448a10.174 10.174 0 0 1-.643-3.07 9.595 9.595 0 0 1 .314-3.147c.275-.98.7-1.841 1.277-2.579a6.235 6.235 0 0 1 2.203-1.764c.894-.44 1.926-.686 3.097-.74a7.12 7.12 0 0 1 2.73.39c.861.307 1.623.751 2.29 1.334a6.746 6.746 0 0 1 1.593 2.074c.398.8.625 1.681.681 2.65.014.258.027.564.038.919.01.353-.014.78-.07 1.28l-10.64.487zM234.916 18.742a4.081 4.081 0 0 0 3.15-1.256c.387-.403.691-.88.916-1.431a5.099 5.099 0 0 0 .37-1.765 5.13 5.13 0 0 0-.256-1.787 4.531 4.531 0 0 0-.824-1.497 4.21 4.21 0 0 0-1.32-1.046 4.068 4.068 0 0 0-1.744-.439 3.947 3.947 0 0 0-1.75.31 4.247 4.247 0 0 0-1.367.947 4.27 4.27 0 0 0-.903 1.435 5.297 5.297 0 0 0-.351 1.764c-.02.622.06 1.217.24 1.786.177.568.446 1.066.806 1.497.36.429.795.776 1.305 1.045a4.02 4.02 0 0 0 1.728.437zm8.051-11.586l-.461 14.515-3.387-.123.061-1.963c-.478.71-1.143 1.258-1.994 1.644-.852.383-1.703.56-2.553.528-1.098-.04-2.095-.28-2.995-.718a7.088 7.088 0 0 1-2.292-1.752 7.784 7.784 0 0 1-1.445-2.485 7.897 7.897 0 0 1-.45-2.95 7.817 7.817 0 0 1 .637-2.891c.39-.91.924-1.707 1.598-2.39a7.041 7.041 0 0 1 2.4-1.582c.925-.37 1.934-.536 3.033-.496.848.031 1.688.271 2.512.716.825.447 1.456 1.042 1.889 1.785l.06-1.961 3.387.123zM289.938 8.982c.192-.69.59-1.201 1.194-1.527a2.353 2.353 0 0 1 1.903-.177 2.58 2.58 0 0 1 1.54 1.267c.34.627.416 1.286.226 1.979a2.342 2.342 0 0 1-1.185 1.495c-.605.329-1.249.384-1.933.167a2.54 2.54 0 0 1-1.509-1.258c-.342-.627-.42-1.277-.236-1.946zm-.643 5.428l3.292 1.045-3.917 14.204-3.292-1.045 3.917-14.204zM299.774 30.76c.617.205 1.23.274 1.833.21a4.674 4.674 0 0 0 1.682-.515 5.012 5.012 0 0 0 1.397-1.108c.415-.468.74-.994.979-1.587a5.09 5.09 0 0 0 .381-1.785 4.304 4.304 0 0 0-.276-1.67 3.909 3.909 0 0 0-.919-1.377c-.412-.405-.928-.712-1.545-.919a4.176 4.176 0 0 0-1.82-.204 4.673 4.673 0 0 0-3.047 1.632c-.404.47-.727 1-.966 1.591a5.34 5.34 0 0 0-.394 1.78c-.027.595.062 1.148.26 1.662.2.514.501.973.904 1.376.403.401.915.706 1.531.914zm3.863 2.026c-.716.543-1.558.878-2.523 1.002-.966.124-1.859.051-2.675-.222-1.056-.353-1.947-.868-2.668-1.543a6.587 6.587 0 0 1-1.62-2.334 7.334 7.334 0 0 1-.533-2.797c-.001-.982.2-1.966.598-2.952a8.446 8.446 0 0 1 1.639-2.59 8.553 8.553 0 0 1 2.399-1.83c.9-.46 1.864-.736 2.895-.83 1.033-.091 2.076.039 3.134.393.817.272 1.549.741 2.197 1.403.647.664 1.052 1.412 1.213 2.249l3.543-8.779 3.258 1.088-8.349 20.692-3.258-1.088.75-1.862zM321.754 28.81c-1.013-.482-1.99-.594-2.933-.339-.941.255-1.676.949-2.201 2.084l6.911 3.284c.497-1.077.574-2.064.23-2.966-.344-.906-1.014-1.593-2.007-2.064zm-6.253 4.16a6.871 6.871 0 0 0-.383 1.528c-.064.504-.027.987.11 1.452.135.465.387.901.757 1.305.37.407.891.772 1.567 1.09.933.445 1.691.586 2.275.426a3.532 3.532 0 0 0 1.517-.842l3.277 1.557a5.277 5.277 0 0 1-1.437 1.409c-.58.39-1.234.668-1.967.83-.727.163-1.507.2-2.337.108-.83-.092-1.692-.35-2.586-.774-1.172-.557-2.102-1.228-2.79-2.017-.69-.786-1.17-1.648-1.442-2.576-.272-.93-.344-1.91-.218-2.941.126-1.033.425-2.054.895-3.068.481-1.034 1.08-1.925 1.804-2.672a7.436 7.436 0 0 1 2.402-1.697c.88-.383 1.832-.554 2.857-.518 1.023.04 2.083.317 3.175.837.894.424 1.659.98 2.295 1.672a7.172 7.172 0 0 1 1.442 2.305c.323.843.473 1.722.45 2.632a6.788 6.788 0 0 1-.656 2.71c-.11.238-.245.518-.407.842-.163.321-.39.694-.68 1.115l-9.92-4.714zM332.163 46.118c.56.32 1.134.506 1.72.554a4.236 4.236 0 0 0 1.683-.188 4.595 4.595 0 0 0 1.499-.837 5.148 5.148 0 0 0 1.172-1.389c.314-.54.524-1.107.627-1.7a4.52 4.52 0 0 0-.017-1.708 4.137 4.137 0 0 0-.674-1.544 4.059 4.059 0 0 0-1.34-1.206 3.997 3.997 0 0 0-1.707-.548 4.34 4.34 0 0 0-1.67.198 4.318 4.318 0 0 0-1.484.845 5.303 5.303 0 0 0-1.158 1.395 5.32 5.32 0 0 0-.641 1.693 4.186 4.186 0 0 0 .664 3.237c.324.477.766.877 1.326 1.198zm12.7-6.472l-7.35 12.62-2.953-1.697.994-1.704c-.765.402-1.618.574-2.559.515-.943-.06-1.784-.303-2.523-.729-.958-.55-1.731-1.23-2.32-2.038a7.027 7.027 0 0 1-1.202-2.625 7.7 7.7 0 0 1-.096-2.876 7.818 7.818 0 0 1 1.008-2.818 7.951 7.951 0 0 1 1.948-2.261 7.81 7.81 0 0 1 2.566-1.364 7.136 7.136 0 0 1 2.888-.272c1 .105 1.979.43 2.936.983.739.425 1.371 1.029 1.89 1.81.522.781.797 1.603.827 2.464l.994-1.708 2.952 1.7zM378.624 58.698c.48-.519 1.065-.797 1.755-.828a2.38 2.38 0 0 1 1.789.641c.517.473.79 1.052.817 1.738.025.686-.201 1.29-.681 1.81a2.43 2.43 0 0 1-1.734.804 2.423 2.423 0 0 1-1.81-.662 2.355 2.355 0 0 1-.796-1.717 2.396 2.396 0 0 1 .66-1.786zm-3.005 4.44l2.49 2.273-9.868 10.684-2.492-2.275 9.87-10.682zM378.814 81.93c.468.5.985.87 1.551 1.106.567.234 1.137.35 1.711.346a4.402 4.402 0 0 0 1.701-.362 4.938 4.938 0 0 0 1.517-1.023 5.023 5.023 0 0 0 1.066-1.506 4.71 4.71 0 0 0 .43-1.723 4.63 4.63 0 0 0-.26-1.765 4.572 4.572 0 0 0-1.007-1.638c-.468-.503-.983-.868-1.54-1.094a4.398 4.398 0 0 0-1.702-.335 4.208 4.208 0 0 0-1.686.376 5.131 5.131 0 0 0-1.507 1.032 5.249 5.249 0 0 0-1.077 1.496 4.465 4.465 0 0 0-.443 1.71c-.03.587.053 1.172.25 1.754.195.582.528 1.125.996 1.626zm2.627 3.837c-.861.163-1.749.062-2.662-.297-.914-.36-1.68-.872-2.3-1.535-.8-.86-1.384-1.787-1.755-2.788a7.847 7.847 0 0 1-.498-3.019 8.153 8.153 0 0 1 .659-2.92 7.77 7.77 0 0 1 1.733-2.509 7.608 7.608 0 0 1 2.516-1.649 7.543 7.543 0 0 1 2.89-.551 7.325 7.325 0 0 1 2.922.645c.96.425 1.839 1.066 2.64 1.923.619.664 1.082 1.47 1.392 2.422.31.953.365 1.865.17 2.739l6.732-6.59 2.469 2.647-15.868 15.528-2.468-2.648 1.428-1.398zM399.116 89.112c-.7-.874-1.53-1.406-2.487-1.596-.958-.188-1.92.107-2.887.883l4.777 5.977c.914-.735 1.414-1.583 1.5-2.54.083-.958-.216-1.864-.903-2.724zm-7.435.945a6.698 6.698 0 0 0-1.008 1.193 3.447 3.447 0 0 0-.536 1.34 3.28 3.28 0 0 0 .112 1.5c.153.525.463 1.077.93 1.662.645.805 1.264 1.268 1.858 1.383a3.55 3.55 0 0 0 1.73-.081l2.265 2.833a5.279 5.279 0 0 1-1.904.623 5.747 5.747 0 0 1-2.128-.13 7.18 7.18 0 0 1-2.15-.936c-.704-.448-1.366-1.058-1.984-1.831-.81-1.013-1.35-2.024-1.627-3.028-.274-1.008-.332-1.985-.17-2.934a7.127 7.127 0 0 1 1.088-2.714 10.065 10.065 0 0 1 2.14-2.339c.883-.708 1.812-1.238 2.787-1.583.977-.348 1.94-.498 2.9-.45.957.048 1.885.315 2.79.802.904.486 1.734 1.202 2.488 2.146a7.46 7.46 0 0 1 1.333 2.504 7.12 7.12 0 0 1 .29 2.688 6.781 6.781 0 0 1-.744 2.546c-.419.8-1.01 1.507-1.772 2.121-.203.164-.447.354-.734.57a9.152 9.152 0 0 1-1.097.693l-6.857-8.578zM400.666 109.967c.383.577.842 1.03 1.373 1.359a4.447 4.447 0 0 0 3.45.567c.606-.14 1.18-.39 1.717-.75.536-.363.986-.8 1.345-1.31a4.728 4.728 0 0 0 .742-1.631 4.537 4.537 0 0 0-.679-3.585c-.385-.578-.84-1.026-1.365-1.346a4.525 4.525 0 0 0-1.657-.62 4.38 4.38 0 0 0-1.774.082c-.6.149-1.17.402-1.706.766-.538.36-.989.79-1.356 1.294a4.413 4.413 0 0 0-.749 1.616 4.599 4.599 0 0 0-.061 1.777c.095.61.336 1.205.72 1.78zm14.822.004l-12.511 8.423-2.028-3.04 1.693-1.14c-.9.014-1.78-.237-2.64-.749-.859-.513-1.544-1.15-2.053-1.912-.657-.987-1.083-2.006-1.28-3.058a7.72 7.72 0 0 1 .033-3.076c.22-.993.614-1.92 1.184-2.774a7.892 7.892 0 0 1 2.2-2.188 7.927 7.927 0 0 1 2.835-1.203 7.952 7.952 0 0 1 3.018-.051 7.585 7.585 0 0 1 2.841 1.138c.896.584 1.671 1.37 2.328 2.356.508.76.833 1.64.977 2.635.144.994.038 1.907-.314 2.739l1.692-1.14 2.025 3.04zM440.596 149.712c.684-.242 1.347-.211 1.984.09.638.303 1.07.784 1.301 1.444a2.478 2.478 0 0 1-.111 1.973c-.31.637-.81 1.076-1.496 1.32-.666.233-1.319.199-1.956-.102-.638-.302-1.073-.793-1.312-1.473a2.447 2.447 0 0 1 .125-1.944 2.5 2.5 0 0 1 1.465-1.308zm-4.875 2.597l1.136 3.265-14.104 4.98-1.139-3.268 14.107-4.977zM428.776 170.007c.177.627.459 1.166.845 1.617.388.45.832.803 1.335 1.056a4.577 4.577 0 0 0 1.656.463c.598.051 1.199-.003 1.8-.17a4.982 4.982 0 0 0 1.631-.776 4.455 4.455 0 0 0 1.175-1.24 4.178 4.178 0 0 0 .469-3.404 4.063 4.063 0 0 0-.84-1.6 4.362 4.362 0 0 0-1.331-1.044 4.36 4.36 0 0 0-1.65-.446 5.276 5.276 0 0 0-1.8.186 5.265 5.265 0 0 0-1.634.76 4.211 4.211 0 0 0-1.775 2.795 4.081 4.081 0 0 0 .119 1.803zm.519 4.376c-.83-.253-1.557-.735-2.19-1.443-.634-.713-1.066-1.481-1.3-2.313-.303-1.073-.383-2.11-.244-3.11.14-.999.462-1.91.965-2.738a7.738 7.738 0 0 1 1.928-2.135 7.78 7.78 0 0 1 2.68-1.308 7.81 7.81 0 0 1 2.965-.244 7.773 7.773 0 0 1 2.784.839 7.233 7.233 0 0 1 2.257 1.85c.64.784 1.113 1.713 1.416 2.786.234.832.266 1.712.095 2.643-.169.931-.544 1.717-1.12 2.356l8.943-2.462.932 3.313-21.075 5.8-.934-3.314 1.898-.52zM442.677 187.019c-.203-1.082-.68-1.926-1.43-2.533-.752-.606-1.73-.795-2.94-.57l1.379 7.385c1.146-.213 1.981-.714 2.503-1.505.523-.79.684-1.717.488-2.777zm-6.95-2.62a6.558 6.558 0 0 0-1.443.567c-.44.236-.806.54-1.098.913a3.197 3.197 0 0 0-.606 1.349c-.11.526-.097 1.149.038 1.871.187.997.51 1.685.977 2.06.466.371.983.616 1.554.73l.654 3.501a5.288 5.288 0 0 1-1.958-.342 5.675 5.675 0 0 1-1.803-1.096 7.035 7.035 0 0 1-1.442-1.806c-.409-.715-.703-1.549-.88-2.504-.235-1.253-.236-2.378-.005-3.378.23-.996.64-1.87 1.224-2.618a7.05 7.05 0 0 1 2.225-1.848 10.034 10.034 0 0 1 2.97-1.035c1.104-.205 2.164-.235 3.182-.084a7.42 7.42 0 0 1 2.748.95c.816.486 1.504 1.148 2.07 1.987.562.839.953 1.843 1.171 3.01a7.208 7.208 0 0 1-.006 2.785 6.904 6.904 0 0 1-1.007 2.461 6.624 6.624 0 0 1-1.843 1.865c-.742.5-1.59.84-2.545 1.018-.255.047-.557.1-.911.152-.35.055-.78.087-1.283.093l-1.983-10.601zM435.742 205.566a4.14 4.14 0 0 0 .551 1.75c.306.51.69.934 1.15 1.27.458.336.985.58 1.578.732a5.181 5.181 0 0 0 1.843.132 5.206 5.206 0 0 0 1.783-.502 4.677 4.677 0 0 0 1.412-1.037c.387-.423.681-.916.886-1.48a4.195 4.195 0 0 0 .212-1.828c-.063-.653-.247-1.231-.55-1.732a4.298 4.298 0 0 0-1.148-1.254 4.36 4.36 0 0 0-1.577-.719 5.46 5.46 0 0 0-1.84-.116 5.554 5.554 0 0 0-1.784.486 4.443 4.443 0 0 0-1.414 1.023 4.398 4.398 0 0 0-.888 1.465 4.066 4.066 0 0 0-.214 1.81zm12.86 6.576l-14.822 1.512-.326-3.448 2.003-.202c-.786-.39-1.432-.989-1.937-1.8-.505-.811-.798-1.65-.88-2.514-.107-1.116.002-2.16.328-3.131a7.288 7.288 0 0 1 1.475-2.562 8.066 8.066 0 0 1 2.334-1.803 8.13 8.13 0 0 1 2.937-.859 8.154 8.154 0 0 1 3.026.25c.98.274 1.86.706 2.644 1.295a7.16 7.16 0 0 1 1.93 2.215c.5.885.803 1.886.909 3.005.082.865-.047 1.745-.389 2.643-.344.898-.864 1.616-1.563 2.156l2.004-.205.326 3.448zM453.107 251.238a2.645 2.645 0 0 1 1.783 1.039c.457.588.65 1.242.58 1.966-.072.747-.389 1.343-.944 1.787-.558.443-1.203.613-1.935.509-.712-.1-1.295-.445-1.752-1.033a2.72 2.72 0 0 1-.576-2c.072-.726.385-1.31.942-1.754a2.389 2.389 0 0 1 1.902-.514zm-5.58.075l-.35 3.588-15.066-2.138.35-3.59 15.066 2.14zM432.856 263.864a4.293 4.293 0 0 0 .072 1.86 4.5 4.5 0 0 0 .767 1.577c.352.464.793.86 1.32 1.183.527.325 1.103.55 1.73.676s1.237.14 1.838.041a4.375 4.375 0 0 0 1.621-.588 4.126 4.126 0 0 0 1.238-1.173 4.167 4.167 0 0 0 .68-1.71 4.211 4.211 0 0 0-.073-1.847 4.63 4.63 0 0 0-.77-1.56 4.608 4.608 0 0 0-1.323-1.168 5.528 5.528 0 0 0-1.734-.66 5.327 5.327 0 0 0-1.833-.059 4.21 4.21 0 0 0-1.62.573 4.189 4.189 0 0 0-1.235 1.16c-.339.474-.566 1.04-.678 1.695zm-1.433 4.224c-.652-.611-1.111-1.386-1.385-2.322-.271-.94-.333-1.841-.184-2.704.19-1.118.567-2.1 1.134-2.945a6.97 6.97 0 0 1 2.082-2.05 7.581 7.581 0 0 1 2.705-1.056 7.814 7.814 0 0 1 3.038.038 8.213 8.213 0 0 1 2.831 1.143 8.246 8.246 0 0 1 2.192 2.046 7.578 7.578 0 0 1 1.266 2.724c.25 1.01.278 2.071.088 3.19-.148.864-.503 1.681-1.066 2.45-.563.769-1.25 1.313-2.06 1.63l9.297 1.873-.588 3.446-21.91-4.414.59-3.447 1.97.398zM438.771 284.636c.292-1.08.228-2.064-.189-2.953-.417-.893-1.227-1.509-2.428-1.85l-1.981 7.356c1.138.322 2.117.242 2.937-.242.824-.484 1.377-1.255 1.661-2.311zm-5.176-5.525a6.848 6.848 0 0 0-1.562-.134 3.45 3.45 0 0 0-1.4.336c-.43.21-.81.53-1.141.958-.333.429-.595 1.004-.788 1.722-.269.992-.271 1.767-.014 2.318.261.55.625 1.006 1.095 1.366l-.94 3.486a5.396 5.396 0 0 1-1.634-1.195 5.903 5.903 0 0 1-1.16-1.811 7.328 7.328 0 0 1-.52-2.299c-.059-.835.042-1.727.298-2.679.334-1.246.828-2.272 1.474-3.078.648-.806 1.404-1.419 2.263-1.834.863-.418 1.806-.644 2.837-.682a10.202 10.202 0 0 1 3.158.397 9.783 9.783 0 0 1 2.932 1.359 7.661 7.661 0 0 1 2.085 2.106c.528.81.866 1.725 1.012 2.743.145 1.019.06 2.11-.254 3.273a7.26 7.26 0 0 1-1.227 2.535 6.908 6.908 0 0 1-1.995 1.79c-.77.455-1.6.741-2.495.864-.895.122-1.815.05-2.764-.219a31.999 31.999 0 0 1-.895-.27 9.252 9.252 0 0 1-1.211-.495l2.846-10.557zM424.163 297.994a4.052 4.052 0 0 0-.256 1.756c.05.576.203 1.11.46 1.597.254.488.606.924 1.054 1.309.45.386.96.684 1.536.9a4.997 4.997 0 0 0 1.75.322c.588 0 1.138-.1 1.652-.303.51-.205.97-.507 1.383-.911.412-.405.727-.905.946-1.5a3.901 3.901 0 0 0 .252-1.743 4.24 4.24 0 0 0-.463-1.583 4.241 4.241 0 0 0-1.062-1.293 5.251 5.251 0 0 0-1.54-.884 5.21 5.21 0 0 0-1.742-.338 4.223 4.223 0 0 0-1.647.29 4.18 4.18 0 0 0-1.38.896c-.407.394-.722.89-.943 1.485zm8.345 11.197l-13.423-4.99 1.16-3.14 1.815.674c-.515-.673-.82-1.47-.919-2.39-.096-.92.002-1.776.292-2.563.378-1.017.907-1.88 1.595-2.586a6.945 6.945 0 0 1 2.345-1.602 7.597 7.597 0 0 1 2.769-.577 7.74 7.74 0 0 1 2.894.501c.94.351 1.775.852 2.506 1.507a7.623 7.623 0 0 1 1.74 2.253c.428.848.676 1.764.737 2.747.062.986-.094 1.988-.47 3.004-.292.788-.773 1.5-1.446 2.135-.67.636-1.42 1.039-2.25 1.212l1.815.674-1.16 3.14zM415.261 354.102c.602.418.965.982 1.09 1.688a2.5 2.5 0 0 1-.43 1.936c-.424.604-.99.968-1.699 1.095-.708.127-1.363-.02-1.965-.438a2.478 2.478 0 0 1-1.064-1.67c-.124-.705.027-1.358.45-1.962.41-.584.971-.942 1.678-1.068a2.504 2.504 0 0 1 1.94.419zm-5.002-2.449l-2.033 2.898-12.385-8.61 2.035-2.9 12.383 8.612zM391.406 355.502a4.202 4.202 0 0 0-.83 1.662 4.39 4.39 0 0 0-.066 1.744c.096.57.302 1.123.622 1.655a5.34 5.34 0 0 0 1.235 1.408 5.28 5.28 0 0 0 1.635.903 4.7 4.7 0 0 0 1.745.251 4.376 4.376 0 0 0 1.675-.444 4.213 4.213 0 0 0 1.435-1.177c.413-.52.687-1.07.818-1.652.132-.58.151-1.158.057-1.73a4.507 4.507 0 0 0-.633-1.644 5.51 5.51 0 0 0-1.244-1.393 5.581 5.581 0 0 0-1.626-.92 4.446 4.446 0 0 0-1.734-.26 4.3 4.3 0 0 0-1.665.432 4.063 4.063 0 0 0-1.424 1.165zm-3.318 3.021c-.292-.842-.338-1.737-.133-2.685.205-.95.582-1.767 1.13-2.455.708-.888 1.518-1.569 2.432-2.043a7.264 7.264 0 0 1 2.86-.812 8.023 8.023 0 0 1 2.944.35c.971.301 1.875.79 2.715 1.468a8.26 8.26 0 0 1 2.006 2.335c.512.894.843 1.836.993 2.823a7.36 7.36 0 0 1-.164 2.982c-.26 1.001-.745 1.945-1.452 2.833-.549.686-1.26 1.236-2.136 1.644-.877.407-1.755.559-2.637.454l7.477 6.024-2.182 2.74-17.622-14.196 2.184-2.738 1.585 1.276zM385.886 376.637c.757-.797 1.163-1.679 1.212-2.646.05-.968-.37-1.879-1.262-2.735l-5.17 5.438c.846.812 1.742 1.2 2.689 1.166.944-.033 1.789-.441 2.531-1.223zm-1.956-7.206a6.787 6.787 0 0 0-1.305-.85 3.462 3.462 0 0 0-1.383-.363 3.187 3.187 0 0 0-1.448.294c-.491.215-.987.589-1.492 1.121-.699.736-1.061 1.4-1.093 2-.03.599.077 1.164.322 1.696l-2.451 2.58a5.405 5.405 0 0 1-.874-1.802 5.787 5.787 0 0 1-.17-2.111 7.119 7.119 0 0 1 .616-2.233c.338-.75.84-1.476 1.51-2.18.878-.923 1.788-1.58 2.73-1.974.944-.396 1.89-.57 2.838-.528.947.04 1.882.287 2.802.738a10.097 10.097 0 0 1 2.58 1.823c.815.783 1.46 1.632 1.935 2.55.475.917.756 1.853.841 2.8a6.433 6.433 0 0 1-.393 2.849c-.349.952-.93 1.854-1.748 2.715a7.14 7.14 0 0 1-2.26 1.62 6.86 6.86 0 0 1-2.582.615 6.655 6.655 0 0 1-2.588-.42c-.84-.314-1.612-.809-2.318-1.484-.188-.18-.408-.398-.658-.655a9.17 9.17 0 0 1-.827-.996l7.416-7.805zM367.219 381.866a4.114 4.114 0 0 0-1.091 1.488 4.352 4.352 0 0 0-.355 1.702c-.001.578.11 1.16.335 1.741.225.578.553 1.113.979 1.603.427.488.911.881 1.455 1.18a4.658 4.658 0 0 0 1.673.556c.57.07 1.144.024 1.72-.14a4.1 4.1 0 0 0 1.604-.9c.493-.44.853-.93 1.08-1.482a4.432 4.432 0 0 0 .344-1.69c0-.58-.115-1.155-.348-1.729a5.68 5.68 0 0 0-.99-1.594 5.665 5.665 0 0 0-1.444-1.19 4.449 4.449 0 0 0-1.661-.566 4.292 4.292 0 0 0-1.709.129c-.567.157-1.098.455-1.592.892zm2.242 14.531l-9.95-11.38 2.601-2.308 1.345 1.54c-.149-.881-.043-1.771.316-2.668.36-.895.866-1.634 1.52-2.212.842-.746 1.752-1.271 2.729-1.575a7.17 7.17 0 0 1 2.943-.292 8.029 8.029 0 0 1 2.836.868 8.283 8.283 0 0 1 2.423 1.924 8.36 8.36 0 0 1 1.58 2.655 8.16 8.16 0 0 1 .506 2.955 7.32 7.32 0 0 1-.658 2.903c-.423.94-1.056 1.78-1.899 2.53-.652.577-1.443.988-2.371 1.235-.93.245-1.818.24-2.666-.02l1.345 1.539-2.6 2.306zM329.945 421.606l-3.427 1.76-6.663-13.34 3.428-1.76 6.662 13.34zm3.248 4.447c.325.648.352 1.324.084 2.027-.27.7-.75 1.227-1.442 1.583-.71.365-1.426.45-2.144.255-.716-.194-1.237-.618-1.561-1.266-.314-.63-.336-1.297-.067-1.997.268-.702.757-1.235 1.469-1.6.693-.356 1.398-.436 2.116-.241.714.196 1.23.61 1.545 1.24zM310.61 417.323a4.37 4.37 0 0 0-1.557 1.094c-.413.46-.718.967-.912 1.523a4.708 4.708 0 0 0-.246 1.77c.024.625.167 1.235.422 1.834a5.19 5.19 0 0 0 1.027 1.574c.432.451.913.797 1.447 1.04a4.42 4.42 0 0 0 1.724.39c.616.02 1.237-.107 1.862-.374.627-.27 1.141-.632 1.545-1.09.402-.455.7-.96.894-1.514a4.465 4.465 0 0 0 .234-1.763 5.454 5.454 0 0 0-.439-1.829 5.401 5.401 0 0 0-1.014-1.581 4.412 4.412 0 0 0-1.429-1.047 4.48 4.48 0 0 0-1.708-.398c-.609-.021-1.224.103-1.85.37zm-4.457 1.14c.148-.89.544-1.71 1.19-2.458.65-.751 1.387-1.305 2.214-1.66 1.07-.46 2.133-.686 3.186-.68a7.433 7.433 0 0 1 2.966.618 8 8 0 0 1 2.477 1.694 8.075 8.075 0 0 1 1.728 2.582c.413.977.634 1.985.658 3.023a8.015 8.015 0 0 1-.484 2.985 7.493 7.493 0 0 1-1.606 2.582c-.723.77-1.62 1.385-2.688 1.845-.827.357-1.733.51-2.72.463-.99-.046-1.854-.325-2.593-.832l3.78 8.88-3.301 1.418-8.91-20.926 3.3-1.418.803 1.883zM296.425 433.037c1.063-.353 1.85-.946 2.361-1.778.514-.832.578-1.837.198-3.011l-7.246 2.405c.362 1.113.973 1.875 1.835 2.284.86.412 1.81.445 2.852.1zm1.74-7.293c-.21-.5-.462-.955-.754-1.36a3.394 3.394 0 0 0-1.059-.966c-.41-.24-.89-.378-1.433-.415-.543-.036-1.167.064-1.875.297-.98.324-1.627.746-1.943 1.262a3.577 3.577 0 0 0-.534 1.65l-3.437 1.14a5.287 5.287 0 0 1 .093-2 5.8 5.8 0 0 1 .868-1.95 7.34 7.34 0 0 1 1.631-1.688c.665-.507 1.466-.915 2.405-1.228 1.23-.405 2.359-.563 3.392-.474 1.033.091 1.963.378 2.789.856a6.97 6.97 0 0 1 2.144 1.961 9.975 9.975 0 0 1 1.42 2.815c.349 1.073.515 2.125.493 3.159a7.48 7.48 0 0 1-.605 2.874c-.38.88-.958 1.658-1.73 2.338-.768.677-1.728 1.206-2.872 1.588a7.44 7.44 0 0 1-2.8.38 6.975 6.975 0 0 1-2.604-.66 6.628 6.628 0 0 1-2.106-1.579c-.6-.669-1.05-1.466-1.354-2.395-.079-.246-.17-.542-.27-.886a9.592 9.592 0 0 1-.258-1.266l10.4-3.453zM277.72 428.66c-.658.154-1.23.421-1.712.806-.48.384-.863.835-1.141 1.354a4.724 4.724 0 0 0-.533 1.723 5.447 5.447 0 0 0 .122 1.914c.154.647.407 1.234.759 1.767.354.533.771.968 1.26 1.31a4.486 4.486 0 0 0 1.638.713c.605.131 1.236.122 1.897-.029.659-.154 1.225-.422 1.697-.802a4.424 4.424 0 0 0 1.641-3.072 5.673 5.673 0 0 0-.138-1.91 5.675 5.675 0 0 0-.744-1.768 4.663 4.663 0 0 0-1.241-1.317 4.563 4.563 0 0 0-1.623-.713 4.156 4.156 0 0 0-1.882.025zm-4.946 14.124l-3.602-15.043 3.482-.805.487 2.034c.288-.862.812-1.607 1.572-2.238.758-.63 1.576-1.044 2.448-1.247 1.13-.26 2.213-.288 3.251-.087a7.53 7.53 0 0 1 2.826 1.17 8.405 8.405 0 0 1 2.17 2.155 8.52 8.52 0 0 1 1.285 2.906 8.475 8.475 0 0 1 .165 3.15 8.167 8.167 0 0 1-.96 2.894 7.386 7.386 0 0 1-1.998 2.286c-.836.634-1.819 1.082-2.948 1.346-.873.2-1.795.186-2.759-.047-.967-.23-1.773-.669-2.421-1.311l.487 2.034-3.485.803zM225.49 446.761l-3.547-.064.475-15.057 3.547.067-.475 15.054zm.67 5.507a2.55 2.55 0 0 1-.822 1.846 2.549 2.549 0 0 1-1.862.724c-.736-.013-1.353-.279-1.848-.794a2.5 2.5 0 0 1-.705-1.87 2.522 2.522 0 0 1 .823-1.814 2.593 2.593 0 0 1 1.894-.724 2.49 2.49 0 0 1 1.816.794c.492.515.73 1.13.705 1.838zM210.598 433.464a4.24 4.24 0 0 0-1.832.231 4.384 4.384 0 0 0-1.48.895c-.422.39-.768.858-1.034 1.41a5.132 5.132 0 0 0-.495 1.768 5.108 5.108 0 0 0 .14 1.822 4.48 4.48 0 0 0 .744 1.556c.338.451.767.826 1.283 1.122a4.104 4.104 0 0 0 1.755.524 4.102 4.102 0 0 0 1.815-.23 4.46 4.46 0 0 0 1.465-.898c.42-.388.76-.857 1.018-1.408a5.4 5.4 0 0 0 .479-1.771 5.378 5.378 0 0 0-.126-1.823 4.22 4.22 0 0 0-.727-1.551 4.263 4.263 0 0 0-1.266-1.122c-.503-.295-1.084-.471-1.74-.525zm-4.313-1.053c.537-.696 1.256-1.22 2.154-1.571.898-.349 1.782-.487 2.65-.417 1.12.092 2.126.382 3.017.868a7.067 7.067 0 0 1 2.232 1.883 7.724 7.724 0 0 1 1.313 2.585c.28.956.367 1.96.264 3.012a8.032 8.032 0 0 1-.845 2.9 8.028 8.028 0 0 1-1.798 2.346 7.417 7.417 0 0 1-2.564 1.489c-.972.333-2.018.454-3.14.362-.868-.073-1.71-.352-2.526-.845-.815-.49-1.42-1.123-1.812-1.897l-.921 9.362-3.46-.284 2.17-22.065 3.46.285-.194 1.987zM190.36 441.073c1.104.185 2.084.023 2.94-.477.854-.501 1.397-1.365 1.63-2.59l-7.542-1.248c-.219 1.162-.05 2.125.508 2.895.558.767 1.38 1.24 2.463 1.42zm5.065-5.677a6.676 6.676 0 0 0-.006-1.562c-.06-.5-.216-.952-.464-1.359-.244-.405-.599-.752-1.059-1.039-.46-.286-1.058-.491-1.795-.614-1.018-.166-1.791-.095-2.32.217-.529.311-.95.715-1.268 1.218l-3.577-.592a5.503 5.503 0 0 1 1.051-1.738 6.013 6.013 0 0 1 1.71-1.33c.671-.353 1.421-.599 2.253-.74.83-.14 1.734-.127 2.71.034 1.28.212 2.348.599 3.214 1.164.865.563 1.544 1.252 2.037 2.065.495.813.808 1.728.938 2.749a10.08 10.08 0 0 1-.115 3.17c-.215 1.119-.578 2.133-1.097 3.045a7.821 7.821 0 0 1-1.924 2.275 6.784 6.784 0 0 1-2.656 1.273c-1.006.242-2.104.265-3.296.068a7.325 7.325 0 0 1-2.65-.968 6.875 6.875 0 0 1-1.97-1.808 6.54 6.54 0 0 1-1.09-2.39c-.2-.875-.21-1.796-.027-2.765.05-.256.113-.561.19-.914.08-.355.207-.77.388-1.249l10.823 1.79zM175.796 427.603a4 4 0 0 0-1.766-.09 4.093 4.093 0 0 0-1.542.6c-.46.3-.86.69-1.2 1.17a5.013 5.013 0 0 0-.748 1.608 4.952 4.952 0 0 0-.155 1.764c.054.588.207 1.125.457 1.616.249.489.593.919 1.034 1.29.44.373.966.639 1.577.805.612.162 1.196.192 1.754.086a4.223 4.223 0 0 0 1.526-.605c.459-.3.854-.692 1.185-1.174a5.24 5.24 0 0 0 .733-1.612c.158-.593.215-1.18.17-1.762a4.178 4.178 0 0 0-.442-1.61 4.209 4.209 0 0 0-1.02-1.288 3.936 3.936 0 0 0-1.563-.798zm-10.327 9.322l3.69-13.795 3.227.863-.5 1.865c.62-.574 1.383-.951 2.287-1.131.904-.182 1.761-.164 2.57.053 1.046.279 1.951.727 2.717 1.345a6.956 6.956 0 0 1 1.812 2.181c.441.836.72 1.737.831 2.696a7.746 7.746 0 0 1-.226 2.922 7.769 7.769 0 0 1-3.33 4.565 6.96 6.96 0 0 1-2.66.985c-.97.152-1.98.09-3.025-.192-.809-.217-1.56-.628-2.254-1.236-.694-.61-1.164-1.317-1.415-2.124l-.497 1.866-3.227-.863zM121.442 418.343l-3.094-1.824 7.182-13.233 3.095 1.823-7.183 13.234zm-1.883 5.263c-.35.644-.868 1.058-1.554 1.24-.686.183-1.342.09-1.967-.278a2.711 2.711 0 0 1-1.269-1.63 2.597 2.597 0 0 1 .22-2.027 2.377 2.377 0 0 1 1.538-1.21c.685-.185 1.35-.084 1.993.294a2.657 2.657 0 0 1 1.243 1.613c.203.707.134 1.375-.204 1.998zM114.709 400.468a4.179 4.179 0 0 0-1.718-.649 4.41 4.41 0 0 0-1.73.11 4.758 4.758 0 0 0-1.58.774 5.349 5.349 0 0 0-1.284 1.347 5.272 5.272 0 0 0-.75 1.69 4.523 4.523 0 0 0-.092 1.733c.08.56.277 1.092.587 1.596.308.504.739.932 1.288 1.286.55.355 1.118.566 1.705.637a4.437 4.437 0 0 0 1.714-.115 4.537 4.537 0 0 0 1.57-.784c.489-.37.911-.823 1.27-1.354.355-.533.61-1.094.763-1.681.15-.59.187-1.164.105-1.725a4.203 4.203 0 0 0-.574-1.588c-.3-.497-.725-.924-1.274-1.277zm-3.28-2.946c.806-.372 1.687-.503 2.643-.397.958.106 1.8.393 2.524.862.942.603 1.685 1.33 2.235 2.177.548.85.9 1.755 1.054 2.718a7.81 7.81 0 0 1-.086 2.917 8.1 8.1 0 0 1-1.212 2.804 8.293 8.293 0 0 1-2.133 2.191 8.136 8.136 0 0 1-2.702 1.253 7.376 7.376 0 0 1-2.963.136c-1.012-.157-1.987-.535-2.93-1.14-.726-.468-1.33-1.11-1.81-1.928-.48-.817-.709-1.663-.682-2.537l-5.297 7.917-2.9-1.866 12.482-18.651 2.9 1.864-1.123 1.68zM93.48 398.128c.861.665 1.773.977 2.74.93.964-.046 1.833-.551 2.604-1.516l-5.865-4.547c-.73.915-1.036 1.834-.918 2.763.119.926.598 1.717 1.44 2.37zm6.988-2.642c.305-.45.548-.905.728-1.369.18-.463.259-.93.237-1.399a3.105 3.105 0 0 0-.42-1.393c-.26-.462-.676-.914-1.248-1.36-.791-.612-1.485-.905-2.084-.874a3.633 3.633 0 0 0-1.658.483l-2.778-2.155c.49-.443 1.06-.79 1.71-1.039a5.812 5.812 0 0 1 2.084-.378 7.112 7.112 0 0 1 2.272.385c.777.26 1.543.682 2.301 1.27.995.77 1.729 1.6 2.205 2.49.476.89.736 1.803.777 2.74.042.938-.119 1.88-.483 2.832-.365.95-.894 1.857-1.585 2.72a9.814 9.814 0 0 1-2.359 2.158c-.87.56-1.773.927-2.708 1.107a6.524 6.524 0 0 1-2.866-.104c-.974-.249-1.927-.732-2.854-1.45a6.984 6.984 0 0 1-1.808-2.06 6.577 6.577 0 0 1-.655-5.072c.238-.858.661-1.669 1.269-2.43.163-.203.36-.442.59-.712.234-.273.539-.578.917-.915l8.416 6.525zM86.844 377.76a4.27 4.27 0 0 0-1.63-.974 4.526 4.526 0 0 0-1.773-.202 4.84 4.84 0 0 0-1.744.509 5.416 5.416 0 0 0-1.541 1.15 5.406 5.406 0 0 0-1.06 1.595 4.778 4.778 0 0 0-.4 1.76c-.017.59.088 1.172.313 1.744a4.257 4.257 0 0 0 1.082 1.552 4.203 4.203 0 0 0 1.618.964c.582.179 1.17.243 1.764.19a4.65 4.65 0 0 0 1.73-.518 5.719 5.719 0 0 0 1.528-1.162 5.678 5.678 0 0 0 1.072-1.587 4.535 4.535 0 0 0 .414-1.746 4.472 4.472 0 0 0-.304-1.733c-.216-.566-.574-1.08-1.07-1.543zm-14.619 3.662l10.631-11.233 2.615 2.439-1.437 1.517c.886-.235 1.801-.21 2.755.071.95.282 1.756.728 2.411 1.342.85.788 1.475 1.668 1.883 2.637.408.969.604 1.963.591 2.977a8.132 8.132 0 0 1-.603 2.975 8.37 8.37 0 0 1-1.724 2.658 8.515 8.515 0 0 1-2.554 1.863 8.298 8.298 0 0 1-2.966.796 7.567 7.567 0 0 1-3.03-.398c-1.002-.344-1.927-.907-2.774-1.7-.655-.61-1.156-1.377-1.499-2.304-.344-.925-.425-1.833-.246-2.722l-1.437 1.517-2.616-2.435z"/>
    <g transform="rotate(-30 661.284 109.134)">
      <mask id="b" fill="#fff">
        <use xlink:href="#a"/>
      </mask>
      <path fill="#1D1D1B" d="M8.055 4.3L7.925.938l14.83-.545.13 3.362-14.83.545zM2.677 5.3c-.72.028-1.341-.192-1.858-.658a2.346 2.346 0 0 1-.817-1.714c-.027-.698.2-1.3.68-1.8C1.16.626 1.76.362 2.481.335c.7-.024 1.31.195 1.826.66.518.464.79 1.047.82 1.745a2.34 2.34 0 0 1-.682 1.77c-.48.501-1.07.764-1.77.791z" mask="url(#b)"/>
    </g>
    <path fill="#1D1D1B" d="M45.895 326.108a4.088 4.088 0 0 0-1.197-1.39 4.324 4.324 0 0 0-1.572-.718 4.693 4.693 0 0 0-1.766-.052 5.388 5.388 0 0 0-1.778.605c-.571.311-1.064.7-1.474 1.165a4.737 4.737 0 0 0-.918 1.511 4.29 4.29 0 0 0-.254 1.711c.028.597.201 1.185.513 1.761.312.577.71 1.036 1.19 1.378a4.365 4.365 0 0 0 3.322.742 5.695 5.695 0 0 0 1.77-.62 5.662 5.662 0 0 0 1.482-1.152c.417-.455.726-.953.925-1.495a4.395 4.395 0 0 0 .262-1.697 4.006 4.006 0 0 0-.505-1.75zm-1.463-4.194c.889.049 1.727.345 2.517.89.787.548 1.39 1.202 1.803 1.966.536.986.84 1.988.915 3.01a7.273 7.273 0 0 1-.384 2.936 8.153 8.153 0 0 1-1.485 2.578 8.348 8.348 0 0 1-2.417 1.947 8.373 8.373 0 0 1-2.934.963 8.078 8.078 0 0 1-2.981-.146 7.23 7.23 0 0 1-2.67-1.278c-.814-.617-1.489-1.417-2.024-2.405-.414-.761-.636-1.625-.664-2.584-.028-.962.179-1.826.623-2.598l-8.474 4.61-1.649-3.04 19.973-10.868 1.65 3.041-1.799.978zM29.075 313.272c.457 1.034 1.126 1.773 2.008 2.211.88.44 1.89.413 3.024-.08l-3.11-7.065c-1.074.467-1.776 1.154-2.101 2.057-.328.902-.267 1.862.179 2.877zm7.455 1.078a6.755 6.755 0 0 0 1.283-.884c.375-.334.663-.718.862-1.155.2-.438.291-.93.275-1.48-.016-.549-.175-1.168-.48-1.86-.42-.954-.902-1.565-1.45-1.836a3.593 3.593 0 0 0-1.7-.385l-1.474-3.35a5.315 5.315 0 0 1 2.006-.093 5.714 5.714 0 0 1 2.032.697c.66.366 1.275.858 1.846 1.481.573.623 1.058 1.391 1.46 2.304.527 1.199.797 2.322.806 3.369.01 1.049-.184 2.01-.583 2.883a6.979 6.979 0 0 1-1.748 2.337 9.873 9.873 0 0 1-2.674 1.69c-1.036.448-2.073.713-3.108.788a7.512 7.512 0 0 1-2.927-.342c-.917-.303-1.752-.812-2.504-1.524-.755-.713-1.377-1.628-1.868-2.743a7.589 7.589 0 0 1-.655-2.782 7.098 7.098 0 0 1 .407-2.68c.304-.845.76-1.6 1.37-2.263.61-.666 1.363-1.192 2.26-1.58.239-.106.525-.222.857-.356a9.58 9.58 0 0 1 1.243-.378l4.464 10.142zM31.622 293.654a4.134 4.134 0 0 0-.941-1.583 4.26 4.26 0 0 0-1.422-.98 4.651 4.651 0 0 0-1.725-.354 5.37 5.37 0 0 0-1.852.296 5.411 5.411 0 0 0-1.648.902c-.487.39-.872.837-1.16 1.341a4.393 4.393 0 0 0-.543 1.65c-.075.6-.005 1.212.201 1.837.21.625.522 1.148.935 1.568.416.42.889.742 1.417.965a4.497 4.497 0 0 0 1.723.338 5.604 5.604 0 0 0 1.845-.31 5.624 5.624 0 0 0 1.653-.887c.49-.381.879-.823 1.166-1.326.288-.503.47-1.049.548-1.637a4.025 4.025 0 0 0-.197-1.82zm-14.196-3.469l14.307-4.897 1.102 3.298-1.934.663c.865.198 1.639.636 2.32 1.312.685.676 1.163 1.429 1.438 2.255.357 1.07.486 2.116.384 3.14a7.345 7.345 0 0 1-.88 2.845 8.17 8.17 0 0 1-1.9 2.301 8.336 8.336 0 0 1-2.709 1.52 8.308 8.308 0 0 1-3.048.45 7.97 7.97 0 0 1-2.905-.655 7.193 7.193 0 0 1-2.406-1.725c-.695-.75-1.222-1.658-1.58-2.728-.275-.828-.345-1.72-.209-2.676.137-.958.489-1.78 1.056-2.468l-1.932.662-1.104-3.297zM8.844 242.6l-.27-3.437 14.502-.87.272 3.44-14.504.868zm-5.227 1.137a2.47 2.47 0 0 1-1.847-.634 2.495 2.495 0 0 1-.871-1.737c-.057-.715.14-1.334.587-1.858a2.385 2.385 0 0 1 1.731-.847c.686-.043 1.291.17 1.818.635.528.466.816 1.055.875 1.77a2.416 2.416 0 0 1-.591 1.825 2.345 2.345 0 0 1-1.702.846zM20.28 227.915a4.155 4.155 0 0 0-.39-1.791 4.269 4.269 0 0 0-1.02-1.378 4.623 4.623 0 0 0-1.495-.882 5.198 5.198 0 0 0-1.81-.311 5.218 5.218 0 0 0-1.81.325 4.54 4.54 0 0 0-1.486.895 4.306 4.306 0 0 0-1.011 1.384 4.172 4.172 0 0 0-.373 1.794c.003.658.133 1.249.389 1.777.256.528.595.982 1.022 1.361.425.38.921.67 1.494.868a5.442 5.442 0 0 0 1.81.293 5.345 5.345 0 0 0 1.807-.308 4.32 4.32 0 0 0 2.5-2.247c.251-.53.375-1.123.373-1.78zm.68-4.384c.744.465 1.326 1.124 1.754 1.979.427.855.64 1.715.646 2.584.004 1.122-.199 2.15-.607 3.082a7.19 7.19 0 0 1-1.688 2.404 7.914 7.914 0 0 1-2.469 1.564 7.972 7.972 0 0 1-2.981.566 8 8 0 0 1-2.97-.543 7.879 7.879 0 0 1-2.499-1.546 7.257 7.257 0 0 1-1.708-2.39c-.414-.93-.625-1.955-.63-3.078-.005-.867.203-1.73.623-2.59.42-.856.999-1.521 1.739-1.99l-9.427.038-.015-3.46 22.216-.087.017 3.46-2.002.007zM11.533 209.134c-.075 1.125.178 2.093.76 2.906.581.814 1.49 1.28 2.729 1.402l.507-7.678c-1.173-.117-2.114.14-2.825.77-.706.63-1.099 1.497-1.171 2.6zm6.131 4.568c.546.01 1.064-.04 1.552-.147.488-.105.924-.3 1.302-.588.38-.284.69-.67.93-1.156.24-.487.386-1.108.436-1.857.066-1.037-.08-1.807-.44-2.309a3.804 3.804 0 0 0-1.335-1.165l.24-3.64a5.48 5.48 0 0 1 1.83.898 6.095 6.095 0 0 1 1.486 1.595c.417.639.736 1.371.955 2.194.218.82.295 1.727.232 2.72-.087 1.303-.37 2.412-.844 3.332-.478.919-1.095 1.664-1.855 2.233-.76.57-1.64.965-2.64 1.188a9.89 9.89 0 0 1-3.161.17 9.667 9.667 0 0 1-3.128-.824 7.806 7.806 0 0 1-2.448-1.724c-.675-.71-1.181-1.56-1.521-2.549-.342-.988-.471-2.09-.39-3.303a7.375 7.375 0 0 1 .706-2.746c.406-.837.94-1.55 1.601-2.14a6.424 6.424 0 0 1 2.269-1.308c.852-.283 1.765-.376 2.743-.28.26.026.572.061.929.107.358.048.785.14 1.278.278l-.727 11.021zM22.825 191.573a4.043 4.043 0 0 0-.074-1.773 4.118 4.118 0 0 0-.744-1.48 4.398 4.398 0 0 0-1.279-1.087 4.942 4.942 0 0 0-1.676-.594 4.985 4.985 0 0 0-1.78.012c-.579.11-1.102.311-1.568.608-.465.294-.862.68-1.195 1.153a4.022 4.022 0 0 0-.653 1.65c-.108.626-.084 1.21.074 1.758.156.544.404 1.032.746 1.463.343.434.77.79 1.282 1.073a5.225 5.225 0 0 0 1.68.58 5.23 5.23 0 0 0 1.776.002 4.214 4.214 0 0 0 1.565-.592 4.237 4.237 0 0 0 1.193-1.138 3.96 3.96 0 0 0 .653-1.635zm-10.271-9.426l14.12 2.38-.561 3.3-1.909-.32c.631.562 1.08 1.288 1.344 2.173.265.885.325 1.742.184 2.57-.18 1.07-.545 2.015-1.091 2.837a6.979 6.979 0 0 1-2.012 2.014 7.733 7.733 0 0 1-5.554 1.135 7.75 7.75 0 0 1-2.743-1.007 7.585 7.585 0 0 1-2.126-1.884 6.886 6.886 0 0 1-1.23-2.56c-.244-.954-.274-1.967-.093-3.036.142-.828.484-1.616 1.028-2.366.543-.75 1.208-1.288 1.99-1.611l-1.91-.323.563-3.302zM24.284 144.973l1.417-3.21 13.858 5.08-1.415 3.209-13.86-5.08zm-5.395-1.087c-.673-.247-1.14-.688-1.404-1.32-.264-.632-.25-1.272.033-1.92a2.708 2.708 0 0 1 1.448-1.437 2.621 2.621 0 0 1 2.014-.064c.654.238 1.114.675 1.375 1.307.264.633.247 1.282-.047 1.949-.285.648-.763 1.118-1.433 1.408-.668.29-1.332.315-1.986.077zM40.938 136.805c.27-.59.4-1.186.395-1.786a4.495 4.495 0 0 0-.345-1.703 4.868 4.868 0 0 0-.974-1.477 5.383 5.383 0 0 0-1.49-1.11 5.226 5.226 0 0 0-1.752-.536 4.378 4.378 0 0 0-1.698.122c-.538.15-1.029.41-1.477.78-.448.371-.807.852-1.076 1.44a4.043 4.043 0 0 0-.386 1.773c.01.591.128 1.152.35 1.69a4.63 4.63 0 0 0 .98 1.46c.428.442.928.806 1.498 1.096.568.287 1.15.472 1.743.55.595.078 1.16.042 1.695-.107a4.069 4.069 0 0 0 1.469-.767c.444-.36.8-.835 1.068-1.425zm2.42-3.621c.474.755.725 1.612.752 2.577.029.963-.134 1.834-.489 2.614-.462 1.01-1.066 1.839-1.818 2.487a6.69 6.69 0 0 1-2.502 1.384 7.53 7.53 0 0 1-2.855.274 7.998 7.998 0 0 1-2.901-.856 8.34 8.34 0 0 1-2.432-1.848 8.32 8.32 0 0 1-1.594-2.531 7.53 7.53 0 0 1-.54-2.928c.01-1.023.246-2.04.706-3.048.354-.781.898-1.46 1.629-2.04.728-.578 1.522-.907 2.376-.99l-8.446-4.283 1.418-3.11 19.905 10.095-1.417 3.11-1.792-.907zM41.178 115.209c-.585.966-.8 1.932-.639 2.894.16.963.78 1.758 1.858 2.382l3.997-6.599c-1.024-.593-2.004-.756-2.944-.494-.942.263-1.699.87-2.272 1.817zm3.524 6.608c.497.237.996.41 1.491.518a3.6 3.6 0 0 0 1.467.021c.478-.094.94-.306 1.383-.64.445-.332.86-.819 1.253-1.465.54-.89.76-1.633.658-2.23a3.503 3.503 0 0 0-.69-1.588l1.896-3.129c.51.424.931.944 1.264 1.558.334.615.542 1.292.63 2.036.089.739.045 1.522-.132 2.344-.177.816-.523 1.655-1.038 2.508-.678 1.118-1.447 1.985-2.306 2.603-.86.618-1.769 1.019-2.727 1.206a7.288 7.288 0 0 1-2.967-.046 10.167 10.167 0 0 1-2.978-1.165c-.988-.57-1.818-1.25-2.492-2.038a7.318 7.318 0 0 1-1.454-2.549c-.292-.91-.366-1.875-.224-2.894.142-1.019.53-2.049 1.161-3.09a7.61 7.61 0 0 1 1.91-2.142 7.298 7.298 0 0 1 2.455-1.231 6.9 6.9 0 0 1 2.682-.214c.91.103 1.792.403 2.644.895.228.13.495.293.802.482.306.193.655.452 1.046.78l-5.734 9.47zM59.477 105.84a4.182 4.182 0 0 0 .727-1.687 4.314 4.314 0 0 0-.03-1.726 4.698 4.698 0 0 0-.704-1.603 5.181 5.181 0 0 0-1.295-1.324 5.172 5.172 0 0 0-1.662-.805 4.551 4.551 0 0 0-1.734-.156c-.566.062-1.11.241-1.63.53a4.14 4.14 0 0 0-1.352 1.239c-.378.537-.617 1.094-.717 1.676a4.426 4.426 0 0 0 .038 1.711c.126.562.363 1.09.714 1.593.351.5.786.936 1.304 1.31a5.478 5.478 0 0 0 1.653.82c.584.172 1.16.227 1.726.165a4.31 4.31 0 0 0 1.619-.516c.514-.282.961-.692 1.343-1.227zm-5.34-13.52l12.087 8.708-2.004 2.824-1.635-1.176c.335.817.427 1.698.277 2.645-.151.95-.478 1.78-.981 2.487-.65.916-1.413 1.632-2.29 2.148a7.127 7.127 0 0 1-2.775.958c-.975.12-1.951.058-2.926-.189a8.073 8.073 0 0 1-2.76-1.305 8.134 8.134 0 0 1-2.102-2.2 8.001 8.001 0 0 1-1.136-2.735 7.283 7.283 0 0 1 .002-2.954c.202-1.004.627-1.964 1.279-2.879.502-.709 1.176-1.287 2.017-1.74.843-.447 1.7-.647 2.577-.59l-1.635-1.176 2.006-2.825zM86.005 58.067L88.404 56l9.338 11.618-2.4 2.067-9.337-11.62zm-3.98-3.745c-.452-.566-.665-1.192-.633-1.879.03-.688.288-1.242.772-1.657.497-.431 1.077-.597 1.735-.504.659.093 1.217.423 1.669.987a2.68 2.68 0 0 1 .615 1.854c-.03.69-.296 1.247-.792 1.676-.485.417-1.056.58-1.716.486-.657-.094-1.207-.416-1.65-.963zM105.976 58.68a4.377 4.377 0 0 0 1.828-3.097 4.708 4.708 0 0 0-.153-1.78 5.294 5.294 0 0 0-.826-1.695 5.268 5.268 0 0 0-1.362-1.31 4.692 4.692 0 0 0-1.652-.697 4.457 4.457 0 0 0-1.775-.002c-.61.118-1.19.377-1.742.775-.552.4-.974.868-1.265 1.403a4.502 4.502 0 0 0-.536 1.675 4.47 4.47 0 0 0 .167 1.771c.175.598.456 1.16.84 1.687.383.527.833.969 1.346 1.319a4.478 4.478 0 0 0 3.403.72c.598-.112 1.174-.37 1.727-.768zm4.112-2.09c.055.898-.151 1.785-.617 2.658-.467.874-1.065 1.577-1.795 2.106-.945.684-1.932 1.138-2.965 1.362a7.493 7.493 0 0 1-3.045.051 8.138 8.138 0 0 1-5.08-3.246 8.145 8.145 0 0 1-1.325-2.806 8.028 8.028 0 0 1-.2-3.018 7.48 7.48 0 0 1 .994-2.87c.533-.911 1.272-1.708 2.217-2.391.731-.531 1.585-.882 2.563-1.051.977-.171 1.885-.09 2.726.24l-5.7-7.832 2.913-2.11 13.436 18.46-2.913 2.108-1.21-1.662zM115.891 38.98c-.914.553-1.515 1.283-1.8 2.193-.283.91-.104 1.895.534 2.958l6.243-3.772c-.606-1.008-1.363-1.624-2.27-1.85-.908-.228-1.81-.072-2.707.47zm.1 7.416c.315.444.661.833 1.034 1.169.371.335.78.576 1.227.728.446.15.927.188 1.447.116.519-.071 1.084-.293 1.693-.66.842-.51 1.352-1.046 1.527-1.61a3.59 3.59 0 0 0 .109-1.707l2.958-1.787c.248.615.379 1.267.39 1.957a5.7 5.7 0 0 1-.352 2.066 6.784 6.784 0 0 1-1.13 1.96c-.507.623-1.162 1.18-1.968 1.666-1.06.64-2.085 1.017-3.08 1.134a6.402 6.402 0 0 1-2.825-.274c-.891-.303-1.718-.793-2.484-1.476a10.445 10.445 0 0 1-2.006-2.449c-.584-.97-.992-1.958-1.218-2.964-.227-1.009-.268-1.976-.117-2.906.148-.931.506-1.8 1.07-2.611.562-.81 1.336-1.515 2.323-2.112a6.853 6.853 0 0 1 2.544-.926 6.679 6.679 0 0 1 4.962 1.237c.723.528 1.338 1.213 1.844 2.054.134.222.29.492.465.803.176.314.358.707.546 1.179l-8.959 5.413zM136.013 40.118a4.57 4.57 0 0 0 1.528-1.189 4.57 4.57 0 0 0 .852-1.58 4.678 4.678 0 0 0 .169-1.783 5.068 5.068 0 0 0-.512-1.806 5.057 5.057 0 0 0-1.111-1.508 4.625 4.625 0 0 0-1.511-.952 4.502 4.502 0 0 0-3.63.21c-.623.307-1.126.702-1.513 1.183a4.61 4.61 0 0 0-.836 1.57 4.45 4.45 0 0 0-.157 1.778c.065.617.242 1.217.527 1.8.286.58.65 1.087 1.099 1.516.445.428.944.749 1.493.957a4.599 4.599 0 0 0 1.75.29c.614-.015 1.232-.177 1.852-.486zm1.994-14.759l6.638 13.552-3.275 1.623-.895-1.83c-.11.896-.474 1.74-1.094 2.53-.622.789-1.343 1.388-2.167 1.795-1.06.525-2.124.82-3.19.878a7.594 7.594 0 0 1-3.03-.431 7.932 7.932 0 0 1-4.45-4.012 7.974 7.974 0 0 1-.807-2.98 8.013 8.013 0 0 1 .354-3.013 7.652 7.652 0 0 1 1.505-2.68c.698-.817 1.576-1.486 2.637-2.011.823-.409 1.732-.62 2.735-.634 1-.015 1.887.21 2.66.668l-.897-1.831 3.276-1.624z"/>
  </g>
</svg>
