<svg xmlns="http://www.w3.org/2000/svg" viewBox="0 0 230 230">
  <path fill="#f93700" fill-rule="evenodd" d="M111.6 106.3l3.6-12.3c2.9 8.2 4.4 12.3 4.4 12.3s3.7-2 11-6.1l-5.8 11.6 11.3 3.5-11.3 4.1 5.8 11.2-12.1-6.5-3.3 12-3.6-12-11.5 6.5 5.2-11.2L94 115l11.3-3.3-4.4-11.6z" clip-rule="evenodd"/>
  <path fill="#dadada" d="M178 114c-.6 0-1 .4-1 1 0 34.2-27.8 62-62 62s-62-27.8-62-62 27.8-62 62-62c18.7 0 36.1 8.3 47.9 22.7l-7.5-.8c-.5-.1-1 .3-1.1.9-.1.5.3 1 .9 1.1l10.9 1.1V66.8c0-.6-.4-1-1-1s-1 .4-1 1V74c-12.2-14.6-30-23-49.1-23-35.3 0-64 28.7-64 64s28.7 64 64 64 64-28.7 64-64c0-.6-.4-1-1-1z"/>
  <path d="M13.7 86.2l.9-3c.1-.4.3-.8.6-1.1s.6-.6.9-.7c.3-.2.7-.3 1.1-.3s.8 0 1.2.1.7.3 1.1.5c.3.2.6.5.8.9s.3.7.4 1.1c0 .4 0 .8-.1 1.3l-.8 2 2.9.9-.2.8zm5.9-1.6c.1-.3.1-.6.1-.9s-.1-.5-.3-.8c-.1-.2-.3-.4-.6-.6-.2-.2-.5-.3-.8-.4s-.6-.1-.9-.1-.6.1-.8.2-.5.3-.6.5c-.2.2-.3.5-.4.8l-.6 2.2 4.2 1.2zM25.3 77.3l.8.3-1.4 3.8-8.5-3.1.3-.8 7.8 2.9zM19.4 72l3.1 1.4 1.7-3.7.7.3-1.7 3.7 3 1.3 1.7-3.7.7.3-2 4.5-8.3-3.7 2-4.5.7.3zM31.9 65.4l-1.7-.3-1.9 3.5 1.2 1.3-.4.8-6.5-7.1.3-.6 9.5 1.5zM24 64l3.8 4 1.6-3zM30.8 61.8c.6.4 1.1.5 1.7.3s1-.5 1.4-1.1c.3-.5.5-1 .4-1.5s-.3-.9-.8-1.2c-.3-.2-.5-.3-.8-.3-.2 0-.5 0-.7.1s-.4.2-.6.4-.4.3-.6.5c-.3.3-.6.5-.9.8-.3.2-.6.4-.9.5s-.6.2-1 .1c-.3 0-.7-.2-1.1-.4-.3-.2-.5-.4-.7-.7s-.3-.6-.3-.9 0-.7.1-1c.1-.4.3-.7.5-1.1s.5-.6.8-.9.6-.4.9-.5.7-.1 1 0c.4.1.7.2 1.1.4l-.5.7c-.5-.3-1-.4-1.5-.3s-.9.4-1.2.9-.5 1-.4 1.5c.1.4.3.8.7 1 .3.2.5.3.7.3s.5 0 .7-.1.4-.2.6-.4.4-.3.6-.5c.3-.2.5-.5.8-.7s.6-.4.9-.5.6-.2 1-.2.7.1 1.1.4c.4.2.6.5.8.8s.3.6.4 1c0 .3 0 .7-.1 1.1s-.3.8-.5 1.1c-.2.4-.5.7-.9 1s-.7.4-1 .5-.8.1-1.2 0-.8-.2-1.2-.5zM30.9 51.8l2.7 2 2.5-3.3.6.5-2.5 3.3 2.7 2 2.5-3.3.6.5-3 4-7.2-5.5 3-4 .6.5zM36.9 43.1l2.2-2.3c.3-.3.7-.6 1-.7.4-.2.8-.2 1.1-.2.4 0 .8.1 1.1.2s.7.4 1 .6c.2.2.4.5.6.8s.3.6.3.9c.1.3.1.6 0 .9 0 .3-.2.6-.3.9l3.7.7-.6.7-3.6-.6-1.5 1.6 2.2 2.1-.6.6zm5.9 1.3c.2-.2.4-.5.5-.8s.1-.5.1-.8-.1-.5-.2-.8-.3-.5-.5-.7-.5-.4-.7-.5c-.3-.1-.5-.2-.8-.2s-.5 0-.8.2-.5.3-.7.5L38.1 43l3.2 3zM52.1 41.1c-.5.5-1.1.8-1.7 1s-1.2.2-1.8.2c-.6-.1-1.2-.2-1.7-.5s-1-.7-1.4-1.1c-.4-.5-.7-1-.9-1.6s-.3-1.2-.3-1.7.2-1.2.4-1.8c.3-.6.7-1.1 1.2-1.6s1.1-.8 1.7-1 1.2-.2 1.8-.2c.6.1 1.2.2 1.7.5s1 .7 1.4 1.1c.4.5.7 1 .9 1.6s.3 1.2.3 1.8-.2 1.2-.4 1.8c-.2.5-.6 1-1.2 1.5zm-.5-.6c.4-.4.8-.8 1-1.3s.3-1 .3-1.4-.1-1-.3-1.4c-.2-.5-.4-.9-.8-1.3-.3-.4-.7-.7-1.2-.9-.4-.2-.9-.4-1.4-.5s-1 0-1.5.1-1 .4-1.4.8-.8.8-1 1.3-.3 1-.3 1.4c0 .5.1 1 .3 1.4.2.5.4.9.8 1.3.3.4.7.7 1.2.9.4.2.9.4 1.4.5s1 0 1.5-.1.9-.4 1.4-.8zM52.6 29.8l-2 1.5-.5-.6 4.7-3.5.5.6-2 1.5 4.9 6.7-.7.5zM64.8 31.5l-1.4-1.1-3.3 2.2.4 1.7-.8.5-2.3-9.3.6-.5 7.6 5.9zm-6.3-5.1l1.4 5.3 2.9-1.9zM63.2 22.8L61.1 24l-.4-.7 5-2.9.4.7-2.1 1.3 4.1 7.2-.8.4zM68.5 20l1.5 3 3.7-1.8.3.8-3.7 1.8 1.4 3 3.7-1.8.3.7-4.5 2.1-3.9-8.2 4.5-2.1.3.7zM80.4 14.1c.7-.2 1.4-.3 2-.3.6.1 1.2.2 1.7.5s1 .6 1.3 1.1c.4.5.6.9.8 1.5.2.5.3 1.1.2 1.7 0 .6-.2 1.1-.4 1.7-.2.5-.6 1-1.1 1.4s-1.1.8-1.8 1l-2.5.9-2.7-8.6zM79 15.4l2.4 7.1 1.7-.6c.6-.2 1.1-.5 1.4-.8s.7-.7.9-1.2.3-.9.3-1.4-.1-.9-.2-1.4c-.2-.5-.4-.9-.7-1.2s-.7-.7-1.1-.9-.9-.4-1.4-.4-1.1 0-1.6.2zM88.2 12.6l.8 3.3 4-1 .2.8-4 1 .8 3.2 4-1 .2.8-4.8 1.2-2.2-8.9 4.8-1.2.2.8zM99 18.8l-.7.1-4.7-8.4.9-.2 3.9 7.1 1.3-8 .9-.2zM102.3 9.1l.9-.1 1 9-.9.1zM114.7 14.7c-.1.4-.3.8-.5 1.2s-.5.7-.9.9c-.4.3-.8.5-1.2.7-.5.2-.9.3-1.5.3-.7 0-1.4-.1-2-.3s-1.1-.6-1.5-1-.8-.9-1-1.5-.4-1.2-.4-1.8.1-1.2.2-1.8c.2-.6.5-1.1.8-1.5.4-.5.8-.8 1.4-1.1s1.2-.4 1.9-.5c.6 0 1.2 0 1.7.2.5.1 1 .4 1.3.6.4.3.7.6.9 1s.4.8.5 1.3h-.9c-.1-.3-.2-.7-.4-1s-.4-.5-.7-.7-.6-.4-1-.5-.8-.2-1.3-.1c-.6 0-1.1.2-1.6.4s-.8.5-1.2.9c-.3.4-.5.8-.7 1.3-.1.5-.2 1-.2 1.5s.1 1 .3 1.5.5.9.8 1.2.8.6 1.3.8 1.1.3 1.7.2c.4 0 .7-.1 1-.2s.6-.3.9-.5.5-.4.7-.7.3-.5.4-.9zM117.6 9.2l-.2 3.4 4.1.2v.8l-4.1-.2-.1 3.3 4.1.2v.8l-5-.2.4-9.1 5 .2v.8zM129.5 10.3l-2.4-.4.1-.8 5.7.9-.1.8-2.4-.4-1.2 8.2-.9-.1zM136.2 20.2c-.7-.2-1.3-.4-1.8-.8s-.9-.8-1.2-1.4c-.3-.5-.5-1.1-.6-1.7s0-1.2.1-1.8.4-1.2.7-1.7.8-.9 1.2-1.3c.5-.3 1.1-.6 1.7-.7s1.3-.1 2 .1 1.3.4 1.8.8.9.8 1.2 1.4c.3.5.5 1.1.6 1.7s.1 1.2-.1 1.8c-.1.6-.4 1.2-.7 1.7s-.8.9-1.2 1.3-1 .6-1.7.7-1.3 0-2-.1zm.1-.8c.6.1 1.1.1 1.6 0s1-.3 1.4-.6.7-.6 1-1.1c.3-.4.5-.9.6-1.4s.1-1 .1-1.5c-.1-.5-.2-1-.4-1.4s-.6-.8-1-1.1-.9-.5-1.5-.7c-.6-.1-1.1-.1-1.6 0s-1 .3-1.3.6c-.4.3-.7.6-1 1.1-.3.4-.5.9-.6 1.4s-.1 1-.1 1.5c.1.5.2 1 .4 1.4s.5.8.9 1.1c.5.3 1 .6 1.5.7zM148.6 14.1l2.9 1.1c.4.2.8.4 1.1.7s.5.6.7 1c.1.4.2.7.2 1.1s-.1.8-.2 1.2-.3.7-.6 1-.6.5-.9.7-.7.3-1.1.3-.8-.1-1.3-.2l-2.1-.8-1.1 2.9-.8-.3zm1.1 6c.3.1.6.2.9.2s.6-.1.8-.2.5-.3.6-.5c.2-.2.3-.5.4-.7.1-.3.2-.6.2-.8 0-.3 0-.6-.2-.8-.1-.3-.3-.5-.5-.7s-.5-.4-.8-.5l-2.1-.8-1.6 4.1zM156.2 27.4c-.7-.3-1.2-.7-1.6-1.2s-.7-1-.9-1.6-.2-1.2-.2-1.8c.1-.6.2-1.2.5-1.7s.6-1 1.1-1.5c.4-.4.9-.7 1.5-1 .6-.2 1.2-.3 1.8-.3s1.3.2 1.9.5c.7.3 1.2.7 1.6 1.2s.7 1 .9 1.6.2 1.2.2 1.8-.2 1.2-.5 1.7c-.3.6-.6 1-1.1 1.5-.4.4-.9.7-1.5.9s-1.1.3-1.8.3c-.6 0-1.2-.1-1.9-.4zm.4-.8c.5.3 1 .4 1.6.4s1-.1 1.4-.3c.5-.2.9-.4 1.2-.8.4-.3.7-.8.9-1.2.2-.5.4-.9.4-1.4.1-.5 0-1-.1-1.5s-.4-.9-.7-1.3-.7-.7-1.3-1c-.5-.3-1.1-.4-1.6-.4s-1 .1-1.4.3-.9.5-1.2.8c-.4.3-.7.8-.9 1.2-.2.5-.4.9-.4 1.4s0 1 .1 1.5.4.9.7 1.3.8.8 1.3 1zM166.6 22.3l2.7 1.6c.4.2.7.5.9.9.2.3.4.7.5 1.1s.1.8 0 1.1-.2.8-.4 1.1-.4.5-.6.7-.5.4-.8.5-.6.2-.9.2-.6 0-1-.1l.1 3.8-.9-.5v-3.6l-1.9-1.2-1.6 2.6-.8-.5zm0 6.1c.3.2.6.3.9.3s.6 0 .8-.1c.3-.1.5-.2.7-.4l.6-.6c.2-.3.3-.5.3-.8.1-.3.1-.6 0-.8s-.2-.5-.3-.8-.4-.4-.7-.6l-1.9-1.2-2.3 3.8zM174.2 28.2l-2-1.4.5-.7 4.7 3.4-.5.7-2-1.4-4.8 6.7-.7-.5zM178.9 30.7l2.4 2c.4.3.6.6.8 1s.3.7.3 1.1 0 .8-.1 1.1-.3.7-.6 1c-.2.3-.5.5-.7.6-.3.2-.6.3-.9.4s-.6.1-.9.1-.6-.1-.9-.3l-.5 3.8-.8-.7.5-3.6-1.7-1.4-2 2.4-.7-.6zm-.9 6c.3.2.5.4.8.4.3.1.6.1.8.1s.5-.1.8-.3c.2-.1.5-.3.7-.6.2-.2.3-.5.4-.7.1-.3.1-.5.1-.8s-.1-.5-.2-.8-.3-.5-.6-.7l-1.7-1.4-2.8 3.4zM182.6 46.2l.7-1.6-2.8-2.8-1.5.8-.7-.7 8.6-4.3.5.5-4.1 8.7zm3.5-7.3l-4.9 2.6 2.4 2.4zM190.7 41.6l.6.7-6.7 6.2-.6-.7zM193.4 45.9l-1.6-1.9.6-.5 3.7 4.4-.6.5-1.6-1.9-6.4 5.3-.6-.7zM196.6 64.4l-.5-.7 5.9-3.8-7.5 1.3-.4-.6 4.3-6.3-5.9 3.8-.5-.7 7.6-4.9.5.7-4.7 7 8.3-1.4.5.7zM199.3 70c-.3-.7-.5-1.3-.5-1.9s.1-1.2.3-1.8.5-1.1.9-1.5.9-.8 1.4-1.1 1.1-.4 1.7-.5 1.2 0 1.8.1c.6.2 1.1.4 1.6.8s.9.9 1.2 1.6.5 1.3.5 1.9-.1 1.2-.3 1.8-.5 1.1-.9 1.5-.9.8-1.4 1.1c-.6.3-1.1.4-1.7.5s-1.2 0-1.8-.2-1.1-.4-1.6-.8c-.5-.3-.9-.8-1.2-1.5zm.7-.3c.3.5.6.9 1 1.3.4.3.8.5 1.3.7.5.1 1 .2 1.5.1s1-.2 1.4-.4c.5-.2.9-.5 1.2-.9s.6-.8.8-1.2c.2-.5.3-.9.3-1.5 0-.5-.1-1-.4-1.5s-.6-.9-1-1.3c-.4-.3-.8-.5-1.3-.7-.5-.1-1-.2-1.5-.1s-1 .2-1.4.4c-.5.2-.9.5-1.2.9s-.6.8-.8 1.2-.3.9-.3 1.4.1 1 .4 1.6zM211.6 74.8c.3.7.4 1.4.3 2 0 .6-.2 1.2-.4 1.8-.3.5-.6 1-1 1.4s-.9.7-1.5.9c-.5.2-1.1.3-1.7.3s-1.1-.1-1.7-.3-1-.6-1.5-1c-.5-.5-.8-1-1.1-1.7l-.9-2.5 8.5-3.2zm-1.4-1.3l-7 2.7.6 1.7c.2.6.5 1 .9 1.4s.8.6 1.2.8.9.3 1.4.3.9-.1 1.4-.3c.4-.2.8-.4 1.2-.7s.6-.7.9-1.1c.2-.4.3-.9.4-1.4 0-.5-.1-1.1-.3-1.6zM213.4 82.6l-3.2.9 1.1 3.9-.8.2-1.1-3.9-3.2.9 1.1 3.9-.8.2-1.4-4.8 8.7-2.5 1.4 4.8-.8.2zM23.1 144.2l1 3c.1.4.2.9.2 1.3s-.1.8-.3 1.1-.4.6-.7.9-.6.4-1 .6c-.4.1-.8.2-1.2.2s-.8-.1-1.1-.3-.7-.4-.9-.7-.5-.7-.6-1.1l-.7-2.1-2.9 1-.3-.8zm-3.9 4.6c.1.3.3.6.4.8.2.2.4.4.7.5s.5.2.8.2.6 0 .9-.1.5-.2.8-.4c.2-.2.4-.4.5-.6s.2-.5.2-.8 0-.6-.1-.9l-.7-2.1-4.2 1.4zM19.5 158.3l-.7.3-1.5-3.7 8.4-3.5.3.8-7.7 3.2zM27.4 157.5l-3 1.5 1.8 3.7-.7.4-1.8-3.7-3 1.5 1.8 3.7-.7.4-2.2-4.5 8.2-4L30 161l-.7.4zM25.6 171.5l1.1-1.3-2-3.4-1.7.3-.5-.8 9.4-1.9.3.6-6.3 7.3zm5.3-6.1l-5.4 1.2 1.7 2.9zM29.5 172.4c-.5.4-.9.9-1 1.4s.1 1.2.5 1.8c.4.5.8.9 1.2 1 .5.1.9.1 1.4-.2.3-.2.4-.4.5-.6s.2-.4.2-.7c0-.2 0-.5-.1-.7s-.1-.5-.2-.7c-.1-.4-.3-.8-.4-1.1-.1-.4-.1-.7-.1-1.1 0-.3.1-.7.2-1s.4-.6.8-.9c.3-.2.6-.3.9-.4s.6 0 .9 0c.3.1.6.2.9.5.3.2.6.5.8.9.2.3.4.7.5 1.1s.1.7.1 1c-.1.3-.2.7-.4 1s-.5.6-.8.8l-.5-.7c.5-.4.8-.8.9-1.2.1-.5 0-1-.4-1.4-.4-.5-.7-.8-1.2-1-.4-.1-.8-.1-1.2.2-.2.2-.4.4-.5.6s-.2.4-.2.7 0 .5.1.7.2.5.2.8c.1.3.2.7.3 1.1s.1.7.1 1.1c0 .3-.1.7-.2 1s-.4.6-.8.9c-.3.2-.7.4-1.1.5s-.7 0-1-.1-.7-.3-1-.5-.6-.5-.8-.9c-.3-.4-.4-.8-.5-1.2s-.1-.8-.1-1.2.2-.7.4-1.1c.2-.3.5-.6.9-.9zM38.6 175.7l-2.6 2.1 2.6 3.2-.6.5-2.6-3.2-2.6 2.1 2.6 3.2-.6.5-3.1-3.9 7.1-5.7 3.1 3.9-.6.5zM45.3 182.3l2.2 2.2c.3.3.6.7.7 1.1s.2.8.2 1.1c0 .4-.1.8-.2 1.1-.2.4-.4.7-.7 1-.2.2-.5.4-.8.6l-.9.3c-.3.1-.6.1-.9 0l-.9-.3-.8 3.7-.7-.7.8-3.5-1.6-1.6-2.2 2.2-.6-.6zm-1.4 5.9c.2.2.5.4.8.5s.5.1.8.1.5-.1.8-.2.5-.3.7-.5.4-.4.5-.7.2-.5.2-.8 0-.5-.1-.8-.3-.5-.5-.8l-1.6-1.6-3.1 3.1zM48.1 197.5c-.6-.5-1-1-1.3-1.6s-.4-1.2-.5-1.8 0-1.2.2-1.8.5-1.1.9-1.6.8-.9 1.4-1.2c.5-.3 1.1-.5 1.7-.6s1.2 0 1.8.1c.6.2 1.2.5 1.8.9.6.5 1 1 1.3 1.5s.4 1.2.5 1.7 0 1.2-.2 1.8-.5 1.1-.9 1.6-.9.9-1.4 1.2-1.1.5-1.7.6-1.2 0-1.8-.1c-.6 0-1.2-.3-1.8-.7zm.5-.7c.4.4.9.6 1.4.7s1 .1 1.5.1c.5-.1.9-.2 1.4-.5.4-.3.8-.6 1.1-1s.6-.8.7-1.3c.2-.5.2-1 .2-1.4 0-.5-.1-1-.4-1.4s-.6-.9-1-1.2c-.5-.4-.9-.6-1.4-.7s-1-.1-1.5-.1c-.5.1-.9.2-1.4.5s-.8.6-1.1 1-.6.8-.7 1.3c-.2.5-.2 1-.2 1.4 0 .5.1 1 .4 1.4.2.4.6.9 1 1.2zM59.2 195.2l-2-1.4.5-.7 4.8 3.3-.5.7-2-1.4-4.7 6.8-.7-.5zM62.2 207l.4-1.7-3.4-2.1-1.3 1.1-.8-.5 7.4-6.1.6.4-2.1 9.4zm1.9-7.8l-4.2 3.6 2.9 1.8zM69 201.3l-2.2-1.1.4-.7 5.1 2.7-.4.7-2.2-1.2-3.9 7.3-.8-.4zM73.9 203.8l-1.4 3.1 3.7 1.7-.3.7-3.7-1.7-1.4 3 3.7 1.7-.3.7-4.5-2 3.7-8.3 4.5 2-.3.7zM85.4 207.4c.7.2 1.3.5 1.8 1s.9.9 1.1 1.4c.3.5.4 1.1.4 1.7s0 1.1-.2 1.7c-.2.5-.4 1-.8 1.5s-.8.8-1.3 1.1-1.1.5-1.7.5c-.6.1-1.3 0-2-.2l-2.5-.8 2.7-8.7zm-1.9.2l-2.2 7.2 1.7.5c.6.2 1.1.2 1.6.2s1-.2 1.4-.5c.4-.2.8-.5 1.1-.9s.5-.8.7-1.2c.1-.5.2-.9.2-1.4s-.1-.9-.4-1.4-.5-.8-.9-1.2c-.4-.3-.9-.6-1.5-.8zM92.1 210.1l-.7 3.3 4 .9-.2.8-4-.9-.7 3.2 4 .9-.2.8-4.8-1.1 2-8.9 4.8 1.1-.3.8zM99.7 220l-.7-.1-1.9-9.5.9.1 1.5 8 3.7-7.2.9.1zM105.3 211.5l.9.1-.8 9.1-.9-.1zM116.5 218.4c-.1.4-.3.8-.6 1.1s-.6.6-1 .9l-1.2.6c-.5.1-1 .2-1.5.2-.7 0-1.4-.2-2-.4-.6-.3-1.1-.6-1.5-1.1-.4-.4-.7-1-.9-1.5-.2-.6-.3-1.2-.3-1.8s.1-1.2.4-1.8c.2-.6.5-1.1.9-1.5s.9-.8 1.5-1 1.2-.4 1.9-.4c.6 0 1.2.1 1.7.3s.9.4 1.3.7.6.7.9 1.1c.2.4.4.8.5 1.3h-.9c-.1-.3-.2-.7-.4-1s-.4-.6-.7-.8-.6-.4-1-.5-.8-.2-1.3-.2c-.6 0-1.1.1-1.6.3s-.9.5-1.2.8c-.3.4-.6.8-.8 1.2-.2.5-.3 1-.3 1.5s.1 1 .2 1.5c.2.5.4.9.7 1.3s.7.7 1.2.9 1 .3 1.7.4c.4 0 .7 0 1-.1s.6-.2.9-.4.5-.4.7-.6.4-.5.5-.8zM119 212.6l.2 3.4 4.1-.3v.8l-4.1.3.2 3.3 4.1-.3v.8l-5 .3-.6-9.1 5-.3v.8zM129.9 211.5l-2.4.4-.1-.8 5.7-1 .1.8-2.4.4 1.4 8.2-.9.1zM139.9 218.1c-.7.2-1.4.2-2 .1s-1.2-.3-1.7-.7c-.5-.3-.9-.7-1.3-1.2-.3-.5-.6-1.1-.7-1.7s-.2-1.2-.1-1.8.2-1.2.5-1.7.7-1 1.2-1.4 1.1-.7 1.8-.9 1.4-.2 2-.1 1.2.3 1.7.7c.5.3.9.7 1.3 1.2.3.5.6 1.1.7 1.6.1.6.2 1.2.1 1.8s-.3 1.2-.5 1.7c-.3.5-.7 1-1.2 1.4-.5.5-1.1.8-1.8 1zm-.2-.8c.6-.1 1-.4 1.4-.7s.7-.7.9-1.1.4-.9.4-1.4c.1-.5 0-1-.1-1.5s-.3-1-.6-1.4-.6-.8-1-1c-.4-.3-.9-.5-1.4-.6s-1-.1-1.6.1c-.6.1-1.1.4-1.5.7s-.7.7-.9 1.1-.4.9-.4 1.4c-.1.5 0 1 .1 1.5s.3 1 .6 1.4.6.8 1 1c.4.3.9.5 1.4.6.6.1 1.1.1 1.7-.1zM146.7 206.4l2.9-1.1c.4-.2.8-.2 1.3-.2.4 0 .8.1 1.1.3s.7.4.9.7.5.6.6 1 .2.8.2 1.2-.1.8-.2 1.1c-.1.4-.4.7-.7 1s-.7.5-1.1.7l-2.1.8 1.1 2.9-.8.3zm4.8 3.7c.3-.1.6-.3.8-.5s.4-.4.5-.7.1-.5.1-.8-.1-.6-.2-.8c-.1-.3-.3-.5-.4-.7s-.4-.4-.7-.5c-.2-.1-.5-.2-.8-.2s-.6 0-.9.2l-2.1.8 1.6 4.1zM161.6 210c-.7.3-1.3.5-1.9.5s-1.2-.1-1.8-.3-1.1-.5-1.5-.9-.8-.9-1.1-1.4-.4-1.1-.5-1.7 0-1.2.1-1.8c.2-.6.4-1.1.8-1.6s.9-.9 1.6-1.2 1.3-.5 1.9-.5 1.2.1 1.8.3 1.1.5 1.5.9c.5.4.8.9 1.1 1.4s.4 1.1.5 1.7 0 1.2-.1 1.8c-.2.6-.4 1.1-.8 1.6s-1 .9-1.6 1.2zm-.4-.7c.5-.3.9-.6 1.2-1s.5-.8.7-1.3c.1-.5.2-1 .1-1.5s-.2-1-.4-1.4c-.2-.5-.5-.9-.9-1.2s-.8-.6-1.2-.8-.9-.3-1.5-.2c-.5 0-1 .1-1.5.4s-.9.6-1.3 1c-.3.4-.5.8-.7 1.3-.1.5-.2 1-.1 1.5s.2 1 .4 1.4c.2.5.5.9.9 1.2s.8.6 1.2.8.9.3 1.4.3 1.2-.2 1.7-.5zM162.8 198.8l2.7-1.7c.4-.2.8-.4 1.2-.5s.8 0 1.2 0c.4.1.7.3 1 .5s.6.5.8.9c.2.3.3.6.4.9s.1.6.1.9-.1.6-.2.9-.3.6-.5.8l3.4 1.6-.9.5-3.3-1.6-1.9 1.2 1.6 2.6-.7.5zm5.4 2.8c.3-.2.5-.4.7-.6s.3-.5.3-.8v-.8c-.1-.3-.2-.5-.3-.8-.2-.2-.3-.5-.6-.6-.2-.2-.5-.3-.7-.4-.3-.1-.5-.1-.8 0s-.6.2-.8.3l-1.9 1.2 2.4 3.7zM170.7 194.6l-2 1.4-.5-.7 4.7-3.4.5.7-2 1.5 4.9 6.7-.7.5zM173.8 191.3l2.4-2c.4-.3.7-.5 1.1-.6s.8-.2 1.2-.1.7.2 1.1.3c.3.2.6.4.9.7.2.3.4.5.5.8s.2.6.2.9 0 .6-.1.9-.2.6-.4.9l3.6 1.1-.8.7-3.5-1.1-1.7 1.4 2 2.3-.7.6zm5.7 2c.3-.2.4-.4.6-.7s.2-.5.2-.8 0-.5-.1-.8-.2-.5-.4-.7-.4-.4-.7-.5c-.2-.1-.5-.2-.8-.3-.3 0-.5 0-.8.1s-.5.2-.8.4l-1.7 1.5 2.8 3.4zM189.6 189.2l-1.5-.8-2.8 2.8.7 1.6-.7.7-4.1-8.7.5-.5 8.6 4.3zm-7.2-3.7l2.5 4.9 2.4-2.4zM184.5 181.3l.6-.7 6.7 6.1-.6.7zM188.2 178.3l-1.6 1.9-.6-.5 3.7-4.5.6.5-1.6 1.9 6.4 5.3-.6.7zM204.6 169.6l-.5.7-5.9-3.8 4.3 6.3-.4.6-7.5-1.3 5.9 3.8-.5.7-7.6-4.9.5-.7 8.3 1.4-4.7-7 .5-.7zM208.1 163.5c-.3.7-.7 1.2-1.2 1.6s-1 .7-1.6.8c-.6.2-1.2.2-1.8.1s-1.2-.2-1.7-.5-1-.6-1.4-1.1c-.4-.4-.7-.9-.9-1.5s-.3-1.2-.3-1.8.2-1.3.5-1.9.7-1.2 1.2-1.6 1-.7 1.6-.8c.6-.2 1.2-.2 1.8-.1s1.2.2 1.7.5 1 .6 1.4 1.1.7 1 .9 1.5.3 1.2.3 1.8-.2 1.2-.5 1.9zm-.7-.4c.3-.5.4-1 .4-1.5s-.1-1-.3-1.5-.4-.9-.8-1.2-.7-.7-1.2-.9-.9-.4-1.4-.4-1 0-1.5.1-.9.3-1.3.7c-.4.3-.7.7-1 1.3-.3.5-.4 1-.4 1.6 0 .5.1 1 .3 1.4.2.5.4.9.8 1.2.3.4.7.7 1.2.9s.9.4 1.4.4 1 0 1.5-.1.9-.3 1.3-.7c.4-.3.7-.7 1-1.3zM203.3 151.3c.3-.7.6-1.3 1.1-1.7s.9-.8 1.5-1 1.1-.3 1.7-.3 1.1.1 1.7.3c.5.2 1 .5 1.5.9s.8.8 1 1.4c.3.5.4 1.1.4 1.8 0 .6-.1 1.3-.4 2l-1 2.5-8.5-3.3zm.2 2l7 2.7.6-1.7c.2-.6.3-1.1.3-1.6s-.2-1-.4-1.4-.5-.8-.9-1.1-.8-.6-1.2-.7c-.4-.2-.9-.3-1.4-.3s-.9.1-1.4.3c-.4.2-.8.4-1.2.8s-.7.8-.9 1.4zM206.5 144.9l3.2.9 1.1-3.9.8.2-1.1 3.9 3.2.9 1.1-3.9.8.2-1.4 4.8-8.7-2.5 1.4-4.8.8.2z"/>
</svg>
