<svg xmlns="http://www.w3.org/2000/svg" viewBox="0 0 165 165">
  <g fill="none" fill-rule="evenodd" transform="translate(-.774 .226)">
    <g fill="#FFF">
      <path d="M115.646 82.94c0 2.824 2.262 5.117 5.05 5.117 2.79 0 5.052-2.293 5.052-5.118 0-2.828-2.262-5.118-5.052-5.118-2.788 0-5.05 2.29-5.05 5.118M50.16 89.53c0 2.826-2.26 5.119-5.051 5.119-2.791 0-5.051-2.293-5.051-5.118 0-2.828 2.26-5.118 5.05-5.118 2.792 0 5.052 2.29 5.052 5.118M84.336 134.856c-26.995 0-39.336-20.064-39.85-20.918a2.347 2.347 0 0 1 .842-3.236 2.414 2.414 0 0 1 3.28.83c.456.756 11.533 18.6 35.599 18.6 24.192 0 35.27-17.844 35.73-18.604a2.414 2.414 0 0 1 3.28-.822 2.344 2.344 0 0 1 .837 3.232c-.511.854-12.852 20.918-39.718 20.918"/>
    </g>
    <circle cx="82.824" cy="82.317" r="80.5" stroke="#FFF" stroke-width="3"/>
  </g>
</svg>
