<svg xmlns="http://www.w3.org/2000/svg" viewBox="0 0 81 81">
  <g fill="none" fill-rule="evenodd" transform="rotate(-11 45.109 35.789)">
    <g fill="#FFF">
      <path d="M55.915 40.516c0 1.388 1.105 2.515 2.466 2.515 1.363 0 2.468-1.127 2.468-2.515 0-1.39-1.105-2.516-2.468-2.516-1.361 0-2.466 1.126-2.466 2.516M23.934 43.756c0 1.388-1.104 2.515-2.467 2.515S19 45.144 19 43.756c0-1.39 1.104-2.516 2.467-2.516s2.467 1.126 2.467 2.516M40.624 66.034c-13.184 0-19.21-9.862-19.461-10.281a1.158 1.158 0 0 1 .411-1.591 1.175 1.175 0 0 1 1.602.408c.222.371 5.632 9.142 17.385 9.142 11.815 0 17.225-8.77 17.45-9.144a1.174 1.174 0 0 1 1.601-.404c.554.327.738 1.037.41 1.589-.25.419-6.277 10.281-19.398 10.281"/>
    </g>
    <circle cx="40" cy="40" r="38.5" stroke="#FFF" stroke-width="3"/>
  </g>
</svg>
